<svg xmlns="http://www.w3.org/2000/svg" width="46" height="68" viewBox="0 0 46 68" fill="none">
  <path d="M28.0625 0.250022C28.359 0.46796 28.359 0.46796 28.625 0.812522C28.6725 1.19214 28.6866 1.50799 28.6713 1.88539C28.669 1.99087 28.6668 2.09635 28.6645 2.20503C28.6331 3.38085 28.5432 4.55276 28.4465 5.72468C28.4272 5.96657 28.4081 6.20846 28.389 6.45036C28.3375 7.0991 28.2849 7.74774 28.2321 8.39637C28.1767 9.07789 28.1223 9.75949 28.0679 10.4411C27.9764 11.5831 27.8842 12.725 27.7916 13.8669C27.6845 15.1867 27.5784 16.5066 27.4729 17.8266C27.3602 19.2354 27.2468 20.6443 27.1333 22.0531C27.1006 22.4582 27.0682 22.8634 27.0357 23.2686C26.9848 23.9038 26.9334 24.539 26.8816 25.1742C26.8627 25.4073 26.8439 25.6404 26.8253 25.8735C26.8 26.1913 26.774 26.509 26.7479 26.8267C26.7335 27.0046 26.7191 27.1824 26.7043 27.3657C26.6664 27.7184 26.6153 28.0359 26.5156 28.375C26.61 28.3745 26.7045 28.374 26.8017 28.3735C29.0986 28.361 31.3954 28.3517 33.6922 28.3459C34.8029 28.343 35.9137 28.339 37.0244 28.3326C37.9924 28.327 38.9604 28.3234 39.9285 28.3221C40.4411 28.3214 40.9537 28.3196 41.4664 28.3155C42.0384 28.311 42.6105 28.3109 43.1826 28.3112C43.4379 28.3081 43.4379 28.3081 43.6984 28.305C43.8542 28.3058 44.01 28.3066 44.1705 28.3074C44.3058 28.3069 44.4411 28.3063 44.5806 28.3058C45.0472 28.3963 45.2129 28.5648 45.5 28.9375C45.6375 29.7976 45.4594 30.2468 44.9644 30.9469C44.8859 31.0524 44.8074 31.1579 44.7265 31.2666C44.5579 31.5028 44.3892 31.739 44.2206 31.9752C44.1311 32.0987 44.0415 32.2222 43.9492 32.3495C43.5721 32.8729 43.2055 33.4032 42.8385 33.9338C41.9632 35.1994 41.0793 36.459 40.1963 37.7192C39.195 39.1489 38.1993 40.5824 37.2031 42.0157C36.0472 43.6787 34.8904 45.3411 33.7281 46.9997C33.1032 47.8917 32.4809 48.7854 31.8594 49.6797C31.158 50.6888 30.4552 51.6968 29.75 52.7032C28.668 54.2473 27.5917 55.7955 26.5156 57.3438C25.3606 59.0055 24.2048 60.6666 23.0433 62.3238C22.2956 63.3912 21.5516 64.4611 20.8085 65.5316C20.6336 65.7834 20.4584 66.035 20.283 66.2864C20.1332 66.5013 19.9839 66.7165 19.8354 66.9323C19.3752 67.5937 19.3752 67.5937 19.0625 67.75C18.0487 67.8318 18.0487 67.8318 17.6409 67.5321C17.2822 67.0674 17.3059 66.6764 17.3287 66.1147C17.3309 66.0092 17.3332 65.9037 17.3355 65.795C17.3669 64.6192 17.4568 63.4473 17.5535 62.2754C17.5727 62.0335 17.5919 61.7916 17.611 61.5497C17.6624 60.901 17.715 60.2523 17.7679 59.6037C17.8233 58.9222 17.8776 58.2406 17.9321 57.559C18.0236 56.417 18.1157 55.2751 18.2084 54.1332C18.3155 52.8134 18.4216 51.4935 18.5271 50.1735C18.6398 48.7646 18.7531 47.3558 18.8667 45.947C18.8993 45.5418 18.9318 45.1366 18.9643 44.7315C19.0152 44.0963 19.0666 43.4611 19.1184 42.8259C19.1373 42.5928 19.156 42.3597 19.1746 42.1266C19.2 41.8088 19.226 41.4911 19.2521 41.1734C19.2665 40.9955 19.2809 40.8176 19.2957 40.6344C19.3336 40.2816 19.3846 39.9642 19.4844 39.625C19.3899 39.6255 19.2955 39.6261 19.1982 39.6266C16.9014 39.639 14.6046 39.6483 12.3078 39.6542C11.197 39.6571 10.0863 39.661 8.9756 39.6675C8.00757 39.6731 7.03955 39.6767 6.07151 39.678C5.55886 39.6787 5.04625 39.6804 4.53362 39.6845C3.96153 39.689 3.38952 39.6891 2.81742 39.6889C2.64718 39.6909 2.47695 39.6929 2.30155 39.695C2.14577 39.6942 1.99 39.6935 1.8295 39.6927C1.6265 39.6934 1.6265 39.6934 1.41941 39.6942C0.952777 39.6038 0.787055 39.4352 0.499989 39.0625C0.362514 38.2024 0.540546 37.7533 1.03554 37.0532C1.11404 36.9477 1.19254 36.8421 1.27343 36.7334C1.44209 36.4972 1.61073 36.261 1.77935 36.0248C1.86892 35.9013 1.95849 35.7778 2.05078 35.6506C2.42788 35.1272 2.7945 34.5968 3.16143 34.0663C4.03679 32.8007 4.92066 31.541 5.80367 30.2808C6.80502 28.8512 7.8007 27.4176 8.79686 25.9844C9.95298 24.321 11.1101 22.6584 12.2725 20.9994C13.2738 19.5698 14.2695 18.1363 15.2656 16.7031C16.4215 15.0401 17.5783 13.3777 18.7407 11.7191C19.3655 10.8271 19.9878 9.93335 20.6094 9.03909C21.3896 7.91662 22.172 6.79574 22.9566 5.67634C23.7043 4.60897 24.4483 3.53901 25.1915 2.46844C25.3664 2.21665 25.5415 1.96503 25.717 1.71361C25.8668 1.49877 26.0161 1.28353 26.1645 1.06775C26.6866 0.317557 27.1257 0.0573673 28.0625 0.250022Z" fill="#23586A"/>
</svg>