<svg xmlns="http://www.w3.org/2000/svg" width="70" height="70" viewBox="0 0 70 70" fill="none">
  <path d="M40.8799 17.9102C41.4617 18.3754 41.9918 18.8902 42.5205 19.4141C42.613 19.4999 42.7056 19.5857 42.8009 19.6742C44.8276 21.5841 46.3996 24.8408 46.4953 27.6341C46.5071 28.3124 46.4997 28.9898 46.4853 29.668C46.6207 29.683 46.756 29.6979 46.8955 29.7134C48.7787 29.9343 48.7787 29.9343 49.6299 30.3516C49.9481 30.8289 49.9721 31.0204 49.9033 31.582C49.7068 31.9067 49.7068 31.9067 49.3564 32.1289C48.5678 32.2598 47.7838 32.0808 47.0114 31.9233C46.6091 31.8532 46.2178 31.8265 45.8103 31.8042C45.3312 31.7659 45.1585 31.7476 44.7593 31.4624C44.4583 30.9972 44.4173 30.6214 44.4105 30.0808C44.3327 26.3529 43.3298 23.1764 40.6064 20.5078C38.0741 18.2888 34.9927 17.3497 31.6594 17.4755C28.6224 17.6882 25.8871 19.1597 23.79 21.3281C22.8188 22.4488 21.3291 24.573 21.3291 26.1133C21.4829 26.1598 21.6368 26.2063 21.7953 26.2543C23.8384 26.8913 25.5823 27.6983 27.208 29.1211C27.3521 29.2406 27.3521 29.2406 27.4991 29.3625C28.2833 30.0152 28.2833 30.0152 28.3445 30.6763C28.3017 31.1719 28.3017 31.1719 28.0796 31.5051C27.6563 31.7836 27.4355 31.7741 26.9346 31.7188C26.5735 31.4832 26.5735 31.4832 26.2168 31.1633C23.5514 28.8716 20.4821 27.7688 16.9541 28.0274C13.9016 28.4153 11.158 29.8669 9.13602 32.1999C6.94495 35.0488 6.22373 38.3663 6.60012 41.9073C7.02524 44.5981 8.76679 47.4375 10.927 49.0692C12.9127 50.5055 15.2197 51.5576 17.7134 51.5609C17.861 51.5615 18.0086 51.562 18.1607 51.5626C18.3205 51.5625 18.4803 51.5624 18.645 51.5624C18.8149 51.5628 18.9848 51.5633 19.1599 51.5638C19.5283 51.5648 19.8967 51.5656 20.265 51.566C20.8476 51.5668 21.4302 51.5691 22.0127 51.5717C22.2124 51.5726 22.4122 51.5734 22.6119 51.5743C22.7619 51.5749 22.7619 51.5749 22.9149 51.5756C24.2703 51.5813 25.6257 51.5859 26.9811 51.5875C27.8967 51.5887 28.8123 51.5918 29.7279 51.597C30.2121 51.5997 30.6962 51.6014 31.1804 51.6007C31.7198 51.6 32.2592 51.6034 32.7986 51.6072C32.959 51.6063 33.1193 51.6054 33.2846 51.6045C33.4314 51.6062 33.5782 51.6079 33.7295 51.6097C33.9207 51.6102 33.9207 51.6102 34.1158 51.6107C34.5613 51.7016 34.7249 51.8714 35.001 52.2266C35.0693 52.7051 35.0693 52.7051 35.001 53.1836C34.7262 53.5362 34.5628 53.7082 34.12 53.7989C33.9945 53.7989 33.8689 53.799 33.7396 53.799C33.595 53.8003 33.4503 53.8017 33.3013 53.8031C33.1433 53.8018 32.9853 53.8004 32.8224 53.7991C32.6554 53.7998 32.4884 53.8005 32.3163 53.8013C31.8579 53.8027 31.3997 53.8017 30.9414 53.7994C30.4597 53.7975 29.978 53.7984 29.4963 53.7989C28.6854 53.7993 27.8746 53.7974 27.0637 53.7943C26.1319 53.7906 25.2002 53.7904 24.2685 53.792C23.3678 53.7935 22.4672 53.7926 21.5665 53.7907C21.1857 53.7899 20.8049 53.7899 20.424 53.7906C15.6912 53.7966 11.7042 52.9874 8.22973 49.5691C5.44871 46.7463 4.31426 43.2368 4.32627 39.3351C4.38331 35.4644 6.03731 32.1799 8.76372 29.4591C11.2216 27.1056 14.6483 25.7935 18.0393 25.8313C18.1458 25.8319 18.2524 25.8325 18.3621 25.8332C18.622 25.8348 18.8818 25.8372 19.1416 25.8399C19.1553 25.7036 19.1691 25.5674 19.1832 25.427C19.2664 24.8505 19.4659 24.3596 19.7056 23.8318C19.7483 23.7366 19.7911 23.6414 19.8351 23.5433C20.5086 22.0718 21.2892 20.8492 22.4228 19.6875C22.5356 19.5691 22.6484 19.4506 22.7646 19.3286C22.8774 19.2215 22.9902 19.1143 23.1064 19.0039C23.1896 18.923 23.2728 18.8421 23.3585 18.7588C28.082 14.3348 35.7209 14.1845 40.8799 17.9102Z" fill="#23586A"/>
  <path d="M55.1837 34.9829C55.3463 35.074 55.509 35.1651 55.6717 35.2562C56.8638 35.9254 58.0466 36.6106 59.225 37.3038C59.9115 37.7073 60.6003 38.1052 61.2954 38.4937C61.4369 38.5729 61.5784 38.652 61.7242 38.7335C61.9916 38.8825 62.2594 39.0309 62.5276 39.1785C63.8991 39.9429 65.1012 40.6987 65.6256 42.246C65.6621 42.6863 65.6621 42.6863 65.6653 43.1904C65.6662 43.2828 65.6671 43.3751 65.6681 43.4703C65.6707 43.775 65.6712 44.0797 65.6715 44.3844C65.6724 44.5986 65.6733 44.8127 65.6743 45.0269C65.6759 45.4765 65.6764 45.926 65.6763 46.3756C65.6762 46.9451 65.6799 47.5145 65.6847 48.0839C65.6877 48.5271 65.6883 48.9703 65.6881 49.4135C65.6884 49.623 65.6896 49.8324 65.6918 50.0419C65.724 53.5159 64.5172 56.7719 62.1067 59.3151C60.5655 60.7817 58.8031 61.7605 56.9407 62.7689C56.1938 63.175 55.4514 63.5892 54.7088 64.003C54.1864 64.2937 53.6636 64.5836 53.1397 64.8715C52.9215 64.9948 52.7055 65.1222 52.4948 65.2579C52.0286 65.558 51.6085 65.7358 51.0456 65.7035C50.2687 65.5141 49.5884 65.0586 48.9032 64.6594C48.7286 64.5598 48.5539 64.4605 48.379 64.3613C48.018 64.1564 47.6576 63.9504 47.2975 63.7439C46.7805 63.4485 46.2587 63.1624 45.7351 62.8788C45.5707 62.7893 45.4063 62.6998 45.2418 62.6102C44.9358 62.4438 44.6295 62.2781 44.3227 62.1132C43.2817 61.5416 42.3584 60.8883 41.4264 60.1562C41.2853 60.047 41.2853 60.047 41.1415 59.9357C38.818 58.1071 37.3148 54.9806 36.9146 52.0898C36.8715 51.3436 36.8661 50.5982 36.8639 49.851C36.8627 49.6355 36.8614 49.4201 36.8602 49.2046C36.8579 48.7551 36.8569 48.3056 36.8565 47.856C36.8557 47.2833 36.8506 46.7106 36.8443 46.1379C36.8402 45.6936 36.8393 45.2493 36.8391 44.8049C36.8386 44.5939 36.8369 44.3828 36.834 44.1718C36.8169 42.8053 36.8915 41.6479 37.8555 40.5989C38.5038 39.9779 39.2673 39.5705 40.0592 39.1613C40.3277 39.0188 40.5959 38.8758 40.864 38.7325C41.0019 38.6587 41.1398 38.585 41.2818 38.509C41.9683 38.1348 42.6413 37.7383 43.3148 37.3413C44.8745 36.4239 46.4498 35.5362 48.0314 34.6574C48.2735 34.5228 48.5155 34.3879 48.7573 34.2528C48.8667 34.1916 48.9762 34.1305 49.089 34.0675C49.1845 34.0141 49.28 33.9606 49.3783 33.9056C51.4474 32.7841 53.3593 33.9521 55.1837 34.9829ZM49.3561 36.2475C49.2257 36.321 49.0953 36.3945 48.961 36.4703C48.5441 36.7065 48.1296 36.9464 47.7154 37.1874C47.5819 37.2649 47.4484 37.3424 47.3108 37.4222C46.7707 37.736 46.231 38.0506 45.6926 38.3673C44.5375 39.046 43.3703 39.7018 42.1968 40.3482C41.5228 40.7218 40.8555 41.1045 40.1986 41.5074C40.0797 41.5802 39.9609 41.653 39.8385 41.728C39.2301 42.1841 38.9417 42.593 38.8287 43.3398C38.8162 43.5623 38.8099 43.7852 38.8088 44.008C38.808 44.1373 38.8071 44.2666 38.8062 44.3999C38.8061 44.5386 38.8059 44.6773 38.8057 44.8202C38.8053 44.9654 38.8048 45.1107 38.8044 45.2604C38.8037 45.5683 38.8034 45.8763 38.8034 46.1843C38.8031 46.6478 38.8006 47.1113 38.798 47.5749C38.7872 51.6954 39.3656 55.0713 42.2734 58.1497C43.2735 59.1211 44.4545 59.7598 45.6646 60.4296C45.8194 60.5157 45.9742 60.6018 46.1336 60.6905C46.8234 61.0739 47.5138 61.4563 48.2053 61.8366C48.3279 61.9041 48.3279 61.9041 48.453 61.9729C48.6931 62.1044 48.9337 62.2349 49.1743 62.3653C49.4714 62.5297 49.7654 62.6995 50.0558 62.8753C50.1862 62.953 50.3165 63.0306 50.4509 63.1106C50.5635 63.1803 50.6761 63.2501 50.7922 63.322C51.271 63.484 51.4967 63.3653 51.9537 63.164C52.2392 63.0212 52.5212 62.8715 52.8002 62.7165C52.8793 62.6727 52.9584 62.629 53.0399 62.584C53.2963 62.4419 53.5522 62.2989 53.808 62.1557C53.9859 62.0565 54.1639 61.9573 54.3419 61.8582C54.6993 61.659 55.0564 61.4592 55.4133 61.2591C55.8627 61.0073 56.3137 60.7585 56.765 60.5103C60.0691 58.6794 62.3228 56.4342 63.3986 52.7104C63.7349 51.3601 63.733 49.9373 63.7345 48.5538C63.7349 48.4067 63.7354 48.2595 63.7359 48.1079C63.7365 47.7999 63.7369 47.4919 63.7369 47.1839C63.7372 46.7138 63.7397 46.2438 63.7422 45.7738C63.7426 45.4728 63.7429 45.1719 63.743 44.8709C63.7445 44.6618 63.7445 44.6618 63.746 44.4484C63.7563 43.2175 63.7563 43.2175 63.2402 42.1315C62.6537 41.6716 62.0549 41.2945 61.3958 40.9472C61.1767 40.8286 60.9577 40.7097 60.739 40.5905C60.5645 40.4954 60.5645 40.4954 60.3866 40.3985C59.7307 40.0348 59.0857 39.6527 58.4393 39.2724C56.8745 38.3545 55.2984 37.4569 53.7083 36.5834C53.4449 36.4364 53.184 36.2849 52.9255 36.1295C51.5127 35.2993 50.7531 35.4335 49.3561 36.2475Z" fill="#23586A"/>
  <path d="M51.1331 12.0313C52.1305 12.7177 52.8644 13.5915 53.1839 14.7656C53.3228 16.3238 53.1989 17.5213 52.1927 18.7647C51.5279 19.4793 50.8623 19.9186 49.9026 20.0977C49.9048 20.1859 49.9069 20.2742 49.9091 20.3651C49.9177 20.7658 49.923 21.1666 49.9283 21.5674C49.9317 21.7063 49.9351 21.8451 49.9387 21.9882C49.94 22.1222 49.9413 22.2561 49.9427 22.3941C49.9448 22.5173 49.947 22.6404 49.9492 22.7673C49.893 23.1753 49.7756 23.357 49.4925 23.6523C48.9923 23.8155 48.7679 23.8337 48.2876 23.6096C47.9886 23.3789 47.9886 23.3789 47.8519 23.1055C47.8403 22.8775 47.8372 22.6491 47.8385 22.4208C47.8389 22.286 47.8394 22.1512 47.8398 22.0123C47.841 21.8711 47.8421 21.7299 47.8433 21.5845C47.8439 21.4423 47.8445 21.3 47.8452 21.1535C47.8468 20.8015 47.849 20.4496 47.8519 20.0977C47.7287 20.061 47.7287 20.061 47.6031 20.0236C46.3803 19.6413 45.4612 18.9192 44.844 17.7734C44.404 16.6919 44.3389 15.1772 44.7842 14.082C45.4353 12.885 46.3621 12.0772 47.6211 11.5784C48.8841 11.3429 49.9807 11.4367 51.1331 12.0313ZM46.9717 14.4324C46.5424 15.1022 46.538 15.7702 46.6214 16.543C46.8625 17.2733 47.3247 17.6796 47.9886 18.0469C48.6863 18.2794 49.2626 18.2609 49.9283 17.9529C50.5476 17.6144 50.908 17.2184 51.1331 16.543C51.2331 15.6055 51.1612 14.9754 50.5862 14.2188C49.3601 13.2678 48.0494 13.2994 46.9717 14.4324Z" fill="#23586A"/>
  <path d="M18.594 12.0313C19.5914 12.7177 20.3254 13.5915 20.6448 14.7656C20.7837 16.3238 20.6598 17.5213 19.6536 18.7647C18.9889 19.4793 18.3232 19.9186 17.3636 20.0977C17.3657 20.1859 17.3679 20.2742 17.3701 20.3651C17.3786 20.7658 17.384 21.1666 17.3892 21.5674C17.3926 21.7063 17.3961 21.8451 17.3996 21.9882C17.4009 22.1222 17.4023 22.2561 17.4036 22.3941C17.4058 22.5173 17.4079 22.6404 17.4101 22.7673C17.354 23.1753 17.2365 23.357 16.9534 23.6523C16.4532 23.8155 16.2288 23.8337 15.7486 23.6096C15.4495 23.3789 15.4495 23.3789 15.3128 23.1055C15.3013 22.8775 15.2981 22.6491 15.2994 22.4208C15.2999 22.286 15.3003 22.1512 15.3008 22.0123C15.3019 21.8711 15.3031 21.7299 15.3043 21.5845C15.3049 21.4423 15.3055 21.3 15.3061 21.1535C15.3077 20.8015 15.31 20.4496 15.3128 20.0977C15.1897 20.061 15.1897 20.061 15.0641 20.0236C13.8412 19.6413 12.9221 18.9192 12.305 17.7734C11.8649 16.6919 11.7998 15.1772 12.2452 14.082C12.8962 12.885 13.823 12.0772 15.0821 11.5784C16.3451 11.3429 17.4416 11.4367 18.594 12.0313ZM14.4327 14.4324C14.0033 15.1022 13.9989 15.7702 14.0823 16.543C14.3235 17.2733 14.7856 17.6796 15.4495 18.0469C16.1472 18.2794 16.7236 18.2609 17.3892 17.9529C18.0085 17.6144 18.3689 17.2184 18.594 16.543C18.694 15.6055 18.6222 14.9754 18.0472 14.2188C16.821 13.2678 15.5104 13.2994 14.4327 14.4324Z" fill="#23586A"/>
  <path d="M35.0657 4.94487C35.6008 5.33336 36.001 5.73943 36.3678 6.28909C36.4268 6.37545 36.4859 6.46181 36.5467 6.55078C37.0926 7.52928 37.0798 8.75786 36.9146 9.84378C36.5749 10.961 35.9697 11.7947 35.0006 12.4414C34.9142 12.5005 34.8279 12.5595 34.7389 12.6203C33.7604 13.1663 32.5318 13.1535 31.4459 12.9883C30.3287 12.6486 29.4949 12.0434 28.8482 11.0742C28.7892 10.9879 28.7302 10.9015 28.6693 10.8126C28.1234 9.83406 28.1362 8.60548 28.3014 7.51956C28.6411 6.40232 29.2463 5.5686 30.2154 4.92191C30.3018 4.86287 30.3881 4.80383 30.4771 4.743C31.86 3.97148 33.7428 4.17105 35.0657 4.94487ZM31.3092 6.69925C30.8379 7.12717 30.3846 7.60425 30.3196 8.25656C30.298 9.08925 30.3159 9.60781 30.899 10.2539C31.4172 10.7721 31.9474 11.0298 32.6764 11.0742C33.5392 10.9602 34.0517 10.608 34.5776 9.9287C34.9924 9.31397 34.9371 8.6489 34.8639 7.92972C34.5328 7.25541 34.0841 6.76316 33.3899 6.45412C32.6299 6.20532 32.0032 6.30744 31.3092 6.69925Z" fill="#23586A"/>
  <path d="M59.4723 43.6133C59.7457 43.75 59.7457 43.75 59.8824 44.0234C59.9893 44.9331 59.9893 44.9331 59.7409 45.3611C59.5296 45.6122 59.3066 45.8408 59.0715 46.0697C58.9852 46.1578 58.899 46.246 58.8101 46.3368C58.5251 46.6267 58.2363 46.9123 57.947 47.1979C57.7472 47.3984 57.5475 47.5992 57.348 47.8001C56.9295 48.2202 56.5091 48.6382 56.0873 49.0549C55.5472 49.5888 55.0121 50.1275 54.4784 50.6677C54.067 51.0831 53.6531 51.4957 53.2383 51.9076C53.04 52.1053 52.8425 52.3037 52.6458 52.5029C52.3702 52.7812 52.0914 53.0558 51.8115 53.3296C51.7311 53.4123 51.6506 53.495 51.5677 53.5801C51.1547 53.9767 50.8689 54.1916 50.2847 54.2145C49.7841 54.1433 49.6008 54.1135 49.252 53.7689C49.1673 53.6876 49.0825 53.6063 48.9951 53.5225C48.9081 53.4332 48.821 53.3439 48.7313 53.2519C48.6388 53.1605 48.5463 53.069 48.4509 52.9747C48.2566 52.7811 48.0636 52.5861 47.872 52.3899C47.5786 52.0907 47.2799 51.7978 46.9801 51.505C46.7916 51.3158 46.6035 51.1262 46.4156 50.9363C46.2817 50.8057 46.2817 50.8057 46.1451 50.6724C45.7211 50.2305 45.4731 49.936 45.4629 49.3079C45.527 48.8086 45.527 48.8086 45.6637 48.5351C46.1059 48.3141 46.5529 48.3191 47.0309 48.3984C47.3532 48.6238 47.5663 48.8039 47.8256 49.0863C47.8938 49.1561 47.9621 49.2259 48.0324 49.2978C48.2481 49.5196 48.4598 49.745 48.6715 49.9707C48.8178 50.1224 48.9643 50.2739 49.111 50.4252C49.4688 50.795 49.823 51.168 50.1754 51.543C50.7175 51.3257 51.0728 50.9485 51.4698 50.5357C51.5428 50.4609 51.6158 50.3862 51.691 50.3092C51.8492 50.1473 52.007 49.9851 52.1646 49.8227C52.4144 49.5656 52.6654 49.3097 52.9168 49.0542C53.6315 48.3278 54.3455 47.6008 55.055 46.8693C55.4894 46.4217 55.9264 45.9767 56.3653 45.5334C56.5318 45.3642 56.6973 45.194 56.8617 45.0228C57.0921 44.7832 57.3256 44.5472 57.5602 44.3117C57.627 44.2406 57.6938 44.1694 57.7627 44.0961C58.3314 43.537 58.7166 43.5363 59.4723 43.6133Z" fill="#23586A"/>
</svg>