<svg xmlns="http://www.w3.org/2000/svg" width="32" height="32" viewBox="0 0 32 32" fill="none">
  <path d="M9.40044 9.4018L22.5998 22.6011M9.40044 22.6011L22.5998 9.4018" stroke="#141617" stroke-width="1.2" stroke-linecap="round" stroke-linejoin="round"/>
  <path d="M9.40044 9.4018L22.5998 22.6011M9.40044 22.6011L22.5998 9.4018" stroke="black" stroke-opacity="0.2" stroke-width="1.2" stroke-linecap="round" stroke-linejoin="round"/>
  <path d="M9.40044 9.4018L22.5998 22.6011M9.40044 22.6011L22.5998 9.4018" stroke="black" stroke-opacity="0.2" stroke-width="1.2" stroke-linecap="round" stroke-linejoin="round"/>
  <path d="M9.40044 9.4018L22.5998 22.6011M9.40044 22.6011L22.5998 9.4018" stroke="black" stroke-opacity="0.2" stroke-width="1.2" stroke-linecap="round" stroke-linejoin="round"/>
  <path d="M9.40044 9.4018L22.5998 22.6011M9.40044 22.6011L22.5998 9.4018" stroke="black" stroke-opacity="0.2" stroke-width="1.2" stroke-linecap="round" stroke-linejoin="round"/>
  <path d="M9.40044 9.4018L22.5998 22.6011M9.40044 22.6011L22.5998 9.4018" stroke="black" stroke-opacity="0.2" stroke-width="1.2" stroke-linecap="round" stroke-linejoin="round"/>
  <path d="M9.40044 9.4018L22.5998 22.6011M9.40044 22.6011L22.5998 9.4018" stroke="black" stroke-opacity="0.2" stroke-width="1.2" stroke-linecap="round" stroke-linejoin="round"/>
  <path d="M9.40044 9.4018L22.5998 22.6011M9.40044 22.6011L22.5998 9.4018" stroke="black" stroke-opacity="0.2" stroke-width="1.2" stroke-linecap="round" stroke-linejoin="round"/>
  <path d="M9.40044 9.4018L22.5998 22.6011M9.40044 22.6011L22.5998 9.4018" stroke="black" stroke-opacity="0.2" stroke-width="1.2" stroke-linecap="round" stroke-linejoin="round"/>
  <path d="M9.40044 9.4018L22.5998 22.6011M9.40044 22.6011L22.5998 9.4018" stroke="black" stroke-opacity="0.2" stroke-width="1.2" stroke-linecap="round" stroke-linejoin="round"/>
</svg>