<svg xmlns="http://www.w3.org/2000/svg" width="48" height="48" viewBox="0 0 48 48" fill="none">
  <g clip-path="url(#clip0_126_1554)">
    <path d="M30.7653 3.3853C31.2713 3.90343 31.4868 4.55634 31.6005 5.25585C31.6152 5.34164 31.6299 5.42742 31.6451 5.5158C32.0687 8.1505 32.2199 10.8421 32.4384 13.5C32.4889 13.4801 32.5395 13.4602 32.5916 13.4397C33.1315 13.2416 33.6 13.1752 34.1727 13.1836C34.2468 13.1825 34.3209 13.1814 34.3972 13.1803C35.3436 13.1849 35.959 13.4731 36.6406 14.1229C36.9172 14.4224 37.2196 14.7595 37.2196 15.1875C37.3138 15.1831 37.4079 15.1788 37.5049 15.1743C38.8408 15.1313 39.9284 15.3874 40.9597 16.2784C41.7126 17.0346 42.0124 18.2133 42.2821 19.2187C42.3773 19.2325 42.4726 19.2463 42.5707 19.2605C43.7702 19.4496 44.9672 19.8065 45.7146 20.8326C46.5695 22.1754 46.7446 23.6906 46.9074 25.2393C47.0575 26.6272 47.2484 28.0085 47.4442 29.3906C48.0426 33.6192 48.0426 33.6192 48.0419 35.7363C48.042 35.8638 48.042 35.8638 48.0421 35.9938C48.0386 37.6317 47.8608 39.1753 47.5321 40.7812C47.5185 40.8484 47.505 40.9155 47.491 40.9846C47.3528 41.6679 47.2112 42.3505 47.0609 43.0313C47.0223 43.2073 46.9848 43.3834 46.9474 43.5596C46.9033 43.7541 46.8538 43.9477 46.7959 44.1386C46.6982 44.4827 46.6483 44.706 46.7766 45.0468C46.9138 45.2913 47.064 45.5163 47.2274 45.7441C47.2804 45.8225 47.3333 45.9009 47.3878 45.9816C47.5273 46.1874 47.6699 46.3907 47.8134 46.5937C48.0442 46.94 48.0639 47.2231 48.0009 47.625C47.8602 47.8594 47.8602 47.8594 47.6259 48C47.1179 48.0726 47.1179 48.0726 46.8759 48C46.3644 47.5889 46.036 47.0086 45.6805 46.4648C45.5843 46.322 45.5843 46.322 45.4861 46.1763C45.4251 46.0832 45.364 45.9902 45.3012 45.8943C45.218 45.7684 45.218 45.7684 45.1332 45.64C44.8575 45.0879 44.8972 44.6309 45.0455 44.0464C45.0611 43.9834 45.0766 43.9204 45.0926 43.8555C45.1259 43.7207 45.1596 43.5861 45.1938 43.4515C45.2842 43.0952 45.3703 42.7379 45.4564 42.3805C45.4738 42.3086 45.4911 42.2368 45.509 42.1627C45.7593 41.1171 45.9502 40.0605 46.1259 39C46.1377 38.929 46.1495 38.858 46.1617 38.7848C46.2257 38.3887 46.2746 37.993 46.3134 37.5937C46.3228 37.5014 46.3228 37.5014 46.3324 37.4073C46.5891 34.7377 46.099 32.0377 45.7303 29.4001C45.6293 28.6772 45.532 27.9539 45.4347 27.2305C45.4055 27.0143 45.376 26.7981 45.3465 26.582C45.2633 25.9724 45.1819 25.3629 45.11 24.7518C44.9598 23.0502 44.9598 23.0502 44.1425 21.6002C43.6996 21.2634 43.209 21.0937 42.6571 21.0937C42.6768 21.2181 42.6768 21.2181 42.6969 21.3449C42.8229 22.2004 42.8796 23.0376 42.8794 23.9021C42.8798 24.1086 42.8832 24.315 42.8867 24.5215C42.8873 24.6545 42.8876 24.7876 42.8878 24.9207C42.8886 25.0389 42.8894 25.1571 42.8902 25.2789C42.8364 25.6503 42.7374 25.8036 42.4696 26.0625C42.0939 26.1718 41.9022 26.1968 41.5438 26.0332C41.3446 25.875 41.3446 25.875 41.2509 25.6875C41.2408 25.4903 41.2363 25.2928 41.2344 25.0953C41.2314 21.0624 41.2314 21.0624 39.7509 17.4375C39.2926 17.0204 38.7731 16.9333 38.174 16.8633C38.1091 16.8552 38.0441 16.8471 37.9773 16.8387C37.8185 16.819 37.6597 16.8001 37.5009 16.7812C37.5077 16.8525 37.5145 16.9238 37.5216 16.9973C37.5865 17.6743 37.6513 18.3513 37.716 19.0283C37.7493 19.3763 37.7826 19.7242 37.816 20.0721C37.8483 20.4089 37.8805 20.7456 37.9126 21.0824C37.9307 21.2713 37.9488 21.4601 37.967 21.6489C38.1656 23.7342 38.1656 23.7342 38.1864 24.5215C38.1917 24.6551 38.1917 24.6551 38.197 24.7914C38.1446 25.1066 38.0303 25.2115 37.7821 25.4062C37.4598 25.5 37.4598 25.5 37.1259 25.5C36.8632 25.3344 36.7026 25.2159 36.5634 24.9375C36.5336 24.6799 36.5086 24.4235 36.4868 24.1652C36.4798 24.0853 36.4728 24.0054 36.4655 23.923C36.4503 23.7491 36.4352 23.5751 36.4203 23.4011C36.3966 23.1251 36.3724 22.8492 36.348 22.5733C36.2789 21.7886 36.2108 21.0038 36.1428 20.219C36.1012 19.7391 36.059 19.2593 36.0166 18.7795C35.9929 18.5088 35.9697 18.2381 35.9465 17.9673C35.9317 17.7992 35.9169 17.6312 35.902 17.4631C35.8958 17.3888 35.8896 17.3144 35.8832 17.2378C35.7921 16.0832 35.7921 16.0832 35.2509 15.0937C34.8759 14.9003 34.5503 14.8783 34.1317 14.8769C34.0207 14.8754 33.9096 14.8738 33.7952 14.8722C33.4404 14.9093 33.2169 15.0166 32.9071 15.1875C32.8452 15.1875 32.7834 15.1875 32.7196 15.1875C32.4648 16.0192 32.5432 16.8336 32.5925 17.6891C32.6011 17.8523 32.6095 18.0155 32.6179 18.1787C32.6401 18.6083 32.6637 19.0378 32.6876 19.4673C32.7113 19.8957 32.7338 20.3242 32.7564 20.7526C32.7608 20.8361 32.7652 20.9196 32.7698 21.0057C32.783 21.2556 32.7962 21.5056 32.8093 21.7555C32.8136 21.8371 32.8179 21.9188 32.8224 22.0029C32.8471 22.4722 32.8716 22.9414 32.896 23.4107C32.9066 23.6155 32.9174 23.8202 32.9283 24.025C32.9462 24.3693 32.9626 24.7136 32.9785 25.058C32.9838 25.1553 32.989 25.2527 32.9944 25.353C33.0289 26.1587 33.0289 26.1587 32.8134 26.5312C32.5966 26.7557 32.4732 26.8073 32.163 26.8535C31.8029 26.8021 31.6559 26.7004 31.4071 26.4375C31.3002 26.0553 31.2913 25.6701 31.2742 25.2751C31.2712 25.2063 31.2681 25.1376 31.2649 25.0668C31.2583 24.9169 31.2518 24.7671 31.2454 24.6172C31.2352 24.3753 31.2245 24.1333 31.2136 23.8914C31.1981 23.5431 31.1827 23.1948 31.1675 22.8465C30.9676 18.2944 30.7594 13.7398 30.37 9.19921C30.3629 9.11488 30.3557 9.03054 30.3484 8.94364C30.2713 8.0459 30.1761 7.15061 30.0598 6.25708C30.0503 6.17672 30.0407 6.09636 30.0308 6.01357C29.9564 5.47283 29.7989 5.07044 29.5321 4.59375C29.0349 4.56391 28.7464 4.63328 28.3134 4.875C28.2515 4.875 28.1896 4.875 28.1259 4.875C28.1261 4.97303 28.1264 5.07107 28.1266 5.17208C28.133 7.58849 28.1375 10.0049 28.1404 12.4213C28.1419 13.59 28.1438 14.7587 28.1471 15.9274C28.1717 24.9377 28.1717 24.9377 28.0017 28.4582C27.9962 28.5773 27.9907 28.6964 27.9851 28.8191C27.9695 29.1425 27.9518 29.4657 27.933 29.789C27.9283 29.8802 27.9237 29.9714 27.9189 30.0653C27.8871 30.5427 27.8261 30.8986 27.5634 31.3125C27.3267 31.5002 27.2108 31.5009 26.9071 31.4883C26.5612 31.3874 26.4558 31.3297 26.2509 31.0312C26.2226 30.6938 26.2525 30.3608 26.2743 30.0234C26.3125 29.3445 26.3125 29.3445 26.115 28.7124C25.9303 28.543 25.9303 28.543 25.7217 28.396C25.4367 28.1672 25.2587 27.8922 25.0673 27.5859C25.0314 27.5293 24.9956 27.4728 24.9587 27.4145C24.7392 27.0598 24.5524 26.6987 24.3759 26.3203C23.5391 24.5869 21.8102 23.5816 20.0634 22.9687C19.3944 22.8094 18.8898 22.8402 18.2821 23.1562C18.141 23.4384 18.1486 23.5883 18.1884 23.9062C18.5286 24.6477 19.0744 25.256 19.5946 25.875C21.2351 27.8525 22.2833 29.8246 23.1331 32.2574C23.4222 33.0748 23.7692 33.8359 24.1884 34.5937C24.2458 34.6994 24.3032 34.805 24.3623 34.9138C24.7127 35.5423 25.0904 36.1496 25.4774 36.7559C26.1857 37.8659 26.8433 39.0054 27.4619 40.1678C28.4725 42.0638 29.7091 43.0703 31.5786 44.0985C31.6875 44.159 31.6875 44.159 31.7986 44.2207C31.8633 44.2559 31.928 44.291 31.9946 44.3273C32.1571 44.4375 32.1571 44.4375 32.3446 44.7187C32.3976 45.1277 32.3909 45.3091 32.1513 45.6504C31.8007 45.8965 31.6428 45.8852 31.2196 45.8437C30.9667 45.7488 30.7418 45.6194 30.5106 45.4805C30.4457 45.4425 30.3808 45.4045 30.3139 45.3654C28.5328 44.3058 27.0314 43.0701 26.0985 41.1855C25.3705 39.7549 24.5513 38.3854 23.6903 37.0312C22.6973 35.467 21.9633 33.9077 21.3088 32.1755C20.5764 30.2414 19.7439 28.6586 18.3936 27.0908C16.3907 24.7515 16.3907 24.7515 16.4624 23.3302C16.5631 22.6292 16.8538 22.1438 17.4083 21.7039C18.2666 21.1462 19.1592 21.0817 20.1538 21.2285C22.1874 21.6653 24.3163 23.0394 25.4661 24.7706C25.7924 25.2787 26.0921 25.7947 26.3446 26.3437C26.4439 25.3407 26.4505 24.3466 26.4475 23.3397C26.4473 23.1626 26.4472 22.9855 26.4471 22.8084C26.4468 22.4292 26.4462 22.0499 26.4454 21.6707C26.4441 21.0691 26.4436 20.4675 26.4431 19.8659C26.442 18.4795 26.44 17.093 26.4379 15.7066C26.436 14.4369 26.4343 13.1673 26.4334 11.8977C26.4329 11.3017 26.432 10.7056 26.4307 10.1096C26.43 9.73618 26.4297 9.36273 26.4295 8.98928C26.4293 8.81837 26.429 8.64746 26.4284 8.47655C26.4258 7.58174 26.4371 6.68858 26.4741 5.79446C26.4769 5.71488 26.4798 5.63531 26.4827 5.55332C26.5423 4.28547 26.5423 4.28547 26.8657 3.82177C27.9728 2.92872 29.5508 2.32905 30.7653 3.3853Z" fill="#23586A"/>
    <path d="M19.499 38.3438C20.5909 39.1543 21.5014 40.3123 21.7064 41.6864C21.7205 41.7899 21.7345 41.8934 21.749 42C21.8824 41.9971 21.8824 41.9971 22.0185 41.9941C22.349 41.9877 22.6795 41.983 23.0102 41.9794C23.1531 41.9775 23.2961 41.975 23.439 41.9717C23.6447 41.9672 23.8504 41.965 24.0562 41.9634C24.2417 41.9604 24.2417 41.9604 24.4311 41.9574C24.749 42 24.749 42 24.9767 42.1781C25.1364 42.3915 25.175 42.487 25.1709 42.75C25.1723 42.8428 25.1723 42.8428 25.1738 42.9375C25.0994 43.2178 24.9768 43.3219 24.749 43.5C24.4311 43.5426 24.4311 43.5426 24.0562 43.5366C23.9571 43.5358 23.9571 43.5358 23.856 43.535C23.6458 43.5329 23.4357 43.5282 23.2256 43.5235C23.0828 43.5216 22.9399 43.5199 22.7971 43.5183C22.4477 43.5142 22.0984 43.5077 21.749 43.5C21.7388 43.5601 21.7286 43.6201 21.7181 43.682C21.4581 45.1053 20.6995 46.2948 19.5067 47.1277C18.179 47.9597 16.6998 48.2325 15.1631 47.8945C13.7328 47.4732 12.6052 46.6399 11.8489 45.3468C11.5296 44.7306 11.3426 44.1888 11.249 43.5C11.1655 43.5005 11.1655 43.5005 11.0802 43.5011C9.72505 43.5093 8.36988 43.5155 7.01468 43.5194C6.35932 43.5214 5.70397 43.524 5.04861 43.5283C4.41643 43.5324 3.78428 43.5346 3.15208 43.5356C2.91061 43.5363 2.66914 43.5376 2.42768 43.5397C2.09006 43.5424 1.75251 43.5428 1.41489 43.5426C1.26437 43.5446 1.26437 43.5446 1.11082 43.5467C0.433945 43.5429 0.433945 43.5429 0.124582 43.3216C-0.0105025 43.1101 -0.0517433 42.9991 -0.0478516 42.75C-0.0488184 42.6881 -0.0497852 42.6263 -0.0507812 42.5625C0.0277059 42.267 0.122099 42.1802 0.374023 42C0.720464 41.9437 1.06464 41.9527 1.41489 41.9574C1.52101 41.9574 1.62714 41.9573 1.73648 41.9573C2.08753 41.9575 2.43851 41.9605 2.78955 41.9634C3.03283 41.9641 3.27612 41.9646 3.5194 41.965C4.09447 41.9663 4.66951 41.9692 5.24457 41.973C5.89933 41.9772 6.55411 41.9793 7.20888 41.9811C8.55561 41.9851 9.90232 41.9917 11.249 42C11.261 41.9363 11.273 41.8727 11.2854 41.8071C11.3016 41.7232 11.3178 41.6393 11.3345 41.5529C11.3583 41.4284 11.3583 41.4284 11.3826 41.3014C11.6521 40.1077 12.5043 39.0615 13.4913 38.3723C15.3572 37.2031 17.6218 37.1514 19.499 38.3438ZM13.4558 40.5795C12.8111 41.4811 12.7351 42.5198 12.8428 43.5938C13.0797 44.6096 13.7369 45.4043 14.5947 45.9785C15.5539 46.4997 16.5788 46.6154 17.624 46.3125C18.7823 45.8783 19.4297 45.2378 19.9557 44.1314C20.2909 43.3194 20.2837 42.2682 20.0029 41.4375C19.5944 40.4833 18.8914 39.7417 17.958 39.2871C16.2712 38.6423 14.5861 39.2351 13.4558 40.5795Z" fill="#23586A"/>
    <path d="M29.7178 0.375017C29.9236 0.529031 29.988 0.60248 30.0397 0.85512C30.0403 1.20443 30.0376 1.43411 29.8584 1.74025C29.5333 1.92715 29.2357 1.93036 28.874 1.87502C28.7871 1.84408 28.7002 1.81314 28.6107 1.78127C27.804 1.52848 26.88 1.60945 26.1077 1.93947C25.2102 2.41214 24.5976 3.10092 24.2645 4.06789C24.0478 5.00812 24.0983 5.98852 24.5615 6.84377C24.6911 7.02579 24.8241 7.20547 24.96 7.38283C25.3649 7.91237 25.3649 7.91237 25.3818 8.24416C25.2974 8.58883 25.232 8.70926 24.9365 8.90627C24.6318 9.0176 24.6318 9.0176 24.2803 9.00002C23.4325 8.52105 22.9314 7.56943 22.6675 6.66872C22.6354 6.56057 22.6034 6.45243 22.5703 6.34101C22.5468 6.25942 22.5233 6.17783 22.499 6.09377C22.3285 6.09356 22.3285 6.09356 22.1545 6.09335C19.4571 6.09 16.7598 6.08473 14.0624 6.07709C13.7305 6.07615 13.3987 6.07522 13.0668 6.07431C13.0007 6.07413 12.9347 6.07395 12.8666 6.07376C11.7962 6.07085 10.7259 6.06926 9.65551 6.06816C8.55756 6.06699 7.45961 6.06442 6.36166 6.06052C5.74481 6.0584 5.12798 6.05693 4.51113 6.05703C3.93093 6.0571 3.35076 6.05543 2.77057 6.05241C2.55727 6.05161 2.34396 6.05145 2.13066 6.05197C1.84009 6.05259 1.54963 6.05093 1.25907 6.04867C1.13158 6.04976 1.13158 6.04976 1.00151 6.05088C0.431663 6.04302 0.431663 6.04302 0.134321 5.8212C-0.0119838 5.60906 -0.0518383 5.50517 -0.0478516 5.25002C-0.0488184 5.18814 -0.0497852 5.12627 -0.0507812 5.06252C0.0257687 4.77433 0.133719 4.67907 0.374023 4.50002C0.668612 4.44388 0.95998 4.45108 1.25907 4.45492C1.34974 4.4546 1.44041 4.45428 1.53382 4.45395C1.83845 4.45333 2.14299 4.4554 2.4476 4.45745C2.66563 4.45755 2.88367 4.45749 3.1017 4.45728C3.69439 4.45717 4.28705 4.45938 4.87973 4.46199C5.43613 4.4641 5.99253 4.46448 6.54893 4.46486C7.65101 4.46568 8.75307 4.46818 9.85513 4.47173C10.9257 4.47517 11.9962 4.47782 13.0668 4.47942C13.1328 4.47952 13.1988 4.47962 13.2668 4.47972C13.5978 4.48021 13.9289 4.48068 14.2599 4.48115C17.0063 4.48503 19.7527 4.49167 22.499 4.50002C22.5127 4.38266 22.5263 4.26531 22.5404 4.1444C22.6509 3.19377 23.0808 2.38703 23.7178 1.68752C23.7747 1.62202 23.8316 1.55652 23.8903 1.48903C25.3032 -0.0423727 27.8268 -0.519589 29.7178 0.375017Z" fill="#23586A"/>
    <path d="M7.40672 19.125C7.49688 19.168 7.58703 19.211 7.67992 19.2554C8.95291 19.9073 9.85231 20.943 10.313 22.3125C10.3479 22.4742 10.381 22.6364 10.4126 22.7988C10.4292 22.8833 10.4457 22.9677 10.4628 23.0548C10.4814 23.1514 10.4814 23.1514 10.5005 23.25C10.6235 23.248 10.7465 23.2461 10.8732 23.244C11.3295 23.2372 11.7859 23.2329 12.2423 23.2294C12.4398 23.2275 12.6373 23.2249 12.8348 23.2217C13.1187 23.2171 13.4026 23.215 13.6865 23.2134C13.7748 23.2114 13.8631 23.2095 13.9541 23.2075C14.5672 23.2073 14.5672 23.2073 14.8685 23.4281C15.0107 23.6403 15.0513 23.7468 15.0473 24C15.0488 24.0928 15.0488 24.0928 15.0503 24.1875C14.973 24.4783 14.87 24.5708 14.6255 24.75C14.3124 24.803 14.0032 24.7935 13.6865 24.7866C13.5955 24.7861 13.5045 24.7855 13.4107 24.785C13.1202 24.7829 12.8299 24.7782 12.5395 24.7734C12.3425 24.7715 12.1455 24.7698 11.9485 24.7683C11.4658 24.7642 10.9831 24.7577 10.5005 24.75C10.4889 24.813 10.4773 24.8761 10.4653 24.941C10.4494 25.0244 10.4335 25.1078 10.4171 25.1937C10.4016 25.2761 10.3861 25.3585 10.3702 25.4434C10.284 25.811 10.1302 26.1281 9.95555 26.4609C9.92455 26.5235 9.89356 26.5861 9.86162 26.6506C9.18554 27.9742 8.00506 28.6879 6.63438 29.1691C5.23724 29.4897 3.71234 29.3245 2.47936 28.5886C1.29311 27.8339 0.449612 26.7634 0.0656591 25.4018C-0.229728 23.968 -0.0729301 22.4597 0.68602 21.2051C0.79885 21.0413 0.913964 20.879 1.03172 20.7187C1.07861 20.6524 1.1255 20.586 1.17381 20.5177C2.56561 18.7358 5.3905 18.1441 7.40672 19.125ZM2.20726 21.8295C1.56251 22.7311 1.48656 23.7698 1.59422 24.8437C1.83115 25.8596 2.48836 26.6543 3.34618 27.2285C4.30532 27.7496 5.33029 27.8653 6.37547 27.5625C7.53377 27.1283 8.18113 26.4878 8.70714 25.3813C9.04238 24.5693 9.03516 23.5182 8.75438 22.6875C8.34585 21.7333 7.64288 20.9917 6.70946 20.5371C5.02264 19.8923 3.3375 20.485 2.20726 21.8295Z" fill="#23586A"/>
    <path d="M33.9576 4.45247C34.0775 4.45141 34.1973 4.45035 34.3208 4.44926C34.4535 4.44999 34.5861 4.45076 34.7188 4.45157C34.8586 4.45106 34.9984 4.45039 35.1383 4.44957C35.5179 4.44786 35.8975 4.44853 36.2772 4.44972C36.6744 4.45067 37.0716 4.44979 37.4688 4.4492C38.1359 4.44851 38.8029 4.44941 39.47 4.4512C40.2413 4.45324 41.0126 4.45258 41.7839 4.45051C42.4461 4.44881 43.1082 4.44857 43.7703 4.44955C44.1658 4.45014 44.5613 4.45022 44.9568 4.44898C45.3286 4.44789 45.7004 4.44864 46.0722 4.45081C46.2088 4.45131 46.3453 4.45117 46.4818 4.45034C46.668 4.44932 46.8542 4.45083 47.0405 4.45247C47.1968 4.45268 47.1968 4.45268 47.3564 4.4529C47.6852 4.51087 47.7954 4.61589 47.999 4.87509C48.0488 5.06259 48.0488 5.06259 48.0459 5.25009C48.0473 5.3429 48.0473 5.3429 48.0488 5.43759C47.9755 5.71355 47.8446 5.82159 47.624 6.00009C47.3564 6.04728 47.3564 6.04728 47.0405 6.04771C46.9206 6.04876 46.8007 6.04982 46.6772 6.05091C46.5446 6.05018 46.4119 6.04941 46.2793 6.04861C46.1395 6.04912 45.9996 6.04979 45.8598 6.0506C45.4801 6.05231 45.1005 6.05165 44.7209 6.05046C44.3237 6.04951 43.9264 6.05039 43.5292 6.05098C42.8622 6.05166 42.1951 6.05076 41.5281 6.04898C40.7567 6.04694 39.9854 6.0476 39.2141 6.04966C38.552 6.05136 37.8899 6.0516 37.2278 6.05062C36.8323 6.05004 36.4368 6.04996 36.0413 6.0512C35.6694 6.05228 35.2976 6.05153 34.9258 6.04936C34.7893 6.04887 34.6528 6.04901 34.5163 6.04984C34.33 6.05086 34.1438 6.04935 33.9576 6.04771C33.8012 6.04749 33.8012 6.04749 33.6417 6.04728C33.3129 5.98931 33.2026 5.88429 32.999 5.62509C32.9492 5.43759 32.9492 5.43759 32.9521 5.25009C32.9507 5.15728 32.9507 5.15728 32.9492 5.06259C33.0887 4.53736 33.4679 4.45313 33.9576 4.45247Z" fill="#23586A"/>
  </g>
  <defs>
    <clipPath id="clip0_126_1554">
      <rect width="48" height="48" fill="white"/>
    </clipPath>
  </defs>
</svg>