<svg xmlns="http://www.w3.org/2000/svg" width="48" height="48" viewBox="0 0 48 48" fill="none">
  <g clip-path="url(#clip0_126_72)">
    <path d="M8.65051 7.94378C8.78794 7.94342 8.92537 7.94299 9.0628 7.94249C9.43967 7.94134 9.81654 7.94137 10.1934 7.94159C10.6002 7.94163 11.007 7.94059 11.4137 7.9397C12.2104 7.93814 13.0071 7.93763 13.8038 7.93752C14.4516 7.93743 15.0994 7.93705 15.7471 7.93646C17.5845 7.9348 19.4218 7.93394 21.2591 7.93408C21.4076 7.93409 21.4076 7.93409 21.5592 7.9341C21.7079 7.93411 21.7079 7.93411 21.8596 7.93413C23.4659 7.9342 25.0723 7.93241 26.6786 7.92976C28.3287 7.92707 29.9789 7.92578 31.629 7.92594C32.5551 7.926 33.4812 7.92549 34.4073 7.92347C35.1959 7.92176 35.9845 7.92135 36.7731 7.92262C37.1753 7.92324 37.5773 7.92325 37.9794 7.92162C38.3481 7.92014 38.7168 7.92042 39.0854 7.92205C39.2183 7.92234 39.3511 7.922 39.4839 7.92095C40.7853 7.91135 41.8951 8.18827 42.858 9.09714C43.8181 10.1128 44.0935 11.2175 44.0847 12.5849C44.0849 12.7228 44.0849 12.7228 44.0851 12.8634C44.0855 13.1689 44.0844 13.4743 44.0834 13.7797C44.0834 13.9997 44.0834 14.2197 44.0835 14.4396C44.0835 15.035 44.0824 15.6303 44.0811 16.2257C44.0801 16.7854 44.0799 17.3451 44.0797 17.9048C44.0793 19.0128 44.078 20.1208 44.0763 21.2288C44.0745 22.3046 44.0732 23.3804 44.0724 24.4562C44.0724 24.5226 44.0723 24.589 44.0723 24.6574C44.072 24.9905 44.0718 25.3237 44.0716 25.6568C44.0696 28.4171 44.0663 31.1773 44.0621 33.9376C44.1534 33.9366 44.2446 33.9356 44.3387 33.9346C44.6785 33.9312 45.0183 33.9291 45.3582 33.9273C45.505 33.9264 45.6519 33.9251 45.7987 33.9235C46.0103 33.9212 46.2218 33.9201 46.4333 33.9193C46.4986 33.9183 46.5638 33.9173 46.6311 33.9164C47.1239 33.9162 47.458 33.9865 47.8385 34.3031C48.0871 34.7518 48.0539 35.1793 48.0465 35.6837C48.0479 35.7802 48.0494 35.8768 48.0509 35.9763C48.0452 37.0984 47.6612 38.0785 46.8922 38.9005C46.0508 39.6876 45.0375 40.0624 43.8915 40.0555C43.8214 40.0558 43.7512 40.0561 43.679 40.0565C43.4448 40.0573 43.2107 40.0569 42.9766 40.0564C42.8067 40.0568 42.6368 40.0572 42.4668 40.0577C42.0006 40.0588 41.5343 40.0588 41.068 40.0586C40.5649 40.0586 40.0617 40.0596 39.5586 40.0605C38.5731 40.062 37.5875 40.0626 36.602 40.0627C35.8008 40.0628 34.9996 40.0631 34.1984 40.0637C31.9263 40.0654 29.6543 40.0663 27.3822 40.0661C27.2597 40.0661 27.1373 40.0661 27.0111 40.0661C26.8885 40.0661 26.7658 40.0661 26.6395 40.0661C24.6525 40.066 22.6656 40.0678 20.6786 40.0704C18.6378 40.0731 16.5971 40.0744 14.5564 40.0743C13.4109 40.0742 12.2654 40.0747 11.1199 40.0767C10.1445 40.0784 9.16917 40.0788 8.19381 40.0776C7.69638 40.077 7.19897 40.0769 6.70154 40.0786C6.24566 40.08 5.7898 40.0798 5.33392 40.0781C5.16951 40.0779 5.0051 40.0782 4.8407 40.0792C3.41486 40.0877 2.22331 39.8978 1.12462 38.9063C0.223017 37.9594 -0.0189385 36.9997 -0.0355387 35.7306C-0.0390434 35.6297 -0.042548 35.5287 -0.0461588 35.4248C-0.055405 34.5916 -0.055405 34.5916 0.212752 34.2474C0.633715 33.8916 1.02264 33.9245 1.55675 33.9284C1.62488 33.9286 1.69302 33.9287 1.76323 33.9288C1.98005 33.9294 2.19686 33.9305 2.41368 33.9317C2.56102 33.9322 2.70836 33.9326 2.8557 33.933C3.21617 33.934 3.57664 33.9357 3.93712 33.9376C3.93686 33.8237 3.9366 33.7099 3.93633 33.5925C3.93023 30.8858 3.9256 28.1791 3.92276 25.4724C3.9224 25.1388 3.92204 24.8052 3.92167 24.4716C3.92159 24.4052 3.92152 24.3388 3.92144 24.2704C3.92022 23.1969 3.91801 22.1235 3.91542 21.0501C3.91278 19.9476 3.91122 18.8451 3.91066 17.7426C3.91031 17.1238 3.90943 16.5049 3.90738 15.8861C3.90547 15.3031 3.90488 14.7201 3.90531 14.137C3.90523 13.9236 3.90467 13.7102 3.90359 13.4968C3.89523 11.7622 3.96089 10.3725 5.17345 9.01767C6.16556 8.08603 7.35996 7.94066 8.65051 7.94378ZM6.72691 10.4909C6.6764 10.5539 6.62588 10.6169 6.57384 10.6817C6.52187 10.7445 6.46991 10.8072 6.41637 10.8718C5.97084 11.4992 5.98592 12.1573 5.98834 12.9006C5.98826 12.9904 5.98818 13.0803 5.9881 13.1728C5.98795 13.4745 5.98846 13.7761 5.98897 14.0777C5.989 14.2975 5.98899 14.5172 5.98894 14.7369C5.98892 15.3254 5.98946 15.9139 5.99012 16.5024C5.99066 17.0546 5.99068 17.6068 5.99075 18.159C5.99124 19.774 5.99255 21.389 5.99376 23.004C5.99569 26.6121 5.99763 30.2202 5.99962 33.9376C17.8796 33.9376 29.7596 33.9376 41.9996 33.9376C42.0035 30.3334 42.0074 26.7292 42.0113 23.0157C42.013 21.8773 42.0148 20.7388 42.0165 19.5658C42.0171 18.5462 42.0171 18.5462 42.0175 17.5266C42.0177 17.0721 42.0184 16.6176 42.0194 16.1631C42.0207 15.5834 42.0211 15.0036 42.0208 14.4239C42.0209 14.2111 42.0212 13.9984 42.022 13.7856C42.0229 13.4981 42.0227 13.2106 42.0222 12.9231C42.023 12.7984 42.023 12.7984 42.0238 12.6712C42.0202 11.9219 41.9195 11.2905 41.4371 10.6876C40.9121 10.1854 40.4575 10.0081 39.7355 10.0075C39.6212 10.0069 39.5069 10.0064 39.3891 10.0058C39.2631 10.0062 39.137 10.0065 39.0109 10.0069C38.8764 10.0066 38.7419 10.0063 38.6074 10.0058C38.2381 10.0049 37.8689 10.0051 37.4996 10.0055C37.1012 10.0057 36.7028 10.0048 36.3044 10.0041C35.5241 10.0029 34.7437 10.0028 33.9633 10.003C33.3291 10.0032 32.6948 10.003 32.0605 10.0026C31.9703 10.0025 31.88 10.0025 31.787 10.0024C31.6037 10.0023 31.4203 10.0022 31.237 10.0021C29.5173 10.0011 27.7976 10.0013 26.0779 10.0019C24.5046 10.0023 22.9314 10.0013 21.3581 9.9995C19.7428 9.99768 18.1274 9.99691 16.512 9.99726C15.6051 9.99744 14.6982 9.9972 13.7912 9.99588C13.0191 9.99476 12.2471 9.99463 11.475 9.99577C11.0811 9.99632 10.6872 9.99642 10.2933 9.9953C9.93258 9.99428 9.57186 9.99457 9.21112 9.99588C9.08079 9.99613 8.95045 9.99591 8.82011 9.99516C7.6971 9.98056 7.6971 9.98056 6.72691 10.4909ZM2.06212 36.0001C2.0742 36.1176 2.08629 36.235 2.09874 36.3561C2.10554 36.4221 2.11233 36.4882 2.11934 36.5563C2.1966 36.9662 2.45129 37.2352 2.74181 37.5177C3.29244 37.8806 3.81129 38.004 4.47179 38.0045C4.54075 38.0049 4.60972 38.0054 4.68077 38.0058C4.91088 38.0069 5.14093 38.0061 5.37104 38.0052C5.53807 38.0056 5.7051 38.0061 5.87214 38.0067C6.3304 38.0081 6.78865 38.0077 7.24691 38.007C7.74143 38.0065 8.23594 38.0077 8.73046 38.0087C9.69897 38.0103 10.6675 38.0104 11.636 38.0099C12.4232 38.0095 13.2104 38.0096 13.9976 38.0101C14.1097 38.0102 14.2217 38.0103 14.3371 38.0103C14.5647 38.0105 14.7923 38.0106 15.0199 38.0108C17.1543 38.0121 19.2887 38.0116 21.4232 38.0105C23.3758 38.0095 25.3284 38.0108 27.281 38.013C29.286 38.0153 31.2911 38.0162 33.2961 38.0156C34.4217 38.0152 35.5473 38.0154 36.673 38.0171C37.6312 38.0185 38.5895 38.0185 39.5477 38.0169C40.0366 38.0161 40.5254 38.0159 41.0143 38.0173C41.462 38.0186 41.9097 38.0182 42.3574 38.0164C42.5191 38.016 42.6809 38.0163 42.8426 38.0173C44.1987 38.0437 44.1987 38.0437 45.3672 37.4307C45.7771 36.9902 45.9471 36.6023 45.9371 36.0001C43.7988 35.9826 41.6604 35.9693 39.522 35.9612C38.529 35.9574 37.5362 35.9521 36.5433 35.9435C35.6777 35.936 34.8123 35.9312 33.9467 35.9295C33.4885 35.9286 33.0303 35.9263 32.5721 35.9208C32.1406 35.9157 31.7092 35.9141 31.2776 35.9153C31.1194 35.9151 30.9613 35.9136 30.8032 35.9107C29.9557 35.874 29.9557 35.874 29.1852 36.1662C28.9846 36.3612 28.9846 36.3612 28.8316 36.5707C28.6698 36.7715 28.5523 36.8481 28.3121 36.9376C28.0341 36.9565 27.7648 36.9651 27.4867 36.9648C27.4034 36.9655 27.3202 36.9661 27.2344 36.9667C26.9591 36.9685 26.6838 36.9689 26.4086 36.9691C26.2171 36.9697 26.0256 36.9703 25.8341 36.971C25.4326 36.9721 25.0312 36.9725 24.6297 36.9723C24.1157 36.9723 23.6016 36.9749 23.0876 36.9781C22.692 36.9802 22.2965 36.9806 21.901 36.9805C21.7114 36.9807 21.5219 36.9815 21.3324 36.983C21.0672 36.9848 20.802 36.9843 20.5368 36.9831C20.4587 36.9842 20.3807 36.9853 20.3003 36.9863C19.7985 36.9809 19.5219 36.8942 19.1246 36.5626C19.0528 36.4634 18.9809 36.3641 18.9069 36.2619C18.5585 35.9066 18.1285 35.9358 17.6616 35.9298C17.4355 35.9301 17.2096 35.9332 16.9836 35.9362C16.821 35.9364 16.6583 35.9363 16.4957 35.936C16.0548 35.9358 15.6141 35.9391 15.1733 35.9431C14.7123 35.9466 14.2514 35.9469 13.7904 35.9476C12.9179 35.9493 12.0453 35.9539 11.1728 35.9596C10.1793 35.9659 9.18581 35.969 8.19231 35.9718C6.14889 35.9777 4.10551 35.9876 2.06212 36.0001Z" fill="#23586A"/>
  </g>
  <defs>
    <clipPath id="clip0_126_72">
      <rect width="48" height="48" fill="white"/>
    </clipPath>
  </defs>
</svg>