<svg xmlns="http://www.w3.org/2000/svg" width="26" height="19" viewBox="0 0 26 19" fill="none">
  <path d="M25 2.41667V16.5833C25 16.9591 24.8595 17.3194 24.6095 17.5851C24.3594 17.8507 24.0203 18 23.6667 18H2.33333C1.97971 18 1.64057 17.8507 1.39052 17.5851C1.14048 17.3194 1 16.9591 1 16.5833V2.41667M25 2.41667C25 2.04094 24.8595 1.68061 24.6095 1.41493C24.3594 1.14926 24.0203 1 23.6667 1H2.33333C1.97971 1 1.64057 1.14926 1.39052 1.41493C1.14048 1.68061 1 2.04094 1 2.41667M25 2.41667L14.7067 11.5301C14.2275 11.9541 13.6236 12.1864 13 12.1864C12.3764 12.1864 11.7725 11.9541 11.2933 11.5301L1 2.41667" stroke="#23586A" stroke-linecap="round" stroke-linejoin="round"/>
</svg>