<svg width="24" height="24" viewBox="0 0 24 24" fill="none" xmlns="http://www.w3.org/2000/svg">
<path d="M9.00039 2.40002C9.15952 2.40002 9.31213 2.46324 9.42465 2.57576C9.53718 2.68828 9.60039 2.84089 9.60039 3.00002V5.40002C9.60039 5.55915 9.53718 5.71177 9.42465 5.82429C9.31213 5.93681 9.15952 6.00002 9.00039 6.00002C8.84126 6.00002 8.68865 5.93681 8.57613 5.82429C8.4636 5.71177 8.40039 5.55915 8.40039 5.40002V3.00002C8.40039 2.84089 8.4636 2.68828 8.57613 2.57576C8.68865 2.46324 8.84126 2.40002 9.00039 2.40002ZM4.33239 4.33202C4.38813 4.27615 4.45434 4.23182 4.52723 4.20157C4.60012 4.17132 4.67827 4.15575 4.75719 4.15575C4.83611 4.15575 4.91426 4.17132 4.98715 4.20157C5.06004 4.23182 5.12626 4.27615 5.18199 4.33202L6.87879 6.03002C6.9361 6.08537 6.98181 6.15158 7.01325 6.22478C7.0447 6.29798 7.06125 6.37672 7.06194 6.45638C7.06263 6.53605 7.04745 6.61506 7.01728 6.6888C6.98711 6.76253 6.94256 6.82953 6.88623 6.88586C6.82989 6.9422 6.7629 6.98675 6.68916 7.01692C6.61543 7.04709 6.53642 7.06227 6.45675 7.06157C6.37708 7.06088 6.29835 7.04433 6.22515 7.01289C6.15195 6.98144 6.08574 6.93573 6.03039 6.87842L4.33359 5.18162C4.22111 5.06911 4.15792 4.91652 4.15792 4.75742C4.15792 4.59833 4.22111 4.44574 4.33359 4.33322M13.6696 4.33322C13.7255 4.38896 13.7698 4.45517 13.8 4.52806C13.8303 4.60096 13.8459 4.6791 13.8459 4.75802C13.8459 4.83695 13.8303 4.91509 13.8 4.98799C13.7698 5.06088 13.7255 5.12709 13.6696 5.18282L11.9692 6.87842C11.9138 6.93573 11.8476 6.98144 11.7744 7.01289C11.7012 7.04433 11.6225 7.06088 11.5428 7.06157C11.4632 7.06227 11.3842 7.04709 11.3104 7.01692C11.2367 6.98675 11.1697 6.9422 11.1134 6.88586C11.057 6.82953 11.0125 6.76253 10.9823 6.6888C10.9521 6.61506 10.9369 6.53605 10.9376 6.45638C10.9383 6.37672 10.9549 6.29798 10.9863 6.22478C11.0178 6.15158 11.0635 6.08537 11.1208 6.03002L12.8176 4.33322C12.9301 4.22074 13.0827 4.15755 13.2418 4.15755C13.4009 4.15755 13.5535 4.22074 13.666 4.33322M2.40039 9.00002C2.40039 8.84089 2.4636 8.68828 2.57613 8.57576C2.68865 8.46324 2.84126 8.40002 3.00039 8.40002H5.40039C5.55952 8.40002 5.71213 8.46324 5.82465 8.57576C5.93718 8.68828 6.00039 8.84089 6.00039 9.00002C6.00039 9.15915 5.93718 9.31177 5.82465 9.42429C5.71213 9.53681 5.55952 9.60002 5.40039 9.60002H3.00039C2.84126 9.60002 2.68865 9.53681 2.57613 9.42429C2.4636 9.31177 2.40039 9.15915 2.40039 9.00002ZM10.3684 8.76003C10.1933 8.61416 9.98022 8.52118 9.75419 8.49197C9.52815 8.46276 9.29847 8.49852 9.09202 8.59508C8.88557 8.69163 8.71088 8.84498 8.5884 9.03719C8.46592 9.2294 8.4007 9.45251 8.40039 9.68043V20.6016C8.40039 21.7104 9.77439 22.2264 10.504 21.3924L12.9352 18.6132C13.1043 18.4204 13.3126 18.2659 13.5463 18.1602C13.78 18.0544 14.0335 17.9998 14.29 18H18.1432C19.2652 18 19.774 16.596 18.9112 15.8784L10.3684 8.76003ZM9.60039 20.604V9.68043L18.1432 16.8H14.29C13.8623 16.8 13.4394 16.8914 13.0499 17.0681C12.6604 17.2449 12.3132 17.5029 12.0316 17.8248L9.60039 20.604Z" fill="#23586A"/>
</svg>
