<svg width="24" height="24" viewBox="0 0 24 24" fill="none" xmlns="http://www.w3.org/2000/svg">
<g clip-path="url(#clip0_38_9480)">
<path d="M15.4209 6.09373C15.6291 6.28481 15.8282 6.4855 16.0281 6.68516C16.0858 6.74254 16.1434 6.79991 16.2011 6.85728C16.3214 6.97696 16.4414 7.09684 16.5614 7.21683C16.7143 7.36981 16.868 7.52214 17.0217 7.67431C17.1409 7.79238 17.2595 7.91088 17.3781 8.0295C17.4345 8.08582 17.4911 8.142 17.5479 8.19801C18.3047 8.94605 18.3047 8.94605 18.333 9.4539C18.2967 10.1273 17.7654 10.5599 17.3178 11.0059C17.2631 11.0608 17.2084 11.1157 17.1536 11.1706C17.0041 11.3207 16.8542 11.4704 16.7043 11.6201C16.5423 11.782 16.3807 11.9441 16.219 12.1061C15.9025 12.4232 15.5857 12.7401 15.2689 13.0568C15.0113 13.3143 14.7539 13.5718 14.4965 13.8294C14.4599 13.866 14.4232 13.9027 14.3854 13.9405C14.3109 14.0151 14.2364 14.0896 14.162 14.1642C13.4639 14.8627 12.7656 15.5609 12.0672 16.2591C11.4283 16.8977 10.7899 17.5367 10.1516 18.1759C9.49584 18.8325 8.83986 19.4889 8.1836 20.1449C7.81529 20.5132 7.44707 20.8815 7.07913 21.2501C6.76601 21.5638 6.45265 21.8772 6.13896 22.1903C5.97896 22.3501 5.81908 22.5099 5.65949 22.67C5.51334 22.8167 5.36687 22.963 5.22014 23.1091C5.16719 23.1619 5.11435 23.2149 5.06164 23.268C4.33193 24.0025 4.33193 24.0025 3.78711 24.0146C3.04161 24.0047 2.56868 23.343 2.07379 22.8499C2.03609 22.8124 2.03609 22.8124 1.99762 22.7741C1.86502 22.6422 1.73254 22.5102 1.60018 22.378C1.46444 22.2425 1.32827 22.1075 1.192 21.9726C1.08619 21.8676 0.98071 21.7624 0.875309 21.6571C0.825251 21.6071 0.775076 21.5573 0.724779 21.5077C-0.00345014 20.7878 -0.00344986 20.7878 -0.015625 20.2412C-0.0056919 19.4929 0.657502 19.022 1.1531 18.5268C1.20716 18.4726 1.2612 18.4185 1.31523 18.3643C1.46256 18.2166 1.61003 18.069 1.75753 17.9215C1.91703 17.7619 2.07639 17.6022 2.23577 17.4425C2.58361 17.094 2.93163 16.7457 3.27968 16.3974C3.49711 16.1799 3.7145 15.9623 3.93189 15.7447C4.53423 15.1418 5.1366 14.5389 5.73915 13.9362C5.77764 13.8977 5.81613 13.8592 5.85578 13.8195C5.89436 13.781 5.93294 13.7424 5.97269 13.7026C6.05086 13.6244 6.12903 13.5462 6.2072 13.468C6.26537 13.4099 6.26537 13.4099 6.3247 13.3505C6.9538 12.7212 7.58258 12.0916 8.21123 11.4619C8.85721 10.8148 9.50345 10.168 10.15 9.52141C10.5127 9.15859 10.8754 8.79567 11.2378 8.43245C11.5461 8.1234 11.8546 7.8146 12.1635 7.50612C12.321 7.34877 12.4785 7.1913 12.6356 7.03353C12.7795 6.88905 12.9237 6.74489 13.0681 6.60099C13.1203 6.54895 13.1723 6.49679 13.2242 6.44449C13.9212 5.74237 14.5826 5.37883 15.4209 6.09373ZM14.1645 7.43219C14.1282 7.46901 14.1282 7.46901 14.0912 7.50657C14.0655 7.53217 14.0399 7.55778 14.0135 7.58415C13.9286 7.66916 13.844 7.75449 13.7594 7.83982C13.7007 7.89869 13.642 7.95755 13.5832 8.01638C13.4284 8.17153 13.2739 8.32696 13.1195 8.48245C12.9619 8.64097 12.8041 8.79922 12.6463 8.9575C12.3365 9.26827 12.0271 9.57934 11.7178 9.8906C11.7899 10.0621 11.8931 10.1711 12.0244 10.3016C12.0459 10.3231 12.0674 10.3447 12.0896 10.3668C12.1604 10.4376 12.2315 10.508 12.3026 10.5783C12.3519 10.6275 12.4012 10.6766 12.4504 10.7257C12.5798 10.8548 12.7095 10.9835 12.8392 11.1123C12.9717 11.2438 13.1039 11.3755 13.2361 11.5072C13.4953 11.7655 13.7549 12.0235 14.0146 12.2812C14.1972 12.207 14.3199 12.0824 14.4558 11.9445C14.4805 11.9198 14.5052 11.8951 14.5307 11.8696C14.6121 11.7882 14.6931 11.7064 14.7742 11.6246C14.8306 11.568 14.8871 11.5114 14.9436 11.4548C15.0921 11.3059 15.2403 11.1568 15.3884 11.0076C15.5397 10.8554 15.6912 10.7034 15.8428 10.5514C16.1399 10.2533 16.4367 9.95485 16.7334 9.65623C16.6613 9.48533 16.5587 9.37587 16.4283 9.2452C16.4069 9.22369 16.3855 9.20217 16.3636 9.18C16.2932 9.10926 16.2226 9.03886 16.1519 8.96848C16.1028 8.91937 16.0538 8.87024 16.0047 8.8211C15.9021 8.71835 15.7994 8.61577 15.6964 8.51331C15.5643 8.38174 15.4327 8.24976 15.3011 8.11764C15.2 8.01622 15.0987 7.91502 14.9974 7.81389C14.9487 7.76529 14.9001 7.71662 14.8516 7.66788C14.7839 7.59998 14.7159 7.53242 14.6479 7.46487C14.5899 7.40701 14.5899 7.40701 14.5308 7.34798C14.3608 7.19948 14.3063 7.29127 14.1645 7.43219Z" fill="#23586A"/>
<path d="M18.2812 0C18.4677 0.0576882 18.6323 0.125223 18.8018 0.221741C18.8473 0.24747 18.8928 0.2732 18.9397 0.299709C19.0126 0.341329 19.0126 0.341329 19.0869 0.383789C19.1913 0.442763 19.2958 0.501722 19.4002 0.560669C19.4551 0.59177 19.5101 0.622883 19.565 0.654007C19.8238 0.800681 20.0827 0.947214 20.3422 1.09267C20.4245 1.13894 20.5067 1.18559 20.5888 1.23224C20.6644 1.2746 20.6644 1.2746 20.7415 1.31781C20.7858 1.34284 20.8301 1.36788 20.8758 1.39367C21.0011 1.45364 21.0959 1.48974 21.2344 1.5C21.3435 1.46274 21.3435 1.46274 21.4486 1.396C21.49 1.37194 21.5315 1.34789 21.5741 1.32311C21.6186 1.2964 21.6631 1.2697 21.709 1.24219C21.8053 1.18603 21.9016 1.12994 21.9979 1.07391C22.0488 1.04413 22.0996 1.01435 22.152 0.983665C22.4024 0.838548 22.6556 0.698618 22.9089 0.558701C23.0417 0.485339 23.1744 0.411772 23.3071 0.338196C23.3543 0.312085 23.4015 0.285974 23.4501 0.259071C23.5586 0.198445 23.6659 0.136374 23.7729 0.0734253C23.9062 0 23.9062 0 24 0C23.942 0.187709 23.8736 0.353164 23.7766 0.523865C23.7506 0.569871 23.7247 0.615877 23.6979 0.663277C23.67 0.712198 23.6421 0.76112 23.6133 0.811523C23.5542 0.915949 23.4951 1.02038 23.436 1.12482C23.4055 1.17859 23.375 1.23236 23.3436 1.28776C23.2497 1.45341 23.1567 1.61955 23.064 1.78583C23.0343 1.83907 23.0045 1.89232 22.9739 1.94718C22.9166 2.0499 22.8593 2.15263 22.8021 2.25537C22.7761 2.30182 22.7501 2.34826 22.7234 2.39612C22.7006 2.43702 22.6777 2.47792 22.6542 2.52006C22.606 2.60381 22.5536 2.6852 22.5 2.76562C22.5163 2.94264 22.5786 3.0765 22.6633 3.23108C22.6876 3.27558 22.7118 3.32008 22.7368 3.36592C22.763 3.41339 22.7893 3.46086 22.8164 3.50977C22.8434 3.55908 22.8704 3.60839 22.8983 3.65919C23.1387 4.09677 23.3839 4.53168 23.6309 4.96564C23.6533 5.00527 23.6758 5.0449 23.699 5.08573C23.7442 5.16538 23.7896 5.24492 23.8352 5.32436C23.8567 5.36224 23.8782 5.40012 23.9004 5.43915C23.9196 5.47275 23.9388 5.50635 23.9586 5.54097C24 5.625 24 5.625 24 5.71875C23.7199 5.64258 23.4847 5.49958 23.2354 5.35547C23.1395 5.30063 23.0436 5.24582 22.9477 5.19104C22.8728 5.14815 22.8728 5.14815 22.7964 5.10439C22.4826 4.92555 22.1668 4.75017 21.8514 4.5742C21.8048 4.54815 21.7581 4.52209 21.7101 4.49524C21.6486 4.46092 21.6486 4.46092 21.5858 4.42591C21.5042 4.37951 21.4238 4.33088 21.3445 4.28059C21.2368 4.20833 21.2368 4.20833 21.106 4.21838C20.8923 4.28443 20.7139 4.39148 20.5225 4.50586C20.4353 4.55685 20.3481 4.60775 20.2608 4.65857C20.2141 4.68584 20.1674 4.7131 20.1193 4.7412C19.8465 4.8987 19.5706 5.05071 19.2949 5.20312C19.1891 5.2617 19.0832 5.3203 18.9774 5.37891C18.9057 5.41851 18.9057 5.41851 18.8326 5.45892C18.7236 5.51984 18.6156 5.5822 18.5079 5.64551C18.375 5.71875 18.375 5.71875 18.2812 5.71875C18.3571 5.44063 18.4983 5.20751 18.6416 4.95996C18.6963 4.86435 18.751 4.7687 18.8057 4.67303C18.8345 4.62253 18.8634 4.57202 18.8932 4.51998C19.0696 4.20934 19.242 3.89647 19.4147 3.58377C19.4584 3.50463 19.5022 3.42553 19.546 3.34644C19.5836 3.2783 19.5836 3.2783 19.622 3.20879C19.6717 3.12154 19.7256 3.03667 19.7812 2.95312C19.779 2.66337 19.6099 2.43069 19.4678 2.18848C19.4124 2.09249 19.3571 1.99648 19.3019 1.90045C19.273 1.8505 19.2441 1.80055 19.2143 1.74909C19.064 1.48769 18.9174 1.22426 18.7705 0.960938C18.7168 0.864735 18.663 0.768543 18.6092 0.672363C18.585 0.629039 18.5608 0.585714 18.5359 0.541077C18.4771 0.436682 18.4169 0.333277 18.3561 0.22998C18.2812 0.09375 18.2812 0.09375 18.2812 0Z" fill="#23586A"/>
<path d="M18.2812 13.6875C18.6968 13.8873 19.1031 14.0992 19.5029 14.3291C19.5436 14.3524 19.5843 14.3757 19.6262 14.3997C19.8548 14.531 20.082 14.6645 20.3082 14.7999C20.405 14.8568 20.5018 14.9138 20.5986 14.9707C20.6439 14.9984 20.6891 15.026 20.7357 15.0545C20.9718 15.1994 20.9718 15.1994 21.2384 15.2192C21.2835 15.1933 21.3286 15.1673 21.375 15.1406C21.4057 15.1241 21.4365 15.1075 21.4682 15.0905C21.5821 15.0284 21.6938 14.9632 21.8057 14.8975C21.8929 14.8469 21.9802 14.7964 22.0675 14.746C22.1142 14.7191 22.1609 14.6921 22.209 14.6643C22.4538 14.524 22.7002 14.3865 22.9468 14.2495C23.0286 14.2041 23.1102 14.1585 23.1919 14.113C23.4585 13.9649 23.7258 13.8211 24 13.6875C23.9736 13.8507 23.9341 13.9734 23.8502 14.1156C23.8286 14.1528 23.807 14.19 23.7847 14.2283C23.7491 14.2883 23.7491 14.2883 23.7129 14.3496C23.6619 14.4372 23.611 14.5249 23.5602 14.6125C23.5329 14.6595 23.5056 14.7065 23.4776 14.7549C23.3205 15.0283 23.1682 15.3042 23.0156 15.5801C22.957 15.6859 22.8984 15.7918 22.8398 15.8976C22.8135 15.9455 22.7872 15.9935 22.76 16.0429C22.6996 16.1503 22.6359 16.2541 22.5703 16.3583C22.488 16.5242 22.4965 16.5615 22.5469 16.7344C22.5889 16.8221 22.6344 16.9082 22.6822 16.9929C22.7104 17.0433 22.7387 17.0937 22.7678 17.1456C22.7983 17.1994 22.8289 17.2532 22.8604 17.3086C22.8919 17.3646 22.9234 17.4206 22.9549 17.4767C23.0201 17.5928 23.0855 17.7088 23.1511 17.8247C23.2478 17.9958 23.3437 18.1674 23.4393 18.3391C23.6086 18.6428 23.6086 18.6428 23.7783 18.9463C23.8008 18.9866 23.8233 19.0269 23.8465 19.0684C23.8946 19.1517 23.9467 19.2325 24 19.3125C23.9768 19.3821 23.9768 19.3821 23.9531 19.4531C23.4195 19.1644 22.8875 18.8729 22.3594 18.5742C22.3143 18.5489 22.2693 18.5235 22.2229 18.4974C22.0263 18.3863 21.8307 18.2744 21.6383 18.1562C21.6082 18.138 21.578 18.1197 21.5469 18.1009C21.4696 18.0539 21.3928 18.0058 21.316 17.9577C21.1915 17.8919 21.1915 17.8919 21.0769 17.9422C20.9553 17.999 20.8368 18.0588 20.7188 18.1227C20.6738 18.147 20.6288 18.1713 20.5825 18.1964C20.5346 18.2224 20.4868 18.2485 20.4375 18.2754C20.3878 18.3023 20.3382 18.3293 20.287 18.3571C19.9145 18.5602 19.5459 18.7697 19.1784 18.9817C18.8846 19.1506 18.5878 19.3084 18.2812 19.4531C18.3127 19.2977 18.3706 19.1748 18.4462 19.0358C18.4707 18.9907 18.4952 18.9456 18.5204 18.8991C18.5601 18.8267 18.5601 18.8267 18.6006 18.7529C18.6278 18.7031 18.6549 18.6533 18.6829 18.6019C18.8649 18.2694 19.0507 17.9392 19.2393 17.6104C19.2742 17.5494 19.2742 17.5494 19.3098 17.4871C19.4053 17.3204 19.5011 17.1539 19.5992 16.9887C19.6255 16.9435 19.6517 16.8982 19.6787 16.8516C19.7003 16.8153 19.7219 16.7791 19.7441 16.7417C19.7929 16.6089 19.771 16.5425 19.7344 16.4062C19.6929 16.3196 19.648 16.2346 19.6007 16.151C19.5727 16.1011 19.5447 16.0512 19.5159 15.9998C19.4703 15.9196 19.4703 15.9196 19.4238 15.8379C19.3924 15.7821 19.3611 15.7263 19.3298 15.6704C19.2642 15.5536 19.1985 15.4368 19.1326 15.3202C18.9829 15.0551 18.8338 14.7897 18.6854 14.5239C18.6393 14.4416 18.593 14.3595 18.5466 14.2774C18.5186 14.2273 18.4906 14.1772 18.4618 14.1257C18.4371 14.0817 18.4123 14.0377 18.3868 13.9924C18.3351 13.889 18.3031 13.8004 18.2812 13.6875Z" fill="#23586A"/>
<path d="M4.54688 0C4.70104 0.0312986 4.82301 0.0882136 4.96088 0.16333C5.00553 0.18756 5.05018 0.211791 5.09618 0.236755C5.16797 0.276183 5.16797 0.276183 5.24121 0.316406C5.29073 0.343416 5.34025 0.370426 5.39128 0.398254C5.82989 0.638271 6.26544 0.883618 6.70001 1.13086C6.73982 1.15328 6.77964 1.17569 6.82066 1.19879C6.89905 1.24363 6.97678 1.28968 7.05379 1.33685C7.0904 1.35879 7.12701 1.38072 7.16473 1.40332C7.1967 1.42308 7.22867 1.44284 7.26161 1.4632C7.39308 1.51269 7.46033 1.49494 7.59375 1.45312C7.68259 1.41058 7.76979 1.36454 7.85559 1.31616C7.90646 1.28769 7.95733 1.25921 8.00974 1.22987C8.06444 1.19883 8.11914 1.16778 8.17383 1.13672C8.23016 1.10503 8.2865 1.07337 8.34286 1.04173C8.48705 0.960696 8.63102 0.879281 8.77494 0.797768C8.90793 0.722529 9.04113 0.647659 9.17432 0.572754C9.3574 0.469653 9.54043 0.366474 9.72327 0.262939C9.76114 0.241579 9.79901 0.220219 9.83803 0.198212C9.91871 0.1515 9.99748 0.101486 10.0756 0.0505371C10.1073 0.0338599 10.1391 0.0171826 10.1719 0C10.2183 0.0154688 10.2647 0.0309375 10.3125 0.046875C9.90505 0.78826 9.49585 1.52848 9.07837 2.26428C9.05713 2.30215 9.03589 2.34002 9.01401 2.37904C8.97498 2.44656 8.93427 2.51314 8.89151 2.57835C8.82902 2.67135 8.82902 2.67135 8.76562 2.8125C8.81703 2.9777 8.89814 3.12617 8.98041 3.27795C9.00449 3.32245 9.02857 3.36694 9.05338 3.41279C9.07927 3.46026 9.10516 3.50773 9.13184 3.55664C9.15863 3.60598 9.18543 3.65533 9.21304 3.70617C9.42814 4.10081 9.64814 4.49259 9.87173 4.88248C10.0284 5.15681 10.1743 5.43471 10.3125 5.71875C10.1583 5.68745 10.0364 5.63054 9.8985 5.55542C9.85385 5.53119 9.8092 5.50696 9.7632 5.48199C9.71533 5.45571 9.66747 5.42943 9.61816 5.40234C9.56864 5.37533 9.51912 5.34832 9.4681 5.3205C9.02949 5.08048 8.59393 4.83513 8.15936 4.58789C8.09964 4.55426 8.09964 4.55426 8.03872 4.51996C7.96032 4.47512 7.8826 4.42907 7.80558 4.3819C7.75067 4.349 7.75067 4.349 7.69464 4.31543C7.66267 4.29567 7.6307 4.27591 7.59777 4.25555C7.46576 4.20586 7.39968 4.22335 7.26562 4.26562C7.16995 4.31158 7.07594 4.36107 6.98328 4.41284C6.95633 4.42779 6.92938 4.44273 6.90161 4.45813C6.81379 4.50693 6.72623 4.55619 6.63867 4.60547C6.57796 4.63934 6.51724 4.6732 6.4565 4.70702C6.30253 4.7929 6.14879 4.87918 5.99514 4.96563C5.90991 5.01357 5.82464 5.06142 5.73935 5.10924C5.50263 5.24204 5.26606 5.37511 5.02991 5.50891C4.99413 5.52918 4.95835 5.54944 4.92149 5.57032C4.84179 5.617 4.76435 5.66752 4.6875 5.71875C4.64109 5.70328 4.59469 5.68781 4.54688 5.67188C4.84297 5.11983 5.14065 4.56893 5.45215 4.02539C5.47513 3.98511 5.49812 3.94482 5.5218 3.90332C5.62568 3.72188 5.73084 3.54164 5.84052 3.36365C5.85871 3.33356 5.87691 3.30348 5.89566 3.27248C5.94335 3.19395 5.99196 3.11599 6.04065 3.03809C6.10832 2.91075 6.10832 2.91075 6.05776 2.79527C6.00142 2.67491 5.94229 2.55763 5.87897 2.4408C5.85489 2.3963 5.83081 2.35181 5.806 2.30596C5.78011 2.25849 5.75422 2.21102 5.72754 2.16211C5.70074 2.11277 5.67394 2.06342 5.64633 2.01258C5.43123 1.61794 5.21124 1.22616 4.98764 0.836266C4.83101 0.561941 4.68511 0.284044 4.54688 0Z" fill="#23586A"/>
</g>
<defs>
<clipPath id="clip0_38_9480">
<rect width="24" height="24" fill="white"/>
</clipPath>
</defs>
</svg>
