<svg width="24" height="24" viewBox="0 0 24 24" fill="none" xmlns="http://www.w3.org/2000/svg">
<path d="M16.504 9.885C16.092 9.885 15.7387 9.741 15.444 9.453C15.1493 9.165 15.0013 8.809 15 8.385V4C15 3.57467 15.1467 3.21833 15.44 2.931C15.7347 2.64367 16.088 2.5 16.5 2.5C16.926 2.5 17.2827 2.64367 17.57 2.931C17.8573 3.21833 18.0007 3.57467 18 4V8.385C18 8.80967 17.8567 9.16567 17.57 9.453C17.2833 9.74033 16.928 9.884 16.504 9.884M5.616 21C5.17133 21 4.791 20.8417 4.475 20.525C4.159 20.2083 4.00067 19.8287 4 19.386V4.615C4 4.171 4.15833 3.791 4.475 3.475C4.79167 3.159 5.17167 3.00067 5.615 3H12.5V4H5.616C5.436 4 5.28833 4.05767 5.173 4.173C5.05767 4.28833 5 4.436 5 4.616V19.385C5 19.5643 5.05767 19.7117 5.173 19.827C5.28833 19.9423 5.436 20 5.616 20H15.385C15.5643 20 15.7117 19.9423 15.827 19.827C15.9423 19.7117 16 19.564 16 19.384V17.731H17V19.377C17 19.8297 16.8417 20.2133 16.525 20.528C16.209 20.8427 15.829 21 15.385 21H5.616ZM7.5 17.73V16.5H13.5V17.73H7.5ZM7.5 14.73V13.73H11.5V14.73H7.5ZM17 15.5H16V12.977C14.768 12.859 13.71 12.3697 12.826 11.509C11.942 10.6477 11.5 9.60633 11.5 8.385H12.5C12.5 9.41567 12.8993 10.2757 13.698 10.965C14.4967 11.6543 15.43 11.9993 16.498 12C17.5847 12 18.5237 11.655 19.315 10.965C20.105 10.2763 20.5 9.41667 20.5 8.386H21.5C21.5 9.62067 21.0623 10.665 20.187 11.519C19.3117 12.373 18.2493 12.859 17 12.977V15.5Z" fill="#23586A"/>
</svg>
