<svg width="24" height="24" viewBox="0 0 24 24" fill="none" xmlns="http://www.w3.org/2000/svg">
<path d="M8.57115 5.14292C8.06715 5.14292 7.38372 5.13835 6.28772 5.13721C6.00775 5.13662 5.73731 5.23882 5.5277 5.42441C5.31809 5.61001 5.18389 5.86609 5.15058 6.14407L5.14258 6.28121V18.8492C5.14258 19.1523 5.26299 19.443 5.47731 19.6573C5.69164 19.8717 5.98233 19.9921 6.28544 19.9921L17.714 19.9989C17.994 19.9992 18.2643 19.8967 18.4737 19.7109C18.6831 19.5251 18.817 19.2689 18.85 18.9909L18.8569 18.8572V6.28578C18.8569 5.98268 18.7365 5.69199 18.5221 5.47766C18.3078 5.26333 18.0171 5.14292 17.714 5.14292H15.4283" stroke="#23586A" stroke-linecap="round" stroke-linejoin="round"/>
<path d="M7.42773 9.71429H13.142M7.42773 12H15.4277M7.42773 14.2857H10.8563M7.42773 16.5714H14.2849M9.71345 4H14.2849C14.588 4 14.8787 4.12041 15.093 4.33474C15.3073 4.54906 15.4277 4.83975 15.4277 5.14286C15.4277 5.44596 15.3073 5.73665 15.093 5.95098C14.8787 6.16531 14.588 6.28571 14.2849 6.28571H9.71345C9.41034 6.28571 9.11965 6.16531 8.90533 5.95098C8.691 5.73665 8.57059 5.44596 8.57059 5.14286C8.57059 4.83975 8.691 4.54906 8.90533 4.33474C9.11965 4.12041 9.41034 4 9.71345 4Z" stroke="#23586A" stroke-linecap="round" stroke-linejoin="round"/>
</svg>
