<svg xmlns="http://www.w3.org/2000/svg" width="71" height="70" viewBox="0 0 71 70" fill="none">
  <g clip-path="url(#clip0_38_9798)">
    <path d="M50.0406 27.3208C50.2076 27.3201 50.2076 27.3201 50.3779 27.3194C50.6135 27.3187 50.8491 27.3184 51.0847 27.3184C51.4411 27.3181 51.7975 27.3156 52.1539 27.313C55.3766 27.3016 55.3766 27.3016 56.6918 28.4375C57.6712 29.5004 57.7034 30.6872 57.707 32.0708C57.7086 32.3655 57.7153 32.6599 57.7223 32.9545C57.7337 33.9824 57.6761 34.7859 57.086 35.6693C56.9269 35.9637 56.9269 35.9637 57.0683 36.3108C57.1942 36.5546 57.3243 36.7964 57.4566 37.0369C57.8003 37.8385 57.7189 38.7417 57.7172 39.5971C57.7211 39.7762 57.7249 39.9553 57.7289 40.1397C57.7295 40.3983 57.7295 40.3983 57.73 40.6621C57.731 40.8185 57.7319 40.9749 57.7329 41.1361C57.6237 41.6897 57.395 41.8933 56.9652 42.2461C56.5865 42.3615 56.2566 42.3309 55.8715 42.2461C55.2475 41.8743 55.2475 41.8743 55.1037 41.452C55.0431 41.1064 55.029 40.7763 55.0223 40.4255C55.0184 40.2872 55.0146 40.1489 55.0106 40.0065C55.0034 39.716 54.9974 39.4255 54.9924 39.1349C54.9882 38.9968 54.984 38.8587 54.9796 38.7165C54.9755 38.5273 54.9755 38.5273 54.9714 38.3343C54.9041 37.9486 54.8147 37.8295 54.5043 37.5976C54.0528 37.4471 53.6921 37.4327 53.2167 37.4177C53.0453 37.4119 52.8739 37.4062 52.6973 37.4003C52.5182 37.3949 52.339 37.3895 52.1544 37.384C51.9719 37.3781 51.7893 37.3721 51.6068 37.3661C51.1599 37.3516 50.7129 37.3376 50.266 37.3242C50.2696 37.449 50.2732 37.5738 50.2769 37.7024C50.2885 38.1674 50.2971 38.6323 50.3036 39.0974C50.307 39.2984 50.3116 39.4993 50.3176 39.7001C50.3259 39.9896 50.3298 40.279 50.3328 40.5686C50.3363 40.7426 50.3399 40.9166 50.3436 41.0958C50.2459 41.6831 50.0398 41.8787 49.5824 42.2461C49.2013 42.3688 48.8753 42.3453 48.4887 42.2461C48.0485 41.8995 47.8455 41.6837 47.6684 41.1523C47.6544 40.7545 47.6483 40.3599 47.6485 39.962C47.648 39.8403 47.6476 39.7187 47.6471 39.5934C47.6458 39.1905 47.6455 38.7877 47.6454 38.3848C47.6449 38.105 47.6445 37.8253 47.644 37.5455C47.6432 36.9586 47.6429 36.3718 47.643 35.785C47.643 35.033 47.6412 34.281 47.6388 33.529C47.6373 32.951 47.637 32.3731 47.6371 31.7951C47.6369 31.5178 47.6363 31.2406 47.6353 30.9633C47.6339 30.5755 47.6343 30.1877 47.6351 29.7999C47.6344 29.6854 47.6336 29.5709 47.6328 29.4529C47.6365 28.7611 47.6871 28.2147 48.1298 27.6513C48.6737 27.2329 49.3857 27.3217 50.0406 27.3208ZM50.266 29.9414C50.266 31.5205 50.266 33.0996 50.266 34.7265C51.26 34.7477 51.26 34.7477 52.2741 34.7693C52.482 34.7755 52.6899 34.7817 52.9041 34.7881C53.1513 34.7907 53.1513 34.7907 53.4036 34.7933C53.656 34.7987 53.656 34.7987 53.9135 34.8041C54.503 34.7034 54.6982 34.5195 55.0512 34.0429C55.1526 33.6586 55.1526 33.6586 55.1371 33.2477C55.1374 33.0982 55.1377 32.9487 55.1379 32.7946C55.1331 32.5623 55.1331 32.5623 55.1281 32.3254C55.1303 32.0924 55.1303 32.0924 55.1326 31.8546C55.1592 31.0265 55.1592 31.0265 54.8071 30.3115C54.26 29.8898 53.7732 29.9248 53.0965 29.928C52.948 29.9284 52.7995 29.9287 52.6464 29.9291C52.3648 29.9309 52.3648 29.9309 52.0775 29.9328C51.4797 29.9357 50.8819 29.9385 50.266 29.9414Z" fill="#23586A"/>
    <path d="M27.4424 27.3181C27.7035 27.3156 27.7035 27.3156 27.9698 27.313C29.8429 27.3101 31.5209 27.4845 32.9454 28.8049C34.4433 30.4239 34.4534 32.4531 34.4422 34.5388C34.4407 34.8627 34.4422 35.1866 34.4439 35.5105C34.4459 37.5 34.3654 39.3868 32.9454 40.9216C31.5233 42.2546 29.9998 42.2817 28.1599 42.2939C27.9097 42.2962 27.6595 42.2999 27.4093 42.3051C27.0473 42.3126 26.6856 42.3156 26.3236 42.3176C26.2122 42.3207 26.1008 42.3238 25.986 42.327C25.8286 42.3264 25.8286 42.3264 25.668 42.3258C25.5765 42.3269 25.4849 42.328 25.3906 42.3292C24.9135 42.188 24.7217 41.958 24.4261 41.5625C24.3278 41.1298 24.334 40.708 24.3398 40.2658C24.3388 40.1361 24.3378 40.0064 24.3368 39.8728C24.3345 39.4447 24.3372 39.0169 24.3401 38.5888C24.34 38.291 24.3396 37.9933 24.3391 37.6955C24.3387 37.0716 24.3407 36.4478 24.3445 35.824C24.3491 35.0245 24.3483 34.2251 24.3457 33.4256C24.3443 32.8107 24.3455 32.1959 24.3476 31.5811C24.3483 31.2863 24.3482 30.9915 24.3473 30.6967C24.3466 30.2847 24.3494 29.8728 24.3531 29.4607C24.3522 29.339 24.3513 29.2172 24.3504 29.0918C24.3592 28.5266 24.3803 28.2367 24.6882 27.748C25.3944 27.0843 26.5333 27.3185 27.4424 27.3181ZM27.0237 29.9414C27.0237 33.1447 27.0237 36.348 27.0237 39.6484C29.5357 39.8787 29.5357 39.8787 31.3047 38.7939C31.8009 37.9853 31.8504 37.1035 31.8452 36.1792C31.8455 36.0741 31.8457 35.9689 31.846 35.8607C31.8462 35.6401 31.8457 35.4195 31.8445 35.1989C31.8431 34.8641 31.8445 34.5294 31.8463 34.1946C31.8461 33.9788 31.8457 33.7631 31.8452 33.5473C31.8457 33.4487 31.8463 33.3502 31.8469 33.2486C31.8376 32.231 31.6862 31.3087 30.9603 30.5534C29.842 29.6325 28.4128 29.9414 27.0237 29.9414Z" fill="#23586A"/>
    <path d="M16.8307 27.316C16.9418 27.3152 17.0529 27.3144 17.1674 27.3136C17.4022 27.3123 17.6369 27.3114 17.8717 27.3109C18.2269 27.3096 18.5821 27.3054 18.9373 27.301C21.8014 27.2824 21.8014 27.2824 22.7166 28.1726C23.143 28.7461 23.3177 29.3667 23.3318 30.0781C23.1377 30.6503 23.0145 30.8365 22.5115 31.1719C21.5608 31.2792 21.5608 31.2792 21.0076 30.8643C20.7341 30.4883 20.7341 30.4883 20.7341 29.9414C19.155 29.9414 17.5759 29.9414 15.949 29.9414C15.949 33.1447 15.949 36.3481 15.949 39.6485C17.5281 39.6485 19.1072 39.6485 20.7341 39.6485C20.7341 38.8815 20.7341 38.1145 20.7341 37.3242C20.455 37.3383 20.1758 37.3524 19.8882 37.367C19.0229 37.3641 19.0229 37.3641 18.5039 37.0508C18.208 36.5247 18.1433 36.1368 18.2732 35.5469C18.6458 34.9214 18.6458 34.9214 19.0735 34.7787C19.6206 34.6815 20.1714 34.7013 20.7256 34.7009C20.8478 34.6993 20.97 34.6976 21.096 34.6959C21.8345 34.6942 22.4218 34.7147 23.0242 35.188C23.5699 35.8975 23.3627 37.0564 23.366 37.8967C23.3688 38.0731 23.3716 38.2494 23.3745 38.4311C23.3793 39.5958 23.3023 40.5485 22.6738 41.5454C21.8971 42.3 21.1076 42.3115 20.0821 42.315C19.9405 42.3164 19.7989 42.3177 19.653 42.3191C19.3541 42.3212 19.0552 42.3222 18.7564 42.3221C18.3017 42.323 17.8474 42.3305 17.3928 42.3382C17.1015 42.3394 16.8102 42.3403 16.5188 42.3406C16.3842 42.3436 16.2496 42.3465 16.1109 42.3496C15.157 42.3402 14.4475 42.1136 13.7615 41.4258C13.351 40.7845 13.291 40.219 13.2939 39.4755C13.2928 39.3651 13.2916 39.2547 13.2904 39.141C13.2872 38.7779 13.2871 38.4148 13.2872 38.0516C13.2863 37.7979 13.2852 37.5442 13.2841 37.2906C13.2823 36.7594 13.282 36.2282 13.2828 35.697C13.2836 35.0182 13.2795 34.3394 13.2739 33.6606C13.2704 33.1367 13.27 32.6129 13.2705 32.0891C13.2703 31.8389 13.269 31.5887 13.2665 31.3385C13.2635 30.9878 13.2648 30.6373 13.2672 30.2865C13.2654 30.1843 13.2636 30.0822 13.2617 29.9769C13.2741 29.1908 13.5299 28.6305 14.0349 28.0274C14.8847 27.3534 15.7876 27.3217 16.8307 27.316Z" fill="#23586A"/>
    <path d="M38.9664 27.3208C39.1334 27.3201 39.1334 27.3201 39.3037 27.3194C39.5393 27.3187 39.7749 27.3184 40.0104 27.3184C40.3669 27.3181 40.7233 27.3156 41.0797 27.313C44.3024 27.3016 44.3024 27.3016 45.6176 28.4375C46.6007 29.5045 46.6256 30.6903 46.6253 32.0783C46.6259 32.3745 46.6308 32.6704 46.636 32.9665C46.646 34.1827 46.5248 35.1176 45.8082 36.1306C45.7369 36.2002 45.6655 36.2698 45.5919 36.3415C45.5223 36.4129 45.4527 36.4843 45.381 36.5578C44.1345 37.4396 42.9087 37.3906 41.4391 37.3584C41.2208 37.3556 41.0024 37.3531 40.7841 37.3509C40.2532 37.3449 39.7225 37.3355 39.1918 37.3242C39.1954 37.449 39.1989 37.5738 39.2026 37.7024C39.2143 38.1674 39.2229 38.6323 39.2293 39.0974C39.2328 39.2984 39.2374 39.4993 39.2434 39.7001C39.2517 39.9896 39.2555 40.279 39.2585 40.5686C39.2621 40.7426 39.2657 40.9166 39.2694 41.0958C39.1717 41.6831 38.9655 41.8787 38.5082 42.2461C38.1269 42.3688 37.8014 42.3446 37.4144 42.2461C36.9328 41.8771 36.7024 41.6057 36.5941 41.0156C36.5805 40.6216 36.5741 40.231 36.5743 39.837C36.5738 39.7182 36.5734 39.5994 36.5729 39.4771C36.5716 39.0845 36.5713 38.6919 36.5712 38.2994C36.5707 38.0263 36.5703 37.7531 36.5698 37.48C36.569 36.9074 36.5687 36.3348 36.5688 35.7623C36.5688 35.0292 36.5669 34.2961 36.5646 33.5629C36.5631 32.9988 36.5628 32.4346 36.5629 31.8705C36.5627 31.6002 36.5621 31.33 36.561 31.0597C36.5597 30.6814 36.5601 30.3032 36.5609 29.9249C36.5602 29.8136 36.5594 29.7024 36.5586 29.5878C36.5625 28.8783 36.6107 28.2292 37.0556 27.6428C37.608 27.2391 38.3113 27.3217 38.9664 27.3208ZM39.1918 29.9414C39.1918 31.5205 39.1918 33.0996 39.1918 34.7265C40.1858 34.7477 40.1858 34.7477 41.1998 34.7693C41.4078 34.7755 41.6157 34.7817 41.8299 34.7881C42.0771 34.7907 42.0771 34.7907 42.3294 34.7933C42.5818 34.7987 42.5818 34.7987 42.8392 34.8041C43.4288 34.7034 43.6239 34.5195 43.9769 34.0429C44.0784 33.6586 44.0784 33.6586 44.0629 33.2477C44.0632 33.0982 44.0635 32.9487 44.0637 32.7946C44.0588 32.5623 44.0588 32.5623 44.0539 32.3254C44.0561 32.0924 44.0561 32.0924 44.0584 31.8546C44.085 31.0265 44.085 31.0265 43.7328 30.3115C43.1858 29.8898 42.6989 29.9248 42.0223 29.928C41.8738 29.9284 41.7252 29.9287 41.5722 29.9291C41.2906 29.9309 41.2906 29.9309 41.0033 29.9328C40.4055 29.9357 39.8077 29.9385 39.1918 29.9414Z" fill="#23586A"/>
    <path d="M63.5275 14.4922C63.8852 14.907 64.1262 15.394 64.3468 15.8925C64.6013 16.4897 64.6013 16.4897 65.1083 16.8677C65.3888 16.9187 65.6696 16.968 65.9511 17.0135C66.1514 17.0471 66.1514 17.0471 66.3559 17.0814C66.4833 17.0995 66.6107 17.1177 66.742 17.1364C67.1267 17.2384 67.284 17.2959 67.4924 17.6368C67.4982 18.0325 67.4982 18.0325 67.3556 18.4571C67.0037 18.7749 67.0037 18.7749 66.578 19.098C66.1749 19.4421 65.8788 19.7326 65.8145 20.2748C65.837 20.8595 65.9386 21.4172 66.0525 21.9899C66.1499 22.5135 66.1499 22.5135 65.9329 22.9095C65.715 23.1055 65.715 23.1055 65.3305 23.0884C64.8092 23.0217 64.4452 22.8015 63.9975 22.533C63.4478 22.2057 63.4478 22.2057 62.8268 22.1912C62.597 22.3261 62.3678 22.462 62.14 22.6003C61.2786 23.1069 61.2786 23.1069 60.7248 23.097C60.383 22.9688 60.383 22.9688 60.2463 22.6954C60.2618 22.494 60.2864 22.2933 60.3157 22.0935C60.5234 20.7956 60.5234 20.7956 60.2425 19.5551C59.9357 19.1791 59.6041 18.9179 59.2129 18.6285C58.8791 18.3204 58.8791 18.3204 58.8145 17.8883C58.8791 17.5001 58.8791 17.5001 59.1525 17.2266C59.4175 17.2055 59.6825 17.185 59.9477 17.1678C60.9109 17.099 60.9109 17.099 61.6886 16.5858C61.9848 16.1165 62.1898 15.624 62.3862 15.1064C62.624 14.4902 62.8765 14.356 63.5275 14.4922Z" fill="#23586A"/>
    <path d="M20.4951 4.02466C20.8711 4.10156 20.8711 4.10156 21.0441 4.30237C21.2938 4.7005 21.5149 5.08346 21.6727 5.5275C21.8248 5.90926 21.9401 6.13877 22.2383 6.42578C22.8042 6.60053 23.3451 6.69276 23.9312 6.76277C24.4258 6.83594 24.4258 6.83594 24.8359 7.10938C24.908 7.48856 24.908 7.48856 24.8359 7.92969C24.5931 8.22174 24.3741 8.45169 24.0925 8.69873C23.4706 9.23344 23.4706 9.23344 23.1953 9.98047C23.2071 10.252 23.2071 10.252 23.2562 10.5279C23.2708 10.6291 23.2855 10.7304 23.3005 10.8347C23.333 11.0463 23.3665 11.2578 23.4009 11.4692C23.5097 12.2391 23.5097 12.2391 23.2962 12.5813C22.9859 12.7557 22.748 12.7385 22.4022 12.6812C22.1016 12.5781 22.1016 12.5781 21.7368 12.3512C21.3056 12.0828 20.9545 11.8837 20.4609 11.7578C19.9454 11.9387 19.5542 12.1762 19.1082 12.49C18.5806 12.7694 18.2969 12.7134 17.7266 12.5781C17.5926 11.877 17.6204 11.3653 17.7778 10.6726C17.8954 9.99633 17.8954 9.99633 17.6929 9.36417C17.4464 9.08532 17.1946 8.84822 16.9062 8.61328C16.2359 8.01427 16.2359 8.01427 16.1543 7.4939C16.1769 7.367 16.1994 7.24011 16.2227 7.10938C16.6544 6.82155 16.8826 6.81216 17.3845 6.77712C18.2998 6.69425 18.2998 6.69425 19.0407 6.19507C19.4637 5.58464 19.7579 4.91831 20.0508 4.23828C20.1875 4.10156 20.1875 4.10156 20.4951 4.02466Z" fill="#23586A"/>
    <path d="M62.1606 45.5273C62.5483 45.4974 62.5483 45.4974 62.9809 45.5273C63.1913 45.7281 63.1913 45.7281 63.3398 46.0058C63.3956 46.1049 63.4515 46.2039 63.5091 46.306C63.6096 46.5099 63.7038 46.7172 63.79 46.9276C63.911 47.2163 64.0245 47.4633 64.2113 47.7148C64.6139 47.8675 64.8897 47.936 65.3051 47.9883C65.5504 48.032 65.7953 48.0776 66.04 48.125C66.2107 48.1546 66.2107 48.1546 66.385 48.1848C66.6723 48.2617 66.6723 48.2617 66.9457 48.5351C67.0152 48.8459 67.0152 48.8459 66.9457 49.2187C66.7516 49.4106 66.5557 49.6014 66.3483 49.779C65.5999 50.4274 65.5999 50.4274 65.2586 51.3256C65.2743 52.0103 65.396 52.6727 65.5584 53.3369C65.5785 53.5937 65.5785 53.5937 65.3051 54.0039C65.0739 54.1278 65.0739 54.1278 64.7582 54.1406C64.3414 53.9538 63.9539 53.7443 63.5579 53.5184C63.1915 53.32 62.9191 53.1813 62.4976 53.1942C61.9113 53.4135 61.3675 53.7141 60.8147 54.006C60.3832 54.1406 60.3832 54.1406 59.9859 53.959C59.8914 53.8836 59.797 53.8082 59.6996 53.7304C59.7116 53.6513 59.7237 53.5722 59.736 53.4907C59.9959 52.0092 59.9959 52.0092 59.6952 50.589C59.3887 50.2134 59.0571 49.9527 58.6662 49.6636C58.3324 49.3554 58.3324 49.3554 58.2422 48.9319C58.3324 48.5351 58.3324 48.5351 58.6075 48.2889C59.0949 48.0933 59.566 48.0167 60.0842 47.9626C60.1789 47.9514 60.2736 47.9402 60.3712 47.9287C60.6029 47.9015 60.8348 47.8763 61.0668 47.8515C61.1031 47.7327 61.1394 47.614 61.1768 47.4916C61.3376 47.0387 61.5327 46.6465 61.7675 46.228C61.8412 46.0958 61.9148 45.9636 61.9907 45.8275C62.0468 45.7284 62.1028 45.6294 62.1606 45.5273Z" fill="#23586A"/>
    <path d="M9.94214 45.2454C10.1409 45.2496 10.1409 45.2496 10.3438 45.2539C10.5267 45.5896 10.7089 45.9258 10.8906 46.2622C10.9428 46.3577 10.995 46.4533 11.0487 46.5517C11.4375 47.2737 11.4375 47.2737 11.4375 47.5781C11.612 47.6046 11.7865 47.631 11.9662 47.6582C12.1944 47.6941 12.4227 47.7301 12.6509 47.7661C12.8235 47.792 12.8235 47.792 12.9996 47.8185C13.1648 47.8449 13.1648 47.8449 13.3334 47.8719C13.4351 47.8876 13.5367 47.9034 13.6415 47.9196C13.8984 47.9883 13.8984 47.9883 14.1719 48.2617C14.236 48.643 14.236 48.643 14.1719 49.082C13.9258 49.3593 13.6993 49.5802 13.4199 49.8169C12.8279 50.3603 12.8279 50.3603 12.5654 51.1157C12.5941 51.3046 12.6292 51.4926 12.668 51.6797C12.7031 51.9897 12.7341 52.3003 12.762 52.6111C12.7794 52.7614 12.7969 52.9117 12.8148 53.0666C12.8047 53.457 12.8047 53.457 12.6535 53.7235C12.2536 53.9453 12.0066 53.8513 11.5742 53.7305C11.1817 53.529 10.8128 53.3027 10.4372 53.0714C9.99678 52.8778 9.83634 52.8898 9.38672 53.0469C8.99966 53.2526 8.62876 53.4778 8.25452 53.7059C7.82575 53.8919 7.63646 53.8767 7.19922 53.7305C7.0625 53.5938 7.0625 53.5938 7.04434 53.3342C7.04469 53.2225 7.04505 53.1107 7.04541 52.9956C7.04523 52.8724 7.04506 52.7492 7.04488 52.6223C7.0625 52.2266 7.0625 52.2266 7.12712 51.8351C7.26559 51.1087 7.26559 51.1087 7.01924 50.4439C6.7711 50.2006 6.51325 49.9829 6.24219 49.7656C5.96503 49.5005 5.77781 49.2673 5.55859 48.9453C5.58423 48.4839 5.58423 48.4839 5.69531 48.125C6.38243 47.8578 7.05871 47.7677 7.78615 47.6817C8.24397 47.5536 8.33218 47.4386 8.56641 47.0312C8.71366 46.7518 8.85585 46.4696 8.99365 46.1853C9.44563 45.2555 9.44563 45.2555 9.94214 45.2454Z" fill="#23586A"/>
    <path d="M35.7026 61.4428C36.1109 61.7004 36.2089 61.953 36.385 62.3927C36.7205 63.2546 36.7205 63.2546 37.3955 63.8383C37.8731 63.973 38.3415 64.0167 38.8349 64.0501C39.3283 64.1211 39.3283 64.1211 39.6765 64.3587C39.8752 64.668 39.8752 64.668 39.8891 65.0055C39.6839 65.4771 39.3772 65.6571 38.9695 65.9668C38.5454 66.3294 38.2679 66.6372 38.1818 67.2011C38.1689 67.9598 38.2512 68.7066 38.3659 69.4558C38.3677 69.5452 38.3695 69.6345 38.3713 69.7266C38.0979 70 38.0979 70 37.7176 70.0433C37.085 69.9811 36.6821 69.6804 36.1539 69.3458C35.6787 69.1382 35.4471 69.1746 34.9533 69.3164C34.6316 69.4735 34.6316 69.4735 34.3381 69.6667C33.8373 69.959 33.4943 70.101 32.9026 70C32.6291 69.7266 32.6291 69.7266 32.6035 69.2737C32.6048 68.9046 32.6396 68.5814 32.7135 68.2184C32.7987 67.7281 32.8407 67.3491 32.7658 66.8555C32.4175 66.3947 32.0509 66.0507 31.6091 65.6848C31.2619 65.3516 31.2619 65.3516 31.1113 65.0012C31.1252 64.668 31.1252 64.668 31.3239 64.3587C31.7079 64.0967 31.9848 64.0623 32.4426 64.0313C33.3361 63.9698 33.3361 63.9698 34.0615 63.497C34.349 63.0612 34.5532 62.6028 34.7509 62.121C34.9744 61.6123 35.1139 61.3454 35.7026 61.4428Z" fill="#23586A"/>
    <path d="M50.8129 57.4219C51.5555 57.3724 51.5555 57.3724 51.8671 57.5709C52.1122 57.9341 52.2461 58.3205 52.4023 58.7293C52.6602 59.3511 52.6602 59.3511 53.1473 59.7771C53.4664 59.8428 53.7689 59.8674 54.0942 59.8828C54.32 59.924 54.5452 59.9695 54.7692 60.0196C54.8691 60.0393 54.9691 60.059 55.072 60.0794C55.3246 60.1563 55.3246 60.1563 55.5981 60.4297C55.6675 60.7405 55.6675 60.7405 55.5981 61.1133C55.4039 61.3052 55.208 61.496 55.0007 61.6736C54.2522 62.322 54.2522 62.322 53.911 63.2202C53.9267 63.9049 54.0483 64.5673 54.2108 65.2315C54.2309 65.4883 54.2309 65.4883 53.9574 65.8985C53.1009 66.0625 52.5848 65.7005 51.8719 65.2442C51.3996 65.0353 51.1681 65.0738 50.6762 65.2149C50.3544 65.372 50.3544 65.372 50.061 65.5652C49.5601 65.8574 49.2172 65.9995 48.6254 65.8985C48.5352 65.8082 48.4449 65.718 48.352 65.625C48.3573 65.3543 48.3573 65.3543 48.4081 65.0231C48.6234 63.7262 48.6234 63.7262 48.3488 62.4848C48.0419 62.1088 47.7099 61.8476 47.3186 61.5582C46.9848 61.25 46.9848 61.25 46.8945 60.8265C46.9848 60.4297 46.9848 60.4297 47.2598 60.1835C47.7472 59.9879 48.2183 59.9112 48.7365 59.8572C48.8312 59.846 48.926 59.8348 49.0236 59.8233C49.2553 59.7961 49.4872 59.7709 49.7192 59.7461C49.7555 59.6273 49.7918 59.5085 49.8292 59.3862C49.9899 58.9333 50.1851 58.5411 50.4198 58.1226C50.4935 57.9904 50.5672 57.8582 50.6431 57.722C50.6991 57.623 50.7552 57.5239 50.8129 57.4219Z" fill="#23586A"/>
    <path d="M20.258 55.8459C20.6713 56.0995 20.7385 56.3378 20.8875 56.7873C21.1638 57.6477 21.1638 57.6477 21.8035 58.2351C22.2802 58.3752 22.7505 58.4225 23.2445 58.458C23.7441 58.5158 23.964 58.5455 24.2896 58.9258C24.3762 59.2452 24.3762 59.2452 24.2896 59.6094C24.0955 59.8013 23.8996 59.9921 23.6922 60.1697C22.9438 60.8181 22.9438 60.8181 22.6026 61.7162C22.6182 62.4009 22.7399 63.0634 22.9024 63.7276C22.9225 63.9844 22.9225 63.9844 22.649 64.3945C21.9918 64.4839 21.6337 64.3253 21.0853 63.9758C20.6133 63.707 20.3783 63.577 19.8292 63.5486C19.3208 63.7275 18.894 63.973 18.431 64.2455C18.0371 64.4454 17.7495 64.4789 17.317 64.3945C17.0435 63.9844 17.0435 63.9844 17.0636 63.7276C17.087 63.6322 17.1103 63.5368 17.1343 63.4386C17.4162 62.252 17.4162 62.252 17.1701 61.1021C16.8381 60.6721 16.4562 60.3259 16.0449 59.9736C15.6764 59.6094 15.6764 59.6094 15.5898 59.2452C15.6764 58.9258 15.6764 58.9258 15.8836 58.6839C16.2598 58.4976 16.5786 58.4717 16.9938 58.4448C17.8969 58.3771 17.8969 58.3771 18.6127 57.8754C18.9019 57.4037 19.1051 56.911 19.3021 56.3954C19.3689 56.2379 19.4357 56.0803 19.5045 55.918C19.9146 55.7813 19.9146 55.7813 20.258 55.8459Z" fill="#23586A"/>
    <path d="M50.7181 2.51221C51.1628 2.61563 51.1982 2.70199 51.4359 3.07617C51.6091 3.37839 51.7639 3.67943 51.9048 3.99796C51.9475 4.09418 51.9901 4.19041 52.0341 4.28955C52.0691 4.37802 52.1042 4.46649 52.1403 4.55765C52.553 5.09194 53.449 5.13994 54.0763 5.28076C54.2339 5.31636 54.3914 5.35196 54.5537 5.38864C54.6725 5.41508 54.7913 5.44151 54.9137 5.46875C55.0999 6.20538 55.0999 6.20538 54.8784 6.57959C54.7942 6.66418 54.71 6.74878 54.6232 6.83594C54.4464 7.01804 54.2698 7.20035 54.0934 7.38281C53.9672 7.50371 53.841 7.62461 53.711 7.74918C53.2995 8.36932 53.3948 8.74551 53.5294 9.45068C53.7315 10.5778 53.7315 10.5778 53.4878 11.0133C53.4169 11.0785 53.3461 11.1438 53.2731 11.2109C52.4887 11.1208 51.9784 10.8231 51.3158 10.4152C50.8755 10.2217 50.7146 10.2333 50.2653 10.3906C49.8827 10.5966 49.5161 10.8214 49.1464 11.0497C48.6818 11.2443 48.422 11.1975 47.941 11.0742C47.7983 10.297 47.8321 9.64979 48.0035 8.87924C48.0526 8.51126 48.0521 8.28729 47.941 7.92969C47.6347 7.57898 47.3281 7.2687 46.9721 6.97012C46.598 6.64595 46.4459 6.48568 46.373 5.98732C46.4371 5.60547 46.4371 5.60547 46.7106 5.33203C46.9755 5.30839 47.2405 5.28532 47.5057 5.26631C48.4598 5.19453 48.4598 5.19453 49.2466 4.70678C49.6341 4.13656 49.8738 3.50837 50.1285 2.87109C50.402 2.59766 50.402 2.59766 50.7181 2.51221Z" fill="#23586A"/>
    <path d="M9.39526 14.7571C9.59406 14.7613 9.59406 14.7613 9.79688 14.7656C9.97986 15.1014 10.162 15.4375 10.3438 15.7739C10.3959 15.8694 10.4481 15.965 10.5018 16.0634C10.8906 16.7854 10.8906 16.7854 10.8906 17.0898C11.0651 17.1163 11.2396 17.1427 11.4193 17.17C11.6476 17.2059 11.8758 17.2418 12.104 17.2778C12.2766 17.3037 12.2766 17.3037 12.4527 17.3302C12.618 17.3566 12.618 17.3566 12.7865 17.3836C12.8882 17.3993 12.9899 17.4151 13.0946 17.4313C13.3516 17.5 13.3516 17.5 13.625 17.7734C13.6891 18.1548 13.6891 18.1548 13.625 18.5938C13.3789 18.871 13.1524 19.092 12.873 19.3286C12.281 19.872 12.281 19.872 12.0186 20.6274C12.0472 20.8163 12.0824 21.0043 12.1211 21.1914C12.1562 21.5015 12.1873 21.812 12.2151 22.1228C12.2325 22.2731 12.25 22.4235 12.268 22.5784C12.2578 22.9688 12.2578 22.9688 12.0773 23.2262C11.8477 23.3789 11.8477 23.3789 11.4973 23.3875C10.9269 23.2112 10.4985 22.9226 10.0105 22.5832C9.54999 22.3712 9.32308 22.4193 8.83984 22.5586C8.4473 22.76 8.07844 22.9864 7.70284 23.2176C7.27674 23.4049 7.08782 23.3876 6.65234 23.2422C6.51562 23.1055 6.51562 23.1055 6.49747 22.8459C6.49782 22.7342 6.49817 22.6224 6.49854 22.5073C6.49695 22.321 6.49695 22.321 6.49533 22.1308C6.51562 21.7383 6.51562 21.7383 6.60428 21.3757C6.70144 20.946 6.73804 20.6698 6.65234 20.2344C6.35213 19.8007 5.98069 19.4372 5.59024 19.0846C5.36206 18.8731 5.36206 18.8731 5.01172 18.457C5.02881 17.994 5.02881 17.994 5.14844 17.6367C5.83556 17.3695 6.51184 17.2795 7.23927 17.1935C7.6971 17.0653 7.78531 16.9503 8.01953 16.543C8.16678 16.2635 8.30897 15.9813 8.44678 15.697C8.89875 14.7672 8.89875 14.7672 9.39526 14.7571Z" fill="#23586A"/>
    <path d="M35.4739 -0.0598145C35.9097 0 35.9097 0 36.1917 0.324707C36.3522 0.599767 36.4812 0.877176 36.6082 1.16959C36.9241 1.9296 36.9241 1.9296 37.5674 2.39258C37.7422 2.41514 37.917 2.4377 38.0972 2.46094C38.3624 2.50165 38.6273 2.5445 38.8918 2.58911C39.0196 2.60726 39.1474 2.62542 39.279 2.64412C39.6011 2.73438 39.6011 2.73438 39.8745 3.14453C39.8617 3.6307 39.7507 3.81322 39.4302 4.18434C39.3061 4.30084 39.182 4.41733 39.0542 4.53735C38.5832 4.95741 38.5832 4.95741 38.2339 5.46875C38.2317 5.68706 38.2386 5.9055 38.2504 6.1235C38.2571 6.25216 38.2637 6.38081 38.2705 6.51337C38.282 6.71534 38.282 6.71534 38.2937 6.92139C38.3044 7.12494 38.3044 7.12494 38.3153 7.33261C38.3331 7.6684 38.3515 8.00413 38.3706 8.33984C38.016 8.50594 38.016 8.50594 37.5503 8.61328C37.1102 8.42583 37.1102 8.42583 36.6616 8.14331C36.0526 7.74998 36.0526 7.74998 35.3542 7.66693C34.9201 7.80319 34.5855 7.98712 34.2007 8.22876C33.5124 8.62407 33.5124 8.62407 32.9446 8.52783C32.8402 8.4658 32.7359 8.40376 32.6284 8.33984C32.6099 7.22756 32.6099 7.22756 32.6925 6.70082C32.8298 5.89854 32.8298 5.89854 32.5852 5.14992C32.3394 4.87233 32.0835 4.62304 31.8081 4.375C31.1305 3.68591 31.1305 3.68591 31.1074 3.17871C31.2612 2.87109 31.2612 2.87109 31.5571 2.72049C31.9885 2.58382 32.383 2.54905 32.8335 2.51221C33.4581 2.4323 33.4581 2.4323 33.9705 2.10205C34.1473 1.8183 34.279 1.53964 34.4058 1.23047C34.5073 1.02774 34.6098 0.82548 34.7134 0.623779C34.8318 0.382684 34.8318 0.382684 34.9526 0.136719C35.0894 0 35.0894 0 35.4739 -0.0598145Z" fill="#23586A"/>
    <path d="M66.2454 30.719C66.6726 30.7617 66.6726 30.7617 66.8814 30.9855C67.114 31.3587 67.277 31.742 67.4502 32.146C67.7094 32.7054 67.7094 32.7054 68.1514 33.1073C68.4363 33.1764 68.7044 33.2027 68.9968 33.2227C69.2452 33.2683 69.493 33.3168 69.7402 33.3679C69.8557 33.3892 69.9711 33.4106 70.09 33.4325C70.364 33.4961 70.364 33.4961 70.5007 33.6328C70.5563 34.0734 70.5563 34.0734 70.5007 34.5898C70.2528 34.8793 70.0367 35.094 69.7488 35.3333C69.156 35.8712 69.156 35.8712 68.8943 36.6235C68.9234 36.8124 68.9585 37.0003 68.9968 37.1875C69.0286 37.5005 69.0568 37.8139 69.0823 38.1274C69.0981 38.2794 69.114 38.4313 69.1303 38.5878C69.1319 38.7744 69.1319 38.7744 69.1335 38.9648C68.8601 39.2383 68.8601 39.2383 68.4799 39.2815C67.8473 39.2194 67.4443 38.9187 66.9161 38.5841C66.4411 38.3766 66.2092 38.4127 65.7156 38.5547C65.3984 38.712 65.3984 38.712 65.1089 38.905C64.5373 39.2406 64.1838 39.3202 63.5281 39.2383C63.3914 39.1016 63.3914 39.1016 63.3732 38.842C63.3736 38.7303 63.3739 38.6185 63.3743 38.5034C63.3741 38.3801 63.3739 38.2567 63.3737 38.1296C63.3914 37.7344 63.3914 37.7344 63.456 37.3477C63.5893 36.6079 63.5893 36.6079 63.3481 35.9212C63.1018 35.642 62.8451 35.3886 62.571 35.1367C61.8903 34.4428 61.8903 34.4428 61.8789 33.9404C62.0624 33.5519 62.1753 33.515 62.571 33.3594C63.0257 33.2776 63.4806 33.2211 63.9388 33.1628C64.3713 33.1093 64.3713 33.1093 64.7585 32.8125C64.9363 32.4923 65.0986 32.1774 65.2542 31.8469C65.7704 30.7706 65.7704 30.7706 66.2454 30.719Z" fill="#23586A"/>
    <path d="M4.70476 30.6848C5.14909 30.7617 5.14909 30.7617 5.33601 30.9673C5.57915 31.3532 5.78616 31.7373 5.95338 32.162C6.17184 32.7273 6.17184 32.7273 6.64392 33.0688C6.96582 33.1403 7.28257 33.1846 7.61003 33.2227C7.83562 33.2622 8.0607 33.3049 8.28508 33.3508C8.38501 33.369 8.48493 33.3871 8.58789 33.4058C8.8405 33.4961 8.8405 33.4961 9.11394 33.9062C9.10125 34.3899 9.00091 34.5643 8.6696 34.922C8.4193 35.1446 8.16865 35.3668 7.91765 35.5885C7.54159 36.039 7.50095 36.3349 7.47331 36.9141C7.51592 37.188 7.56186 37.4614 7.61003 37.7344C7.6288 38.1904 7.63921 38.6459 7.61003 39.1016C7.47331 39.2383 7.47331 39.2383 7.08025 39.2981C6.41682 39.2981 5.93091 38.9317 5.38782 38.5841C4.91545 38.3751 4.68394 38.4136 4.19206 38.5547C3.87028 38.7118 3.87028 38.7118 3.57683 38.905C3.076 39.1972 2.73306 39.3393 2.14128 39.2383C2.05105 39.148 1.96081 39.0578 1.86784 38.9648C1.87322 38.6941 1.87322 38.6941 1.92392 38.363C2.14 37.0667 2.14 37.0667 1.86464 35.8268C1.55709 35.4542 1.2261 35.1966 0.834442 34.9113C0.500656 34.5898 0.500656 34.5898 0.453125 34.0718C0.46881 33.9269 0.484496 33.7821 0.500656 33.6328C1.09754 33.2788 1.72378 33.2626 2.4019 33.1895C2.90178 33.0671 3.05924 32.9428 3.37175 32.5391C3.52666 32.2623 3.67172 31.9798 3.80754 31.6931C4.24413 30.779 4.24413 30.779 4.70476 30.6848Z" fill="#23586A"/>
  </g>
  <defs>
    <clipPath id="clip0_38_9798">
      <rect width="70" height="70" fill="white" transform="translate(0.5)"/>
    </clipPath>
  </defs>
</svg>