<svg xmlns="http://www.w3.org/2000/svg" width="70" height="70" viewBox="0 0 70 70" fill="none">
  <g clip-path="url(#clip0_38_9822)">
    <path d="M6.50433 9.68943C6.65495 9.68907 6.65495 9.68907 6.80862 9.6887C7.14445 9.68807 7.48028 9.6884 7.81612 9.68873C8.05959 9.68848 8.30306 9.68816 8.54653 9.6878C9.21514 9.68696 9.88374 9.68698 10.5523 9.68714C11.2736 9.68717 11.9949 9.68641 12.7161 9.68576C14.129 9.68463 15.5419 9.68425 16.9548 9.68418C18.1032 9.68411 19.2516 9.68383 20.4001 9.6834C23.6558 9.68219 26.9116 9.68156 30.1674 9.68166C30.4307 9.68167 30.4307 9.68167 30.6993 9.68168C30.875 9.68169 31.0508 9.68169 31.2318 9.6817C34.0803 9.68175 36.9287 9.68044 39.7772 9.67852C42.7018 9.67655 45.6264 9.67561 48.551 9.67573C50.193 9.67577 51.835 9.6754 53.4771 9.67393C54.875 9.67268 56.2729 9.67238 57.6709 9.67331C58.3841 9.67376 59.0972 9.67376 59.8104 9.67258C60.4636 9.67151 61.1167 9.6717 61.7699 9.67289C62.0059 9.6731 62.2419 9.67285 62.4779 9.67209C64.6168 9.66564 66.6319 9.83617 68.2785 11.3824C69.5861 12.822 70.0839 14.2927 70.0687 16.22C70.0695 16.3877 70.0704 16.5554 70.0713 16.7282C70.0731 17.1896 70.0724 17.6509 70.0707 18.1123C70.0695 18.6114 70.0714 19.1106 70.0729 19.6098C70.0753 20.586 70.0748 21.5622 70.0732 22.5384C70.072 23.3322 70.0718 24.1259 70.0724 24.9197C70.0725 25.0329 70.0726 25.1461 70.0727 25.2627C70.0728 25.4927 70.073 25.7227 70.0732 25.9527C70.0748 28.1067 70.073 30.2607 70.07 32.4147C70.0676 34.2609 70.068 36.107 70.0705 37.9532C70.0735 40.0998 70.0746 42.2463 70.0729 44.3929C70.0728 44.622 70.0726 44.8511 70.0724 45.0803C70.0723 45.193 70.0723 45.3057 70.0722 45.4218C70.0717 46.2142 70.0725 47.0065 70.0738 47.7988C70.0753 48.7651 70.0749 49.7314 70.072 50.6976C70.0705 51.1902 70.07 51.6826 70.0718 52.1752C70.0737 52.7101 70.0714 53.245 70.0687 53.78C70.0699 53.9341 70.0711 54.0883 70.0724 54.2472C70.0545 56.066 69.3654 57.522 68.0718 58.7987C66.7291 59.9245 65.2177 60.3096 63.4941 60.3105C63.3435 60.3109 63.3435 60.3109 63.1899 60.3113C62.854 60.3119 62.5182 60.3116 62.1824 60.3112C61.9389 60.3115 61.6954 60.3118 61.4519 60.3122C60.7833 60.313 60.1147 60.313 59.4461 60.3128C58.7249 60.3128 58.0036 60.3136 57.2823 60.3142C55.8695 60.3153 54.4566 60.3157 53.0437 60.3158C51.8953 60.3159 50.7468 60.3161 49.5984 60.3166C46.3426 60.3178 43.0868 60.3184 39.831 60.3183C39.6555 60.3183 39.48 60.3183 39.2992 60.3183C39.1234 60.3183 38.9477 60.3183 38.7666 60.3183C35.9182 60.3182 33.0697 60.3195 30.2213 60.3214C27.2967 60.3234 24.3721 60.3244 21.4475 60.3242C19.8054 60.3242 18.1634 60.3246 16.5214 60.326C15.1235 60.3273 13.7255 60.3276 12.3276 60.3267C11.6144 60.3262 10.9012 60.3262 10.1881 60.3274C9.5349 60.3285 8.88175 60.3283 8.22858 60.3271C7.9926 60.3269 7.75661 60.3271 7.52062 60.3279C5.38166 60.3343 3.36656 60.1638 1.71997 58.6176C0.412341 57.1779 -0.085455 55.7073 -0.0702055 53.78C-0.0710587 53.6122 -0.0719118 53.4445 -0.0727908 53.2717C-0.0745838 52.8103 -0.0739536 52.3491 -0.0722515 51.8877C-0.0710075 51.3885 -0.0729272 50.8894 -0.0744279 50.3902C-0.0768531 49.414 -0.0763374 48.4378 -0.0747492 47.4616C-0.0735115 46.6678 -0.0733477 45.874 -0.0739419 45.0803C-0.0740257 44.9671 -0.0741095 44.8539 -0.0741958 44.7373C-0.0743707 44.5073 -0.0745481 44.2773 -0.0747278 44.0473C-0.0762853 41.8933 -0.0744973 39.7393 -0.0715558 37.5853C-0.0691127 35.7391 -0.0695369 33.8929 -0.072058 32.0468C-0.0749881 29.9002 -0.0761351 27.7536 -0.0744577 25.6071C-0.0742835 25.3779 -0.0741115 25.1488 -0.0739419 24.9197C-0.0738153 24.7506 -0.0738154 24.7506 -0.0736863 24.5781C-0.0732151 23.7858 -0.0740088 22.9935 -0.0752979 22.2011C-0.0768354 21.2349 -0.0764088 20.2686 -0.0735038 19.3023C-0.0720716 18.8098 -0.0714949 18.3173 -0.0733118 17.8248C-0.0752554 17.2899 -0.0729267 16.755 -0.0702055 16.22C-0.0714255 16.0658 -0.0726453 15.9116 -0.0739022 15.7528C-0.0560062 13.934 0.633108 12.478 1.92665 11.2013C3.26938 10.0755 4.78077 9.69036 6.50433 9.68943ZM2.90451 13.0908C1.98258 14.1201 1.83314 15.233 1.84386 16.568C1.843 16.7323 1.84215 16.8966 1.84127 17.0659C1.83948 17.5191 1.84011 17.9722 1.84181 18.4253C1.84305 18.9152 1.84114 19.405 1.83963 19.8949C1.83721 20.8533 1.83773 21.8117 1.83931 22.7702C1.84055 23.5494 1.84072 24.3285 1.84012 25.1077C1.84004 25.2187 1.83995 25.3298 1.83987 25.4442C1.83969 25.6697 1.83951 25.8953 1.83933 26.1209C1.83778 28.2346 1.83957 30.3483 1.84251 32.462C1.84495 34.2744 1.84453 36.0867 1.842 37.8991C1.83908 40.0054 1.83793 42.1117 1.8396 44.218C1.83978 44.4428 1.83995 44.6675 1.84012 44.8923C1.8402 45.0028 1.84029 45.1134 1.84038 45.2273C1.84085 46.0053 1.84005 46.7832 1.83876 47.5611C1.83723 48.5096 1.83765 49.4581 1.84056 50.4065C1.84199 50.8902 1.84256 51.3738 1.84075 51.8574C1.83881 52.3823 1.84113 52.9071 1.84386 53.432C1.84264 53.584 1.84142 53.7359 1.84016 53.8925C1.85364 55.2324 2.23883 56.1997 3.15605 57.1773C4.60201 58.5316 6.37919 58.4189 8.24445 58.4136C8.4849 58.4139 8.72534 58.4144 8.96578 58.4149C9.62411 58.416 10.2824 58.4155 10.9408 58.4146C11.6517 58.414 12.3626 58.415 13.0735 58.4157C14.4652 58.4169 15.8569 58.4167 17.2487 58.4159C18.3799 58.4153 19.5111 58.4152 20.6423 58.4155C20.8033 58.4155 20.9644 58.4156 21.1303 58.4156C21.4575 58.4157 21.7847 58.4158 22.1119 58.4159C25.1794 58.4167 28.2469 58.4158 31.3143 58.4143C33.9457 58.4131 36.5771 58.4133 39.2085 58.4145C42.2651 58.416 45.3217 58.4166 48.3782 58.4157C48.7042 58.4157 49.0302 58.4156 49.3562 58.4155C49.5166 58.4154 49.677 58.4154 49.8423 58.4154C50.972 58.4151 52.1017 58.4155 53.2314 58.4162C54.6083 58.4169 55.9852 58.4167 57.3621 58.4153C58.0645 58.4145 58.7669 58.4143 59.4692 58.4152C60.1125 58.416 60.7558 58.4155 61.3991 58.4141C61.6315 58.4138 61.8639 58.4139 62.0962 58.4146C64.6735 58.4357 64.6735 58.4357 66.8424 57.1773C67.9048 56.0449 68.1669 54.9593 68.1546 53.432C68.1555 53.2677 68.1563 53.1033 68.1572 52.934C68.159 52.4809 68.1584 52.0278 68.1567 51.5746C68.1554 51.0848 68.1573 50.5949 68.1588 50.1051C68.1613 49.1467 68.1608 48.1882 68.1592 47.2298C68.1579 46.4506 68.1578 45.6714 68.1584 44.8923C68.1585 44.7257 68.1585 44.7257 68.1586 44.5558C68.1588 44.3302 68.159 44.1046 68.1591 43.879C68.1607 41.7653 68.1589 39.6516 68.156 37.5379C68.1535 35.7256 68.154 33.9132 68.1565 32.1009C68.1594 29.9945 68.1606 27.8882 68.1589 25.7819C68.1587 25.5572 68.1585 25.3324 68.1584 25.1077C68.1583 24.9971 68.1582 24.8866 68.1581 24.7726C68.1576 23.9947 68.1584 23.2168 68.1597 22.4388C68.1612 21.4903 68.1608 20.5419 68.1579 19.5934C68.1565 19.1098 68.1559 18.6262 68.1577 18.1426C68.1597 17.6177 68.1573 17.0929 68.1546 16.568C68.1558 16.416 68.1571 16.264 68.1583 16.1075C68.1448 14.7676 67.7596 13.8003 66.8424 12.8227C65.3965 11.4684 63.6193 11.581 61.754 11.5864C61.5136 11.586 61.2731 11.5856 61.0327 11.5851C60.3744 11.5839 59.716 11.5845 59.0577 11.5853C58.3468 11.586 57.6359 11.585 56.925 11.5842C55.5333 11.583 54.1415 11.5833 52.7498 11.5841C51.6186 11.5847 50.4874 11.5848 49.3562 11.5845C49.1952 11.5844 49.0341 11.5844 48.8682 11.5844C48.5409 11.5843 48.2137 11.5842 47.8865 11.5841C44.8191 11.5833 41.7516 11.5842 38.6842 11.5857C36.0527 11.5869 33.4213 11.5867 30.7899 11.5854C27.7334 11.584 24.6768 11.5834 21.6202 11.5842C21.2943 11.5843 20.9683 11.5844 20.6423 11.5845C20.4017 11.5846 20.4017 11.5846 20.1562 11.5846C19.0265 11.5849 17.8968 11.5845 16.7671 11.5838C15.3902 11.583 14.0133 11.5833 12.6364 11.5847C11.934 11.5854 11.2316 11.5857 10.5292 11.5848C9.88595 11.584 9.24268 11.5844 8.59939 11.5859C8.36701 11.5862 8.13462 11.586 7.90224 11.5854C5.95896 11.5802 4.30999 11.5928 2.90451 13.0908Z" fill="#23586A"/>
    <path d="M16.5996 35.7744C16.7756 35.7735 16.9516 35.7726 17.1329 35.7716C17.5045 35.77 17.8761 35.7695 18.2477 35.7696C18.7184 35.7697 19.1889 35.766 19.6595 35.7612C20.115 35.7574 20.5704 35.7576 21.0258 35.7573C21.192 35.7553 21.3581 35.7534 21.5292 35.7513C23.7298 35.7629 25.7413 36.4958 27.3619 38.0089C29.2054 39.9758 29.8558 42.109 29.8478 44.7325C29.8474 45.034 29.8506 45.3353 29.8541 45.6368C29.8544 45.8293 29.8545 46.0217 29.8544 46.2141C29.8548 46.3875 29.8552 46.5608 29.8556 46.7393C29.8047 47.168 29.8047 47.168 29.6136 47.4241C29.166 47.7388 28.858 47.7329 28.3143 47.735C28.1423 47.7359 27.9704 47.7369 27.7932 47.7379C27.6016 47.7383 27.41 47.7387 27.2183 47.739C27.0174 47.7399 26.8164 47.7408 26.6154 47.7418C26.0685 47.7442 25.5216 47.7456 24.9748 47.7467C24.6332 47.7474 24.2916 47.7483 23.9501 47.7491C22.8817 47.7517 21.8134 47.7537 20.745 47.7548C19.5112 47.7561 18.2774 47.7597 17.0436 47.7653C16.0903 47.7694 15.137 47.7714 14.1838 47.7719C13.6142 47.7722 13.0447 47.7734 12.4752 47.7768C11.9393 47.78 11.4035 47.7806 10.8677 47.7792C10.6711 47.7791 10.4745 47.78 10.2779 47.7819C10.0093 47.7843 9.74076 47.783 9.4722 47.7815C9.32195 47.7819 9.17171 47.7822 9.01691 47.7825C8.51426 47.6982 8.2854 47.5276 7.92969 47.168C7.84557 46.7303 7.84557 46.7303 7.84851 46.2152C7.8485 46.1228 7.8485 46.0303 7.84849 45.9351C7.84922 45.7393 7.85163 45.5434 7.85558 45.3476C7.86124 45.0535 7.8612 44.7598 7.86026 44.4656C7.86716 42.906 8.07629 41.4666 8.85254 40.0928C8.90078 40.0058 8.94903 39.9188 8.99874 39.8292C10.1444 37.8183 11.9438 36.6304 14.1296 35.9516C14.9432 35.752 15.7664 35.7759 16.5996 35.7744ZM12.4414 38.9648C12.3521 39.0288 12.2627 39.0928 12.1706 39.1587C10.7797 40.2483 10.0972 41.7657 9.84375 43.4766C9.84375 44.2436 9.84375 45.0105 9.84375 45.8008C15.7992 45.8008 21.7547 45.8008 27.8906 45.8008C27.8906 43.1445 27.7426 41.4209 25.9637 39.4861C24.817 38.3957 23.3048 37.728 21.7199 37.7102C21.5833 37.7084 21.4468 37.7067 21.3061 37.7049C21.0865 37.7033 21.0865 37.7033 20.8624 37.7018C20.7098 37.7007 20.5572 37.6996 20.3999 37.6985C20.0768 37.6966 19.7536 37.6951 19.4305 37.694C19.1025 37.6925 18.7745 37.6897 18.4465 37.6856C15.2623 37.6224 15.2623 37.6224 12.4414 38.9648Z" fill="#23586A"/>
    <path d="M22.7704 23.6277C24.1194 24.7478 24.8703 26.2989 25.0669 28.0375C25.1149 29.6339 24.6911 30.9595 23.7889 32.2656C23.7099 32.3868 23.631 32.5081 23.5496 32.633C22.433 33.7807 20.8728 34.5914 19.2627 34.6298C17.6151 34.6437 16.3983 34.3187 15.0389 33.3593C14.9233 33.2832 14.8077 33.2071 14.6885 33.1286C13.5492 32.0477 12.7966 30.5682 12.6869 28.9966C12.6583 27.0719 13.0794 25.5708 14.3953 24.1292C16.7833 21.8324 20.1146 21.7325 22.7704 23.6277ZM15.8592 25.4297C15.0449 26.4465 14.561 27.4851 14.6458 28.8049C14.8117 30.0713 15.4021 31.1326 16.4013 31.9387C17.4203 32.6351 18.4697 32.8306 19.6873 32.6757C20.866 32.3996 21.856 31.7077 22.5088 30.6842C23.035 29.6725 23.3057 28.6475 23.007 27.5194C22.54 26.1465 21.9425 25.2978 20.6444 24.6093C19.0722 23.9809 17.0757 24.1794 15.8592 25.4297Z" fill="#23586A"/>
    <path d="M37.4994 43.8337C37.6526 43.8326 37.6526 43.8326 37.8089 43.8315C38.1521 43.8295 38.4953 43.8305 38.8385 43.8315C39.0842 43.8307 39.3298 43.8297 39.5755 43.8286C40.2436 43.8262 40.9116 43.8263 41.5797 43.8271C42.1369 43.8275 42.6941 43.8267 43.2513 43.8259C44.5657 43.824 45.88 43.8242 47.1943 43.8257C48.5513 43.8273 49.9082 43.8254 51.2652 43.8217C52.4293 43.8187 53.5935 43.8178 54.7576 43.8186C55.4533 43.819 56.1489 43.8187 56.8446 43.8164C57.4988 43.8142 58.1528 43.8148 58.807 43.8174C59.0473 43.8179 59.2876 43.8174 59.5279 43.816C59.8555 43.8142 60.183 43.8158 60.5106 43.8182C60.6538 43.8162 60.6538 43.8162 60.7999 43.8142C61.2527 43.8211 61.4912 43.8631 61.8602 44.134C62.0703 44.4336 62.0703 44.4336 62.0703 44.9206C61.9336 45.3906 61.9336 45.3906 61.7141 45.6217C61.2732 45.8629 60.876 45.8585 60.3861 45.8547C60.2345 45.8559 60.2345 45.8559 60.0799 45.8572C59.7412 45.8595 59.4026 45.8588 59.0639 45.8582C58.8211 45.8592 58.5783 45.8604 58.3356 45.8617C57.676 45.8647 57.0164 45.8651 56.3568 45.8649C55.8064 45.8649 55.256 45.866 54.7056 45.8672C53.4071 45.8698 52.1087 45.8702 50.8103 45.8693C49.4704 45.8684 48.1304 45.8715 46.7904 45.8766C45.6404 45.8808 44.4903 45.8823 43.3402 45.8818C42.6531 45.8815 41.9661 45.8822 41.2791 45.8856C40.633 45.8886 39.987 45.8884 39.341 45.8856C39.1038 45.8851 38.8666 45.8858 38.6295 45.8878C38.3058 45.8903 37.9823 45.8885 37.6586 45.8857C37.5647 45.8875 37.4708 45.8892 37.374 45.8909C36.857 45.8814 36.6463 45.8053 36.2352 45.4804C35.957 45.1172 35.957 45.1172 35.957 44.6899C36.2472 43.8557 36.6747 43.8266 37.4994 43.8337Z" fill="#23586A"/>
    <path d="M37.4994 38.9118C37.6526 38.9107 37.6526 38.9107 37.8089 38.9096C38.1521 38.9076 38.4953 38.9086 38.8385 38.9096C39.0842 38.9088 39.3298 38.9079 39.5755 38.9068C40.2436 38.9043 40.9116 38.9045 41.5797 38.9052C42.1369 38.9057 42.6941 38.9048 43.2513 38.904C44.5657 38.9021 45.88 38.9023 47.1943 38.9039C48.5513 38.9054 49.9082 38.9035 51.2652 38.8998C52.4293 38.8968 53.5935 38.8959 54.7576 38.8967C55.4533 38.8972 56.1489 38.8968 56.8446 38.8945C57.4988 38.8924 58.1528 38.8929 58.807 38.8955C59.0473 38.896 59.2876 38.8956 59.5279 38.8941C59.8555 38.8923 60.183 38.8939 60.5106 38.8963C60.6538 38.8943 60.6538 38.8943 60.7999 38.8923C61.2528 38.8992 61.4915 38.9414 61.8607 39.2121C62.0703 39.5117 62.0703 39.5117 62.0618 39.9988C61.8911 40.6246 61.8911 40.6246 61.5234 40.8789C61.1824 40.9198 60.8753 40.9354 60.5341 40.9328C60.3818 40.9341 60.3818 40.9341 60.2266 40.9353C59.8855 40.9376 59.5446 40.937 59.2036 40.9363C58.9595 40.9373 58.7154 40.9385 58.4713 40.9398C57.8074 40.9429 57.1436 40.9433 56.4798 40.943C55.926 40.943 55.3722 40.9442 54.8184 40.9453C53.5119 40.9479 52.2054 40.9483 50.899 40.9474C49.5505 40.9465 48.2021 40.9496 46.8537 40.9547C45.6966 40.9589 44.5396 40.9604 43.3826 40.9599C42.6912 40.9596 41.9999 40.9604 41.3086 40.9637C40.6583 40.9668 40.0082 40.9665 39.358 40.9637C39.1193 40.9633 38.8806 40.964 38.6419 40.9659C38.3161 40.9684 37.9905 40.9667 37.6647 40.9639C37.5702 40.9656 37.4756 40.9673 37.3782 40.9691C36.8597 40.9595 36.6472 40.8841 36.2348 40.5585C35.957 40.1953 35.957 40.1953 35.957 39.7681C36.2472 38.9339 36.6747 38.9048 37.4994 38.9118Z" fill="#23586A"/>
    <path d="M37.4993 33.989C37.6015 33.9882 37.7036 33.9873 37.8088 33.9865C38.1521 33.9842 38.4952 33.9848 38.8384 33.9855C39.0841 33.9845 39.3298 33.9833 39.5755 33.982C40.2435 33.9789 40.9115 33.9786 41.5796 33.9788C42.1368 33.9788 42.6941 33.9777 43.2513 33.9765C44.5656 33.9739 45.8799 33.9735 47.1942 33.9744C48.5512 33.9753 49.9082 33.9722 51.2652 33.9671C52.4293 33.9629 53.5934 33.9614 54.7575 33.9619C55.4532 33.9622 56.1489 33.9614 56.8446 33.9581C57.4987 33.9551 58.1528 33.9553 58.8069 33.9581C59.0472 33.9586 59.2875 33.9579 59.5278 33.9559C59.8555 33.9534 60.1829 33.9551 60.5105 33.9579C60.606 33.9562 60.7015 33.9545 60.7999 33.9528C61.3005 33.9619 61.4922 34.0133 61.8607 34.3633C62.0703 34.7265 62.0703 34.7265 62.0617 35.1538C61.9257 35.5707 61.8752 35.7075 61.5234 35.957C61.1804 35.9978 60.8711 36.0135 60.5279 36.0109C60.4258 36.0117 60.3236 36.0126 60.2184 36.0134C59.8752 36.0157 59.532 36.015 59.1888 36.0144C58.9431 36.0154 58.6974 36.0166 58.4518 36.0179C57.7837 36.0209 57.1157 36.0213 56.4476 36.0211C55.8904 36.0211 55.3332 36.0222 54.776 36.0234C53.4616 36.026 52.1473 36.0264 50.833 36.0255C49.476 36.0246 48.119 36.0277 46.7621 36.0328C45.5979 36.0369 44.4338 36.0385 43.2697 36.038C42.574 36.0377 41.8783 36.0384 41.1827 36.0418C40.5285 36.0448 39.8745 36.0446 39.2203 36.0418C38.98 36.0413 38.7397 36.042 38.4994 36.044C38.1717 36.0465 37.8444 36.0447 37.5167 36.0419C37.3735 36.0445 37.3735 36.0445 37.2274 36.0471C36.7267 36.0379 36.535 35.9866 36.1666 35.6366C35.957 35.2734 35.957 35.2734 35.9655 34.8461C36.2392 34.0068 36.6803 33.9828 37.4993 33.989Z" fill="#23586A"/>
    <path d="M37.6412 29.0671C37.7423 29.0663 37.8433 29.0654 37.9474 29.0646C38.2861 29.0623 38.6248 29.063 38.9635 29.0636C39.2062 29.0626 39.449 29.0614 39.6918 29.0601C40.3514 29.0571 41.0109 29.0567 41.6705 29.0569C42.2209 29.057 42.7714 29.0558 43.3218 29.0546C44.6202 29.052 45.9186 29.0516 47.217 29.0525C48.557 29.0535 49.8969 29.0503 51.2369 29.0453C52.387 29.0411 53.537 29.0395 54.6871 29.04C55.3742 29.0403 56.0612 29.0396 56.7483 29.0362C57.3943 29.0332 58.0403 29.0334 58.6864 29.0362C58.9235 29.0367 59.1607 29.036 59.3979 29.034C59.7216 29.0315 60.045 29.0333 60.3687 29.0361C60.4627 29.0344 60.5566 29.0326 60.6533 29.0309C61.1704 29.0405 61.381 29.1165 61.7921 29.4414C62.0703 29.8046 62.0703 29.8046 62.0703 30.2319C61.927 30.644 61.8732 30.7866 61.5234 31.0351C61.1804 31.076 60.8711 31.0916 60.528 31.089C60.4258 31.0899 60.3237 31.0907 60.2185 31.0915C59.8752 31.0938 59.5321 31.0932 59.1888 31.0925C58.9432 31.0935 58.6975 31.0947 58.4518 31.096C57.7838 31.0991 57.1157 31.0995 56.4477 31.0992C55.8905 31.0992 55.3332 31.1004 54.776 31.1015C53.4617 31.1041 52.1474 31.1045 50.833 31.1036C49.476 31.1027 48.1191 31.1058 46.7621 31.1109C45.598 31.1151 44.4339 31.1166 43.2698 31.1161C42.5741 31.1158 41.8784 31.1166 41.1827 31.1199C40.5286 31.1229 39.8745 31.1227 39.2204 31.1199C38.9801 31.1195 38.7398 31.1202 38.4995 31.1221C38.1718 31.1246 37.8444 31.1229 37.5167 31.1201C37.3735 31.1226 37.3735 31.1226 37.2274 31.1252C36.7269 31.1161 36.5352 31.0649 36.1672 30.7147C35.957 30.3515 35.957 30.3515 35.957 29.9243C36.2483 29.0868 36.8395 29.0609 37.6412 29.0671Z" fill="#23586A"/>
    <path d="M37.6412 24.1452C37.7423 24.1444 37.8433 24.1436 37.9474 24.1427C38.2861 24.1404 38.6248 24.1411 38.9635 24.1417C39.2062 24.1407 39.449 24.1396 39.6918 24.1382C40.3514 24.1352 41.0109 24.1348 41.6705 24.1351C42.2209 24.1351 42.7714 24.1339 43.3218 24.1328C44.6202 24.1301 45.9186 24.1297 47.217 24.1307C48.557 24.1316 49.8969 24.1284 51.2369 24.1234C52.387 24.1192 53.537 24.1176 54.6871 24.1182C55.3742 24.1184 56.0612 24.1177 56.7483 24.1143C57.3943 24.1113 58.0403 24.1116 58.6864 24.1143C58.9235 24.1148 59.1607 24.1141 59.3979 24.1122C59.7216 24.1097 60.045 24.1114 60.3687 24.1142C60.4627 24.1125 60.5566 24.1108 60.6533 24.109C61.1704 24.1186 61.381 24.1947 61.7921 24.5196C62.0703 24.8828 62.0703 24.8828 62.0703 25.31C61.927 25.7221 61.8732 25.8647 61.5234 26.1132C61.1804 26.1541 60.8711 26.1698 60.528 26.1671C60.4258 26.168 60.3237 26.1688 60.2185 26.1697C59.8752 26.172 59.5321 26.1713 59.1888 26.1706C58.9432 26.1716 58.6975 26.1728 58.4518 26.1741C57.7838 26.1772 57.1157 26.1776 56.4477 26.1773C55.8905 26.1773 55.3332 26.1785 54.776 26.1796C53.4617 26.1822 52.1474 26.1826 50.833 26.1817C49.476 26.1808 48.1191 26.1839 46.7621 26.189C45.598 26.1932 44.4339 26.1948 43.2698 26.1942C42.5741 26.1939 41.8784 26.1947 41.1827 26.198C40.5286 26.2011 39.8745 26.2008 39.2204 26.198C38.9801 26.1976 38.7398 26.1983 38.4995 26.2002C38.1718 26.2027 37.8444 26.201 37.5167 26.1982C37.3735 26.2008 37.3735 26.2008 37.2274 26.2034C36.7269 26.1942 36.5352 26.143 36.1672 25.7928C35.957 25.4296 35.957 25.4296 35.957 25.0024C36.2483 24.1649 36.8395 24.139 37.6412 24.1452Z" fill="#23586A"/>
  </g>
  <defs>
    <clipPath id="clip0_38_9822">
      <rect width="70" height="70" fill="white"/>
    </clipPath>
  </defs>
</svg>