<svg xmlns="http://www.w3.org/2000/svg" width="70" height="70" viewBox="0 0 70 70" fill="none">
  <g clip-path="url(#clip0_38_9021)">
    <path d="M27.259 -0.0512988C27.3793 -0.0512699 27.4996 -0.051241 27.6235 -0.0512112C29.5818 -0.046524 31.4488 0.0949147 33.3601 0.546846C33.4745 0.572444 33.5889 0.598043 33.7068 0.624418C36.143 1.17554 38.409 2.10309 40.6062 3.28122C40.6908 3.32654 40.7754 3.37185 40.8626 3.41854C43.5677 4.88226 46.169 6.90583 48.1257 9.29685C48.273 9.47185 48.273 9.47185 48.4232 9.65039C53.2262 15.4141 55.367 22.6742 54.7309 30.1208C54.4749 32.702 53.8017 35.1685 52.9109 37.5976C52.8564 37.7485 52.802 37.8993 52.7458 38.0548C52.0623 39.8131 51.0291 41.4658 50.0398 43.0664C50.1695 43.072 50.2992 43.0777 50.4328 43.0835C51.9197 43.3106 53.0038 44.5846 54.0122 45.6009C54.1726 45.7605 54.3331 45.9201 54.4937 46.0795C54.9266 46.5099 55.3577 46.942 55.7885 47.3745C56.2413 47.8286 56.6954 48.2814 57.1493 48.7345C57.911 49.4952 58.6716 50.2571 59.4316 51.0197C60.308 51.8991 61.1863 52.7765 62.0657 53.6529C62.8231 54.4077 63.5794 55.1637 64.3348 55.9206C64.785 56.3716 65.2355 56.8222 65.6869 57.2718C66.1115 57.6948 66.5346 58.1191 66.9568 58.5444C67.1112 58.6995 67.2661 58.8541 67.4214 59.0083C68.9681 60.544 70.0276 62.0091 70.0605 64.2407C70.0505 65.7692 69.6526 66.9321 68.6335 68.0859C68.5602 68.1703 68.4869 68.2548 68.4114 68.3417C67.4675 69.3576 66.2813 69.9683 64.885 70.0507C62.7896 70.1044 61.3502 69.599 59.8 68.1661C59.3807 67.7592 58.9658 67.3482 58.5523 66.9355C58.3932 66.7777 58.2341 66.6199 58.075 66.4622C57.6452 66.0361 57.2164 65.609 56.7878 65.1816C56.5194 64.914 56.2508 64.6466 55.9822 64.3792C55.1401 63.5408 54.2985 62.7018 53.4577 61.8621C52.4903 60.896 51.5212 59.9317 50.5506 58.969C49.798 58.2223 49.047 57.474 48.2972 56.7246C47.8504 56.278 47.4029 55.8322 46.9538 55.388C46.5311 54.9699 46.1105 54.5498 45.6913 54.1282C45.538 53.9747 45.3841 53.8219 45.2294 53.6699C44.2736 52.73 43.616 51.8232 43.0671 50.5859C42.9769 50.4506 42.8867 50.3152 42.7937 50.1758C42.671 50.2519 42.5484 50.328 42.422 50.4065C35.8644 54.4362 28.2748 55.866 20.7382 54.0669C17.5625 53.2679 14.415 51.9792 11.7585 50.039C11.6634 49.9697 11.5682 49.9004 11.4702 49.829C11.1574 49.5991 10.8466 49.3669 10.5366 49.1333C10.3933 49.0253 10.3933 49.0253 10.2471 48.9151C9.68991 48.4857 9.18433 48.032 8.69711 47.5243C8.46722 47.2946 8.22535 47.0906 7.97313 46.886C3.76946 43.2433 1.18298 37.3763 0.274155 31.9922C0.25001 31.8569 0.225866 31.7215 0.200989 31.5821C-0.0247773 30.1965 -0.053815 28.8305 -0.0505519 27.4292C-0.0504776 27.3088 -0.0504032 27.1884 -0.0503266 27.0644C-0.0447863 25.109 0.0772873 23.2337 0.547593 21.3281C0.578346 21.2034 0.6091 21.0787 0.640786 20.9502C0.854666 20.1095 1.10039 19.282 1.36791 18.457C1.41271 18.3156 1.41271 18.3156 1.45843 18.1714C2.70099 14.3233 5.04198 10.9778 7.79369 8.06638C7.90348 7.94918 8.01328 7.83198 8.1264 7.71123C9.60293 6.18136 11.3318 4.95742 13.1257 3.8281C13.2292 3.76265 13.3326 3.69719 13.4392 3.62976C14.2614 3.12187 15.1007 2.70499 15.9883 2.32419C16.1249 2.26539 16.2615 2.20659 16.4023 2.14601C18.4315 1.28881 20.5271 0.662864 22.696 0.273408C22.8303 0.249065 22.9646 0.224722 23.103 0.199642C24.4894 -0.0261154 25.857 -0.0544158 27.259 -0.0512988ZM13.0403 12.9284C12.9331 13.0384 12.826 13.1484 12.7156 13.2617C12.6378 13.3332 12.5601 13.4048 12.48 13.4785C8.79382 16.9522 7.12646 22.3227 6.97871 27.2497C6.88766 32.9684 9.35213 38.0501 13.2624 42.1093C16.2886 45.1505 20.2912 46.8911 24.4734 47.5781C24.6184 47.6045 24.7635 47.631 24.9129 47.6582C30.7214 48.2936 36.0863 46.5468 40.6062 42.9297C41.4568 42.2157 42.2314 41.4683 42.9304 40.6054C43.0342 40.4794 43.138 40.3534 43.245 40.2236C45.0629 37.9711 46.2616 35.4859 47.0747 32.7185C47.1079 32.6066 47.141 32.4947 47.1752 32.3795C47.6289 30.7568 47.766 29.126 47.7583 27.4463C47.7577 27.2735 47.7571 27.1008 47.7565 26.9228C47.7402 25.5665 47.6127 24.288 47.3054 22.9687C47.2689 22.7994 47.2324 22.63 47.1949 22.4555C45.9231 17.1256 42.422 12.7954 37.8857 9.86081C29.9474 4.98911 19.5947 6.53009 13.0403 12.9284Z" fill="#23586A"/>
  </g>
  <defs>
    <clipPath id="clip0_38_9021">
      <rect width="70" height="70" fill="white"/>
    </clipPath>
  </defs>
</svg>