<svg xmlns="http://www.w3.org/2000/svg" width="40" height="40" viewBox="0 0 40 40" fill="none">
  <path fill-rule="evenodd" clip-rule="evenodd" d="M15.7157 14.9483H21.9056V18.0316C22.7973 16.2583 25.084 14.6649 28.519 14.6649C35.104 14.6649 36.6673 18.1949 36.6673 24.6716V36.6666H30.0007V26.1466C30.0007 22.4583 29.109 20.3783 26.839 20.3783C23.6907 20.3783 22.3823 22.6199 22.3823 26.1449V36.6666H15.7157V14.9483ZM4.28398 36.3833H10.9507V14.6649H4.28398V36.3833ZM11.9057 7.58325C11.9059 8.14205 11.7951 8.69531 11.5796 9.2109C11.3642 9.72649 11.0484 10.1941 10.6507 10.5866C10.2517 10.9834 9.77849 11.2978 9.25802 11.5117C8.73755 11.7256 8.18003 11.8349 7.61732 11.8333C6.48332 11.8307 5.39551 11.3837 4.58732 10.5883C4.19115 10.1943 3.87654 9.72616 3.66148 9.21053C3.44642 8.69491 3.33513 8.14193 3.33398 7.58325C3.33398 6.45492 3.78398 5.37492 4.58898 4.57825C5.39515 3.77972 6.48428 3.33221 7.61898 3.33325C8.75565 3.33325 9.84565 3.78159 10.6507 4.57825C11.4557 5.37492 11.9057 6.45492 11.9057 7.58325Z" fill="#23586A"/>
</svg>