<svg xmlns="http://www.w3.org/2000/svg" width="32" height="32" viewBox="0 0 32 32" fill="none">
  <path d="M17.8996 13.7993C17.8996 14.7329 17.5414 15.6282 16.9038 16.2883C16.2661 16.9484 15.4013 17.3193 14.4996 17.3193C13.5979 17.3193 12.7331 16.9484 12.0954 16.2883C11.4578 15.6282 11.0996 14.7329 11.0996 13.7993C11.0996 12.8657 11.4578 11.9704 12.0954 11.3103C12.7331 10.6502 13.5979 10.2793 14.4996 10.2793C15.4013 10.2793 16.2661 10.6502 16.9038 11.3103C17.5414 11.9704 17.8996 12.8657 17.8996 13.7993Z" stroke="#23586A" stroke-linecap="round" stroke-linejoin="round"/>
  <path d="M23 13.8C23 22.1799 14.5 27 14.5 27C14.5 27 6 22.1799 6 13.8C6 11.4661 6.89553 9.22778 8.48959 7.57746C10.0837 5.92714 12.2457 5 14.5 5C16.7543 5 18.9163 5.92714 20.5104 7.57746C22.1045 9.22778 23 11.4661 23 13.8Z" stroke="#23586A" stroke-linecap="round" stroke-linejoin="round"/>
</svg>