<svg xmlns="http://www.w3.org/2000/svg" width="70" height="70" viewBox="0 0 70 70" fill="none">
  <path d="M34.9138 2.01664C35.012 2.01654 35.1102 2.01645 35.2113 2.01636C36.6845 2.01856 38.0798 2.08064 39.511 2.46097C39.6002 2.48443 39.6894 2.5079 39.7813 2.53207C44.608 3.83324 48.6036 6.83295 51.1321 11.1597C51.9455 12.5976 52.5906 14.0655 53.0205 15.6629C53.0471 15.7611 53.0738 15.8593 53.1012 15.9604C53.5484 17.7383 53.6327 19.5059 53.6197 21.3276C53.6192 21.5423 53.6188 21.757 53.6185 21.9717C53.6175 22.5294 53.6148 23.087 53.6118 23.6446C53.609 24.2166 53.6077 24.7886 53.6064 25.3606C53.6035 26.4774 53.5988 27.5942 53.593 28.711C53.7247 28.7285 53.8563 28.746 53.9919 28.764C54.1645 28.7876 54.3371 28.8113 54.5149 28.8356C54.686 28.8588 54.8571 28.8819 55.0335 28.9058C56.4791 29.1458 57.7747 30.0087 58.6516 31.1719C59.4278 32.4427 59.7877 33.6495 59.7819 35.1262C59.7825 35.2443 59.7832 35.3623 59.7838 35.4839C59.7855 35.8769 59.7853 36.2699 59.7851 36.6629C59.7859 36.9458 59.7868 37.2286 59.7879 37.5114C59.7903 38.2781 59.7909 39.0448 59.7911 39.8114C59.7913 40.291 59.7919 40.7706 59.7926 41.2502C59.7951 42.925 59.7962 44.5998 59.796 46.2746C59.7959 47.833 59.7987 49.3913 59.8031 50.9496C59.8066 52.2898 59.8081 53.63 59.8079 54.9702C59.8079 55.7696 59.8086 56.569 59.8115 57.3684C59.8142 58.1208 59.8142 58.8732 59.8122 59.6257C59.8119 59.9007 59.8126 60.1758 59.8142 60.4508C59.8271 62.7275 59.6188 64.5719 57.9846 66.3081C56.5989 67.6098 55.0596 67.991 53.2142 67.9858C53.0527 67.9864 52.8911 67.9871 52.7246 67.9877C52.2779 67.9891 51.8312 67.9893 51.3845 67.989C50.902 67.989 50.4195 67.9905 49.937 67.9918C48.9922 67.994 48.0475 67.9948 47.1028 67.9949C46.3345 67.9951 45.5662 67.9956 44.7979 67.9965C42.6179 67.9989 40.4378 68.0002 38.2577 68C38.1402 67.9999 38.0228 67.9999 37.9018 67.9999C37.7254 67.9999 37.7254 67.9999 37.5454 67.9999C35.6404 67.9998 33.7355 68.0024 31.8306 68.0062C29.8728 68.0102 27.915 68.0121 25.9572 68.0118C24.8588 68.0117 23.7604 68.0125 22.662 68.0154C21.7266 68.0179 20.7912 68.0185 19.8558 68.0167C19.379 68.0158 18.9023 68.0157 18.4255 68.0181C17.9074 68.0202 17.3893 68.019 16.8711 68.0169C16.7223 68.0183 16.5734 68.0197 16.4201 68.0211C14.644 68.0053 13.1871 67.4035 11.8938 66.1885C10.6955 64.9101 10.2099 63.3947 10.2166 61.6707C10.216 61.5527 10.2154 61.4347 10.2147 61.313C10.213 60.92 10.2132 60.527 10.2134 60.134C10.2126 59.8512 10.2117 59.5684 10.2107 59.2855C10.2083 58.5188 10.2076 57.7522 10.2074 56.9855C10.2072 56.5059 10.2067 56.0263 10.2059 55.5468C10.2034 53.8719 10.2023 52.1971 10.2025 50.5223C10.2027 48.964 10.1998 47.4056 10.1955 45.8473C10.1919 44.5071 10.1904 43.167 10.1906 41.8268C10.1907 41.0274 10.1899 40.228 10.187 39.4286C10.1843 38.6761 10.1843 37.9237 10.1863 37.1713C10.1866 36.8962 10.186 36.6212 10.1843 36.3461C10.1728 34.3149 10.2873 32.5461 11.6204 30.8985C11.6857 30.8146 11.7511 30.7307 11.8185 30.6443C12.7736 29.5568 14.0839 29.0236 15.4842 28.835C15.6567 28.8115 15.8292 28.7879 16.0069 28.7637C16.1385 28.7463 16.27 28.7289 16.4055 28.711C16.4046 28.5954 16.4037 28.4799 16.4028 28.3609C16.3944 27.2592 16.3882 26.1575 16.3843 25.0557C16.3821 24.4896 16.3793 23.9236 16.3746 23.3575C16.3255 17.2907 17.3413 11.9312 21.7194 7.39673C25.2514 3.84697 29.9327 2.02082 34.9138 2.01664ZM24.7454 10.5274C24.6134 10.6442 24.6134 10.6442 24.4789 10.7634C22.0626 12.96 21.0865 16.3148 20.6438 19.4141C20.6438 22.4821 20.6438 25.55 20.6438 28.711C30.1184 28.711 39.593 28.711 49.3547 28.711C49.751 18.4279 49.751 18.4279 45.0823 10.2967C42.2271 7.47154 38.5493 6.22621 34.5974 6.2394C30.7122 6.30102 27.4937 7.84912 24.7454 10.5274ZM14.8332 33.7012C14.4643 34.316 14.4712 34.8593 14.4713 35.5549C14.4708 35.6684 14.4703 35.782 14.4698 35.899C14.4683 36.281 14.4678 36.6629 14.4672 37.0448C14.4664 37.3181 14.4655 37.5914 14.4645 37.8647C14.4621 38.6082 14.4607 39.3517 14.4596 40.0952C14.4589 40.5595 14.458 41.0239 14.4572 41.4883C14.4546 42.9409 14.4526 44.3935 14.4515 45.8461C14.4502 47.5236 14.4466 49.201 14.441 50.8785C14.4369 52.1746 14.4349 53.4708 14.4344 54.7669C14.4341 55.5413 14.4329 56.3156 14.4294 57.0899C14.4263 57.8184 14.4257 58.5469 14.4271 59.2754C14.4272 59.5427 14.4263 59.8099 14.4244 60.0772C14.422 60.4424 14.423 60.8074 14.4248 61.1726C14.4233 61.2781 14.4218 61.3835 14.4202 61.4922C14.4291 62.2437 14.5862 62.693 15.0383 63.3008C15.7544 63.8395 16.5455 63.7688 17.4041 63.764C17.5605 63.7647 17.7168 63.7654 17.8779 63.7662C18.4022 63.7682 18.9264 63.7672 19.4507 63.7662C19.8264 63.7668 20.2021 63.7679 20.5778 63.7691C21.4926 63.7714 22.4074 63.7715 23.3223 63.7708C24.0659 63.7703 24.8094 63.7705 25.553 63.7712C25.7118 63.7713 25.7118 63.7713 25.8738 63.7715C26.0889 63.7717 26.3039 63.7719 26.519 63.7721C28.5354 63.774 30.5518 63.7733 32.5682 63.7717C34.4126 63.7703 36.257 63.7721 38.1014 63.7754C39.9957 63.7787 41.89 63.78 43.7843 63.7791C44.8476 63.7786 45.9109 63.7789 46.9742 63.7813C47.8794 63.7833 48.7845 63.7834 49.6897 63.781C50.1514 63.7799 50.6131 63.7799 51.0748 63.7817C51.5756 63.7835 52.0762 63.7819 52.577 63.7795C52.7226 63.7808 52.8682 63.7821 53.0182 63.7835C53.8729 63.775 54.4165 63.7005 55.0969 63.1641C55.539 62.535 55.5656 61.9382 55.5592 61.1918C55.5598 61.0778 55.5604 60.9638 55.5611 60.8463C55.5627 60.4653 55.5614 60.0844 55.5601 59.7034C55.5607 59.4298 55.5614 59.1563 55.5623 58.8827C55.5642 58.1404 55.5635 57.398 55.5622 56.6557C55.5611 55.8788 55.5621 55.1018 55.5627 54.3249C55.5635 53.0202 55.5625 51.7155 55.5605 50.4108C55.5583 48.9025 55.559 47.3941 55.5613 45.8858C55.5632 44.5907 55.5634 43.2956 55.5623 42.0005C55.5617 41.227 55.5616 40.4535 55.563 39.68C55.5642 38.9529 55.5633 38.2257 55.561 37.4985C55.5604 37.2317 55.5606 36.9648 55.5615 36.698C55.5626 36.3336 55.5612 35.9694 55.5592 35.6051C55.5601 35.4995 55.561 35.394 55.5619 35.2852C55.5548 34.6331 55.4461 34.1848 55.0969 33.6328C54.399 33.0715 53.8091 32.9326 52.9316 32.9313C52.8014 32.9308 52.6713 32.9302 52.5372 32.9297C52.3953 32.9298 52.2535 32.9299 52.1073 32.9301C51.9557 32.9296 51.8042 32.9292 51.648 32.9288C51.1391 32.9276 50.6302 32.9274 50.1212 32.9272C49.7568 32.9266 49.3923 32.9259 49.0278 32.9252C48.0369 32.9233 47.0459 32.9225 46.055 32.9219C45.436 32.9215 44.817 32.9209 44.198 32.9203C42.4836 32.9186 40.7691 32.9172 39.0547 32.9168C38.945 32.9167 38.8353 32.9167 38.7223 32.9167C38.5574 32.9166 38.5574 32.9166 38.3891 32.9166C38.1664 32.9165 37.9436 32.9165 37.7208 32.9164C37.6103 32.9164 37.4998 32.9163 37.386 32.9163C35.5956 32.9158 33.8054 32.9134 32.015 32.9102C30.1761 32.907 28.3371 32.9053 26.4981 32.9051C25.466 32.905 24.4338 32.9042 23.4017 32.9017C22.5228 32.8996 21.6438 32.8989 20.7649 32.9C20.3167 32.9006 19.8686 32.9002 19.4204 32.8985C18.9338 32.8968 18.4473 32.8976 17.9607 32.899C17.82 32.8979 17.6794 32.8968 17.5345 32.8957C16.5416 32.9025 15.5634 32.971 14.8332 33.7012Z" fill="#23586A"/>
  <path d="M38.538 40.05C39.8625 40.9897 40.7018 42.2001 41.1528 43.75C41.4439 45.8419 41.1828 47.6658 39.8881 49.3982C39.1301 50.139 38.2711 50.6662 37.3247 51.1328C37.3227 51.2672 37.3207 51.4015 37.3186 51.54C37.3106 52.0438 37.3001 52.5475 37.2888 53.0512C37.2843 53.2683 37.2804 53.4853 37.2773 53.7024C37.2351 56.5544 37.2351 56.5544 36.436 57.3535C35.7527 57.7635 35.0941 57.7802 34.3169 57.6953C33.7967 57.5177 33.4415 57.2547 33.1035 56.8152C32.7999 56.1236 32.8036 55.4704 32.8226 54.7265C32.8241 54.5206 32.8251 54.3147 32.8258 54.1088C32.8268 53.7866 32.8301 53.4652 32.8406 53.1432C32.8619 52.4465 32.8592 51.8087 32.6762 51.1328C32.2238 50.6966 31.7586 50.5161 31.1723 50.3125C29.8017 49.3636 29.1248 47.9107 28.7456 46.3306C28.584 44.473 28.9449 42.8007 30.0786 41.2891C32.2774 38.8459 35.7336 38.2795 38.538 40.05ZM33.4965 43.8867C33.129 44.3683 32.9859 44.7864 32.9497 45.3906C33.0823 46.1466 33.3114 46.5467 33.9067 47.0312C34.525 47.4091 35.1386 47.318 35.8208 47.168C36.3937 46.9189 36.6518 46.6391 36.9145 46.0742C37.1517 45.3288 36.9827 44.7067 36.6411 44.0234C35.9976 43.3957 35.5379 43.2913 34.6645 43.3014C34.1539 43.3579 33.874 43.5461 33.4965 43.8867Z" fill="#23586A"/>
</svg>