<svg xmlns="http://www.w3.org/2000/svg" width="48" height="48" viewBox="0 0 48 48" fill="none">
  <g clip-path="url(#clip0_126_115)">
    <path d="M24.4695 3.61726e-05C25.7961 0.566271 26.952 1.4543 28.0038 2.42728C28.1981 2.60538 28.3975 2.77337 28.6004 2.94144C29.0656 3.34793 29.4334 3.82774 29.8133 4.31254C29.8888 4.40426 29.9643 4.49599 30.0421 4.59049C31.6663 6.60612 32.6954 9.11387 33.2117 11.6368C33.2259 11.7059 33.24 11.7751 33.2546 11.8464C33.5251 13.2666 33.598 14.6708 33.5926 16.1133C33.5925 16.2012 33.5924 16.289 33.5923 16.3795C33.5891 17.9784 33.5373 19.5876 33.1886 21.1546C33.1181 21.486 33.0595 21.7843 33.0945 22.125C33.3542 22.491 33.6684 22.7133 34.032 22.9688C34.1915 23.1217 34.3478 23.278 34.5008 23.4375C34.5727 23.5097 34.6446 23.5818 34.7186 23.6562C36.1989 25.2098 37.119 27.1731 37.5945 29.25C37.6176 29.3462 37.6407 29.4424 37.6644 29.5415C38.2555 32.558 37.5193 35.888 35.8363 38.432C35.3003 39.1619 35.3003 39.1619 34.8289 39.2461C34.4042 39.1703 34.2971 39.0573 34.032 38.7188C33.9377 38.423 33.8985 38.1234 33.8562 37.8164C33.475 35.4963 32.4082 33.5458 30.7508 31.875C30.6579 31.8132 30.5651 31.7513 30.4695 31.6875C30.4483 31.7414 30.427 31.7952 30.4051 31.8507C30.3077 32.0972 30.2099 32.3435 30.1121 32.5899C30.0787 32.6746 30.0453 32.7593 30.0108 32.8466C29.4979 34.136 29.4979 34.136 29.0633 34.4063C28.8574 34.4419 28.8574 34.4419 28.6298 34.4426C28.4999 34.444 28.4999 34.444 28.3674 34.4454C28.273 34.445 28.1787 34.4446 28.0815 34.4442C27.9316 34.4451 27.9316 34.4451 27.7788 34.4461C27.4483 34.4478 27.1178 34.4475 26.7873 34.4469C26.5577 34.4474 26.3282 34.4479 26.0986 34.4484C25.6173 34.4493 25.136 34.449 24.6547 34.4481C24.0377 34.447 23.4206 34.4489 22.8036 34.4517C22.3295 34.4534 21.8554 34.4534 21.3813 34.4528C21.1537 34.4528 20.9262 34.4534 20.6987 34.4545C20.3807 34.4559 20.0627 34.4549 19.7447 34.4533C19.6505 34.4542 19.5564 34.4551 19.4594 34.4561C19.0493 34.4517 18.8163 34.4467 18.4612 34.2278C18.2823 34.0316 18.1885 33.8871 18.0993 33.6387C18.072 33.5655 18.0448 33.4922 18.0167 33.4168C17.9902 33.3411 17.9636 33.2655 17.9363 33.1875C17.8814 33.0371 17.8263 32.8867 17.7711 32.7364C17.7476 32.67 17.7241 32.6037 17.6998 32.5353C17.624 32.3394 17.5351 32.1551 17.4383 31.9688C17.2792 32.1227 17.1238 32.2789 16.9695 32.4375C16.9059 32.5026 16.8424 32.5676 16.7769 32.6346C15.2739 34.2311 14.4433 36.2779 14.157 38.4317C14.1048 38.7741 14.0796 38.8857 13.8582 39.1641C13.5168 39.3158 13.3081 39.3407 12.9383 39.2813C11.4021 37.9365 10.4675 35.1926 10.3238 33.2022C10.1367 29.6232 10.9847 26.3658 13.4019 23.6415C13.5877 23.4407 13.7794 23.2619 13.9922 23.09C14.493 22.7184 14.493 22.7184 14.7726 22.1888C14.751 21.9079 14.6898 21.6497 14.6258 21.375C14.5876 21.134 14.554 20.8926 14.5209 20.6508C14.4977 20.4819 14.4735 20.3132 14.4483 20.1446C14.3116 19.2309 14.2363 18.3233 14.2284 17.3995C14.2275 17.3099 14.2266 17.2204 14.2256 17.1281C14.204 14.4691 14.3461 12.0122 15.1883 9.46879C15.2087 9.40457 15.2292 9.34035 15.2503 9.27419C15.8013 7.56658 16.6829 5.89431 17.8133 4.50004C17.8593 4.44309 17.9053 4.38614 17.9527 4.32746C19.1895 2.81478 22.2666 -0.677569 24.4695 3.61726e-05ZM20.3054 4.34824C19.5438 5.09479 19.5438 5.09479 19.032 6.00004C22.3114 6.00004 25.5908 6.00004 28.9695 6.00004C28.663 5.44826 28.663 5.44826 28.2898 4.98453C28.2334 4.92376 28.1769 4.86299 28.1188 4.80037C28.0592 4.738 27.9996 4.67563 27.9383 4.61136C27.8758 4.54561 27.8133 4.47985 27.7489 4.4121C26.7059 3.32939 25.4745 2.31317 24.0945 1.68754C22.8532 1.68754 21.1339 3.5346 20.3054 4.34824ZM17.7195 7.59379C16.6456 9.98015 15.8458 12.3241 15.8222 14.9532C15.8213 15.0377 15.8204 15.1222 15.8194 15.2093C15.8171 15.4833 15.8159 15.7573 15.8152 16.0313C15.8149 16.1247 15.8147 16.2182 15.8144 16.3145C15.8135 17.5498 15.8544 18.7667 16.0144 19.9922C16.0299 20.1117 16.0454 20.2313 16.0614 20.3544C16.1385 20.8878 16.2383 21.3838 16.4222 21.8899C16.6114 22.4561 16.7356 23.0451 16.8758 23.625C17.546 26.4199 17.546 26.4199 18.3881 29.1664C18.537 29.6034 18.6672 30.0184 18.7332 30.4757C18.8943 31.2796 19.2173 32.0432 19.5008 32.8125C22.3779 32.8125 25.2551 32.8125 28.2195 32.8125C29.8451 29.155 30.9576 25.1378 31.5945 21.1875C31.6129 21.074 31.6313 20.9605 31.6502 20.8436C32.3694 16.2201 32.0406 11.8752 30.0945 7.59379C26.0108 7.59379 21.927 7.59379 17.7195 7.59379ZM32.7195 24C32.5898 24.3783 32.4766 24.7567 32.376 25.1437C32.3466 25.256 32.3171 25.3682 32.2868 25.4839C32.2556 25.6033 32.2243 25.7227 32.1922 25.8457C31.8337 27.208 31.4409 28.5582 31.032 29.9063C31.2853 30.1614 31.5405 30.4137 31.8007 30.6618C32.5522 31.3855 33.1797 32.1276 33.7508 33C33.8022 33.0742 33.8537 33.1484 33.9068 33.2249C34.3879 33.9581 34.6718 34.7971 34.982 35.6127C35.0623 35.8101 35.1529 35.9984 35.2508 36.1875C36.4142 33.4107 36.5568 30.5167 35.4328 27.7039C34.8454 26.305 33.9348 25.024 32.8133 24C32.7823 24 32.7514 24 32.7195 24ZM14.7136 24.627C12.7967 26.5992 11.8532 29.3288 11.8739 32.0466C11.9104 33.544 12.2806 34.8987 12.8445 36.2813C13.0119 36.0302 13.1038 35.8104 13.2008 35.5277C13.663 34.1907 14.3358 32.9323 15.282 31.875C15.3505 31.7954 15.419 31.7158 15.4896 31.6337C15.8796 31.1878 16.2667 30.7998 16.7505 30.456C16.9038 30.2791 16.9038 30.2791 16.8695 30.0011C16.7703 29.5059 16.6028 29.0268 16.448 28.5469C16.0032 27.139 15.6395 25.7134 15.282 24.2813C14.9997 24.2813 14.9124 24.4317 14.7136 24.627Z" fill="#23586A"/>
    <path d="M26.5312 14.1561C27.4052 14.9551 27.8002 15.8213 27.9229 16.9924C27.969 18.0982 27.637 19.0026 26.9355 19.8514C26.1406 20.6956 25.1593 21.0956 24.0117 21.1347C22.9253 21.1075 21.9867 20.7296 21.1937 19.9862C20.3971 19.1365 20.1107 18.2187 20.0625 17.0624C20.1152 15.9575 20.5546 15.0818 21.3058 14.2814C22.8242 12.986 24.9502 12.971 26.5312 14.1561ZM22.2188 15.7499C22.1511 15.8311 22.0834 15.9123 22.0137 15.996C21.6995 16.581 21.5816 17.1789 21.7441 17.83C22.0165 18.5846 22.5403 19.065 23.25 19.4061C23.802 19.5901 24.3676 19.5704 24.9082 19.3534C25.4658 19.0731 25.8468 18.6922 26.1445 18.1464C26.3872 17.3779 26.3638 16.8687 26.0625 16.1249C25.7598 15.552 25.3443 15.2397 24.7676 14.9706C23.7682 14.755 22.8918 14.9422 22.2188 15.7499Z" fill="#23586A"/>
    <path d="M27.7961 37.3477C28.2128 37.4221 28.3298 37.5485 28.593 37.875C28.6506 38.1673 28.6506 38.1673 28.6492 38.4989C28.6496 38.5596 28.6499 38.6203 28.6503 38.6829C28.6509 38.8825 28.6482 39.082 28.6454 39.2816C28.645 39.4209 28.6447 39.5601 28.6447 39.6994C28.6441 39.9908 28.642 40.2821 28.6387 40.5734C28.6344 40.9466 28.633 41.3196 28.6327 41.6928C28.6323 41.9802 28.6308 42.2675 28.629 42.5549C28.6282 42.6925 28.6276 42.8301 28.6271 42.9677C28.6263 43.16 28.6242 43.3522 28.6217 43.5445C28.6202 43.7085 28.6202 43.7085 28.6187 43.8758C28.5937 44.1483 28.553 44.3039 28.4055 44.5312C28.1585 44.7234 28.0199 44.7186 27.7024 44.7129C27.3017 44.6056 27.2187 44.5017 26.9992 44.1562C26.951 43.8646 26.951 43.8646 26.9492 43.5339C26.9484 43.4733 26.9476 43.4127 26.9468 43.3503C26.9447 43.1511 26.9453 42.9521 26.9461 42.7529C26.9457 42.6139 26.9451 42.4749 26.9444 42.3358C26.9434 42.0449 26.9438 41.754 26.9452 41.463C26.9468 41.0907 26.9446 40.7185 26.9413 40.3461C26.9393 40.0592 26.9394 39.7722 26.9402 39.4852C26.9402 39.348 26.9396 39.2107 26.9382 39.0735C26.9366 38.8814 26.938 38.6895 26.9401 38.4974C26.9402 38.3882 26.9403 38.2791 26.9404 38.1667C27.0401 37.6725 27.3074 37.4349 27.7961 37.3477Z" fill="#23586A"/>
    <path d="M20.2022 37.3477C20.6188 37.4221 20.7357 37.5487 20.999 37.875C21.0579 38.1667 21.0579 38.1667 21.0582 38.4974C21.0589 38.558 21.0595 38.6185 21.0602 38.681C21.0618 38.8801 21.06 39.0791 21.058 39.2783C21.0581 39.4174 21.0583 39.5564 21.0587 39.6954C21.059 39.9864 21.0576 40.2773 21.055 40.5683C21.0518 40.9406 21.0524 41.3128 21.0541 41.6851C21.0551 41.9721 21.0543 42.259 21.0529 42.546C21.0524 42.6833 21.0524 42.8205 21.053 42.9578C21.0535 43.1499 21.0516 43.3418 21.049 43.5339C21.0485 43.643 21.0479 43.7521 21.0473 43.8646C20.9887 44.219 20.8788 44.3751 20.624 44.625C20.2986 44.7122 20.0758 44.7509 19.751 44.6543C19.5531 44.5003 19.4972 44.3903 19.4053 44.1562C19.3796 43.8758 19.3796 43.8758 19.3766 43.5445C19.3758 43.484 19.375 43.4234 19.3742 43.361C19.3719 43.1613 19.3711 42.9617 19.3705 42.7621C19.3697 42.6229 19.3688 42.4837 19.3679 42.3446C19.3664 42.0531 19.3657 41.7616 19.3654 41.4701C19.3649 41.097 19.3614 40.724 19.3571 40.351C19.3543 40.0636 19.3536 39.7763 19.3535 39.4889C19.3531 39.3514 19.352 39.2139 19.35 39.0764C19.3475 38.8838 19.3479 38.6914 19.3491 38.4989C19.3486 38.3894 19.3481 38.28 19.3477 38.1673C19.4453 37.6722 19.7132 37.435 20.2022 37.3477Z" fill="#23586A"/>
    <path d="M24.282 40.6876C24.5304 40.8374 24.5304 40.8374 24.7508 41.0626C24.809 41.3585 24.809 41.3585 24.8084 41.7117C24.809 41.7762 24.8095 41.8407 24.81 41.9072C24.8111 42.12 24.8089 42.3326 24.8064 42.5454C24.8063 42.6934 24.8063 42.8414 24.8064 42.9894C24.8063 43.2994 24.8045 43.6093 24.8016 43.9193C24.7979 44.3167 24.7975 44.7141 24.7982 45.1115C24.7984 45.4171 24.7973 45.7226 24.7957 46.0281C24.795 46.1747 24.7948 46.3213 24.7948 46.4678C24.7947 46.6725 24.7927 46.8771 24.7901 47.0818C24.789 47.2565 24.789 47.2565 24.7877 47.4348C24.7508 47.7188 24.7508 47.7188 24.6216 47.8969C24.4099 48.0405 24.2547 48.0375 24.0008 48.0352C23.879 48.0363 23.879 48.0363 23.7547 48.0374C23.4788 47.9911 23.4143 47.9443 23.2508 47.7188C23.2138 47.4348 23.2138 47.4348 23.2114 47.0818C23.2106 47.0175 23.2098 46.9531 23.209 46.8868C23.2068 46.674 23.2067 46.4613 23.2068 46.2485C23.2062 46.1005 23.2054 45.9526 23.2047 45.8047C23.2034 45.4946 23.2033 45.1845 23.2038 44.8743C23.2044 44.477 23.2015 44.0797 23.1977 43.6824C23.1953 43.3768 23.195 43.0713 23.1953 42.7658C23.1952 42.6193 23.1943 42.4728 23.1926 42.3263C23.1905 42.1214 23.1914 41.9166 23.1931 41.7117C23.1929 41.5951 23.1927 41.4786 23.1925 41.3585C23.2508 41.0626 23.2508 41.0626 23.4712 40.8374C23.777 40.6529 23.9304 40.629 24.282 40.6876Z" fill="#23586A"/>
  </g>
  <defs>
    <clipPath id="clip0_126_115">
      <rect width="48" height="48" fill="white"/>
    </clipPath>
  </defs>
</svg>