<svg xmlns="http://www.w3.org/2000/svg" width="48" height="48" viewBox="0 0 48 48" fill="none">
  <g clip-path="url(#clip0_126_1776)">
    <path d="M37.7814 6.18743C37.8326 6.23287 37.8839 6.27831 37.9366 6.32512C41.6882 9.66659 44.1862 14.4709 44.6252 19.4999C44.6264 19.6271 44.6258 19.7544 44.623 19.8815C44.6194 20.2185 44.6211 20.4897 44.7189 20.8124C44.9768 21.0605 45.2373 21.2208 45.5491 21.3954C46.5784 21.9785 47.1267 23.0124 47.4537 24.1125C47.5991 24.7786 47.5851 25.445 47.5812 26.124C47.5815 26.2811 47.5818 26.4383 47.5823 26.5955C47.5829 26.923 47.5821 27.2504 47.5803 27.5779C47.5782 27.9942 47.5794 28.4105 47.5816 28.8269C47.583 29.1508 47.5826 29.4748 47.5816 29.7988C47.5814 29.9522 47.5816 30.1056 47.5825 30.2589C47.5897 31.8447 47.259 33.1511 46.1427 34.3417C45.8643 34.6121 45.6174 34.745 45.2624 34.8943C45.0053 35.0312 45.0053 35.0312 44.8127 35.2499C44.6846 35.7613 44.7065 36.2612 44.7248 36.7851C44.73 37.0612 44.7326 37.3373 44.7339 37.6135C44.7347 37.7159 44.7347 37.7159 44.7355 37.8204C44.7281 39.7753 43.9803 41.4784 42.6326 42.8752C41.2755 44.1425 39.6366 44.7606 37.7942 44.7278C37.6029 44.7275 37.4115 44.7273 37.2202 44.7273C36.9222 44.7265 36.6245 44.7245 36.3265 44.719C36.0363 44.7142 35.7466 44.7147 35.4563 44.7161C35.3674 44.7132 35.2784 44.7103 35.1867 44.7074C34.9315 44.7111 34.739 44.7216 34.5002 44.8124C34.282 45.0711 34.1623 45.3468 34.0314 45.6562C33.353 46.5382 32.4763 46.8941 31.4064 47.0624C31.1073 47.0859 30.8103 47.0888 30.5103 47.0873C30.4288 47.0875 30.3472 47.0877 30.2632 47.0879C30.0922 47.088 29.9211 47.0877 29.7501 47.0869C29.4913 47.0859 29.2326 47.0869 28.9739 47.0881C27.5195 47.0893 26.3024 47.0215 25.1779 45.9986C24.5464 45.3308 24.273 44.5019 24.2463 43.5937C24.277 42.5924 24.6136 41.796 25.2988 41.0646C25.9679 40.4382 26.7299 40.1174 27.6477 40.1098C27.7811 40.1085 27.7811 40.1085 27.9171 40.1071C28.0122 40.1067 28.1074 40.1063 28.2054 40.1059C28.354 40.1051 28.354 40.1051 28.5056 40.1043C28.7151 40.1034 28.9247 40.1028 29.1342 40.1024C29.4525 40.1015 29.7707 40.0986 30.089 40.0956C30.2931 40.095 30.4973 40.0945 30.7015 40.0942C30.7956 40.093 30.8898 40.0919 30.9868 40.0907C32.0682 40.094 32.9769 40.3885 33.7546 41.1587C34.4064 41.882 34.4064 41.882 34.4064 42.3749C34.9867 42.3708 35.5669 42.3642 36.1471 42.3555C36.344 42.3528 36.5409 42.3508 36.7379 42.3495C38.3902 42.3377 39.7006 42.2071 40.9927 41.0628C42.1224 39.8946 42.3034 38.4794 42.34 36.9316C42.3436 36.8044 42.3473 36.6773 42.351 36.5502C42.3598 36.2418 42.3678 35.9334 42.3752 35.6249C42.3193 35.6205 42.2634 35.616 42.2058 35.6114C41.3624 35.5332 40.7627 35.217 40.1786 34.5962C39.5622 33.8004 39.455 33.0315 39.4538 32.058C39.4533 31.9634 39.4529 31.8688 39.4524 31.7714C39.451 31.4588 39.4504 31.1463 39.4499 30.8338C39.4493 30.616 39.4488 30.3982 39.4483 30.1804C39.4473 29.7237 39.4467 29.2671 39.4464 28.8104C39.4459 28.2267 39.4436 27.643 39.441 27.0593C39.4392 26.6093 39.4387 26.1593 39.4386 25.7093C39.4383 25.4942 39.4376 25.2791 39.4363 25.064C39.4347 24.7622 39.4349 24.4605 39.4355 24.1588C39.4346 24.0709 39.4338 23.9829 39.4329 23.8923C39.4395 22.8359 39.7399 22.0751 40.4621 21.3105C40.9658 20.8353 41.585 20.5312 42.2814 20.5312C41.8785 17.0981 40.9602 13.8895 38.9064 11.0624C38.8687 11.0102 38.8311 10.9579 38.7923 10.9041C37.0621 8.525 34.8643 6.68541 32.2502 5.34368C32.1927 5.31353 32.1352 5.28337 32.0759 5.25231C29.4872 3.90667 26.3559 3.20908 23.4377 3.37493C23.3684 3.37878 23.2991 3.38263 23.2277 3.3866C19.9345 3.58617 16.7185 4.51723 13.9689 6.37493C13.9152 6.41117 13.8615 6.44741 13.8061 6.48475C13.1405 6.93729 12.5167 7.41194 11.9273 7.96209C11.7394 8.13708 11.5467 8.30207 11.3498 8.46673C7.90691 11.4964 6.15819 16.0691 5.71892 20.5312C5.89004 20.5471 5.89004 20.5471 6.06462 20.5634C6.89019 20.6681 7.48573 21.1995 8.00408 21.8213C8.51498 22.5251 8.54554 23.2583 8.54653 24.0981C8.54722 24.24 8.54722 24.24 8.54794 24.3847C8.5493 24.6973 8.54994 25.0098 8.55046 25.3223C8.551 25.5401 8.55154 25.7579 8.55208 25.9757C8.55307 26.4324 8.55362 26.8891 8.55394 27.3457C8.55446 27.9294 8.55671 28.5131 8.55938 29.0968C8.56113 29.5468 8.56161 29.9968 8.56176 30.4468C8.56204 30.6619 8.56279 30.877 8.56402 31.0921C8.56563 31.3939 8.56544 31.6956 8.56484 31.9973C8.5657 32.0853 8.56656 32.1732 8.56746 32.2638C8.56078 33.3309 8.25624 34.1119 7.50749 34.8698C6.78473 35.5393 6.04896 35.7516 5.07146 35.7385C3.66503 35.6426 2.55484 35.0462 1.59392 34.0312C0.835622 33.1203 0.46116 32.1731 0.452327 30.9909C0.451711 30.9224 0.451096 30.8539 0.450461 30.7833C0.448619 30.5573 0.447518 30.3314 0.446582 30.1054C0.4462 30.0277 0.445817 29.95 0.445423 29.87C0.44347 29.4583 0.44213 29.0465 0.441249 28.6348C0.440216 28.2126 0.436994 27.7904 0.433264 27.3681C0.430795 27.0409 0.430026 26.7137 0.42969 26.3865C0.429238 26.231 0.42816 26.0756 0.426406 25.9201C0.409561 24.3271 0.729546 23.0183 1.85173 21.8202C2.06967 21.604 2.23813 21.474 2.52043 21.3493C2.84849 21.2011 3.04466 21.0865 3.28142 20.8124C3.42158 20.3342 3.41373 19.8283 3.43486 19.3337C3.53825 17.0197 4.35418 14.7282 5.34392 12.6562C5.39577 12.5439 5.44761 12.4316 5.50103 12.316C6.32374 10.59 7.46413 9.04493 8.76909 7.65484C8.95287 7.45708 9.12772 7.25717 9.299 7.04876C9.60325 6.6902 9.95314 6.39532 10.3127 6.09368C10.3936 6.02322 10.4746 5.95277 10.558 5.88018C11.75 4.85778 13.0464 4.00732 14.4377 3.28118C14.5032 3.24665 14.5687 3.21211 14.6362 3.17653C16.4763 2.21908 18.4845 1.55426 20.5314 1.21868C20.6509 1.19886 20.7705 1.17904 20.8936 1.15862C26.9924 0.257 33.1894 2.08414 37.7814 6.18743ZM3.39641 23.6491C2.75339 24.441 2.75553 25.2758 2.75957 26.2554C2.75908 26.4012 2.75849 26.547 2.75781 26.6928C2.75684 26.9972 2.75726 27.3015 2.75863 27.6059C2.76024 27.9938 2.75804 28.3815 2.75474 28.7693C2.75267 29.07 2.75282 29.3708 2.7536 29.6715C2.75367 29.8144 2.75304 29.9573 2.75165 30.1001C2.74304 31.1436 2.88732 31.8976 3.57439 32.707C4.04927 33.1465 4.65312 33.334 5.28533 33.4159C5.58456 33.3661 5.76087 33.2798 6.00017 33.0937C6.16133 32.8292 6.21116 32.6316 6.21148 32.3238C6.21227 32.2067 6.21227 32.2067 6.21308 32.0872C6.2127 32.0023 6.21232 31.9175 6.21193 31.8301C6.21226 31.7401 6.21259 31.6501 6.21293 31.5574C6.21375 31.2599 6.21321 30.9625 6.21257 30.665C6.2127 30.4583 6.21288 30.2517 6.21312 30.045C6.21339 29.6119 6.21299 29.1787 6.21212 28.7456C6.21105 28.1901 6.21166 27.6347 6.21278 27.0792C6.21346 26.6524 6.21325 26.2257 6.21276 25.799C6.21264 25.5941 6.21279 25.3893 6.21323 25.1845C6.2137 24.8983 6.21298 24.6122 6.21193 24.326C6.21231 24.2412 6.21269 24.1563 6.21308 24.0689C6.21255 23.9909 6.21203 23.9128 6.21148 23.8324C6.21141 23.7647 6.21134 23.6971 6.21127 23.6275C6.18337 23.4028 6.11799 23.2551 6.00017 23.0624C5.11231 22.3905 4.10869 23.0157 3.39641 23.6491ZM42.0002 23.0624C41.8389 23.3263 41.7891 23.5244 41.7882 23.8317C41.7876 23.9097 41.7869 23.9876 41.7862 24.0679C41.7864 24.1526 41.7867 24.2373 41.7869 24.3246C41.7864 24.4144 41.786 24.5042 41.7855 24.5968C41.7842 24.8938 41.7843 25.1908 41.7845 25.4878C41.7841 25.6943 41.7837 25.9007 41.7833 26.1071C41.7826 26.5399 41.7826 26.9726 41.7831 27.4053C41.7836 27.96 41.782 28.5146 41.7799 29.0692C41.7785 29.4956 41.7784 29.9219 41.7787 30.3482C41.7786 30.5527 41.7781 30.7572 41.7772 30.9617C41.776 31.2476 41.7767 31.5335 41.7778 31.8194C41.7771 31.9039 41.7763 31.9885 41.7756 32.0755C41.7794 32.5233 41.8018 32.8242 42.0939 33.1874C42.4475 33.4343 42.7525 33.3841 43.1636 33.331C43.8416 33.1919 44.407 32.811 44.8127 32.2499C45.2721 31.5142 45.2442 30.7384 45.2408 29.9007C45.2413 29.7549 45.2419 29.6091 45.2425 29.4633C45.2435 29.1589 45.2431 28.8546 45.2417 28.5502C45.2401 28.1623 45.2423 27.7746 45.2456 27.3868C45.2477 27.0861 45.2475 26.7854 45.2467 26.4846C45.2467 26.3417 45.2473 26.1988 45.2487 26.056C45.2568 25.078 45.147 24.3453 44.5215 23.5667C43.828 22.9616 42.8382 22.4282 42.0002 23.0624ZM26.7189 43.0312C26.5842 43.4546 26.5855 43.7857 26.7658 44.1913C27.1348 44.5788 27.5309 44.7287 28.0561 44.7551C28.2032 44.7569 28.3502 44.7572 28.4972 44.756C28.5759 44.7563 28.6546 44.7566 28.7356 44.7568C28.9011 44.757 29.0665 44.7565 29.232 44.7553C29.4838 44.7538 29.7355 44.7553 29.9874 44.7571C30.1489 44.7569 30.3104 44.7566 30.4718 44.756C30.5464 44.7566 30.6209 44.7572 30.6977 44.7578C31.2503 44.7509 31.7194 44.662 32.1447 44.2792C32.2985 43.9631 32.3661 43.6614 32.3439 43.3124C32.137 42.8906 31.9246 42.6633 31.5002 42.4687C31.1963 42.4279 30.8953 42.4293 30.589 42.4313C30.5013 42.4311 30.4136 42.4308 30.3233 42.4305C30.1383 42.4303 29.9532 42.4308 29.7682 42.432C29.4855 42.4335 29.2029 42.432 28.9202 42.4302C28.7402 42.4304 28.5601 42.4308 28.3801 42.4313C28.2958 42.4308 28.2115 42.4302 28.1246 42.4296C27.5369 42.4362 27.0993 42.5483 26.7189 43.0312Z" fill="#23586A"/>
    <path d="M16.6846 11.8932C16.7493 11.8929 16.814 11.8926 16.8806 11.8923C17.0968 11.8915 17.313 11.8914 17.5291 11.8912C17.6844 11.8908 17.8396 11.8903 17.9949 11.8898C18.4164 11.8886 18.8379 11.888 19.2595 11.8876C19.5232 11.8873 19.7869 11.8869 20.0506 11.8865C20.8766 11.8852 21.7026 11.8843 22.5287 11.884C23.4803 11.8835 24.4319 11.8819 25.3836 11.8792C26.1203 11.8771 26.857 11.8762 27.5937 11.8761C28.0332 11.876 28.4726 11.8754 28.9121 11.8737C29.326 11.8722 29.7399 11.872 30.1538 11.8728C30.305 11.8729 30.4561 11.8725 30.6073 11.8716C32.1626 11.8625 33.5259 12.1272 34.7016 13.221C35.7642 14.3602 36.1226 15.6009 36.119 17.1248C36.1197 17.2841 36.1197 17.2841 36.1204 17.4466C36.1217 17.7958 36.1217 18.145 36.1214 18.4941C36.1218 18.7382 36.1222 18.9824 36.1227 19.2265C36.1234 19.7375 36.1233 20.2486 36.1228 20.7596C36.1223 21.3477 36.1234 21.9358 36.1254 22.5238C36.1273 23.0926 36.1276 23.6614 36.1272 24.2302C36.1273 24.4708 36.1278 24.7114 36.1287 24.952C36.1299 25.2893 36.1292 25.6266 36.1282 25.964C36.1289 26.0621 36.1296 26.1602 36.1303 26.2612C36.12 27.7224 35.6365 28.918 34.6324 29.9792C33.7379 30.8015 32.5786 31.2342 31.3752 31.2262C31.2355 31.2256 31.0958 31.2251 30.9561 31.2245C30.8825 31.2241 30.809 31.2236 30.7332 31.2232C30.3415 31.2214 29.9498 31.2228 29.558 31.2238C29.0605 31.2249 28.5631 31.2251 28.0657 31.2211C27.6627 31.218 27.2598 31.2185 26.8568 31.2214C26.7038 31.2219 26.5508 31.221 26.3979 31.2188C25.5599 31.1865 25.5599 31.1865 24.7918 31.4625C24.603 31.6522 24.4442 31.851 24.2807 32.0626C24.1574 32.1758 24.0313 32.2862 23.9026 32.3934C23.5249 32.7189 23.1776 33.0679 22.8309 33.426C22.7005 33.5589 22.5701 33.6918 22.4396 33.8246C22.2375 34.0308 22.0357 34.2373 21.8349 34.4449C21.6387 34.6474 21.441 34.8483 21.243 35.049C21.1547 35.1415 21.1547 35.1415 21.0645 35.2358C20.589 35.7141 20.0819 36.0223 19.412 36.1437C18.7046 36.1348 18.0721 36.0261 17.5238 35.55C16.9708 34.953 16.7349 34.3845 16.7533 33.5718C16.7537 33.504 16.7541 33.4363 16.7545 33.3665C16.756 33.1525 16.7596 32.9386 16.7632 32.7247C16.7646 32.5786 16.7659 32.4326 16.767 32.2865C16.7701 31.9306 16.7749 31.5747 16.7807 31.2188C16.7269 31.2207 16.6731 31.2225 16.6176 31.2244C15.2883 31.2505 14.1223 30.6834 13.1648 29.7855C12.1891 28.6969 11.861 27.4071 11.8694 25.9685C11.8689 25.8622 11.8684 25.756 11.8679 25.6465C11.8666 25.2989 11.8674 24.9513 11.8684 24.6036C11.8682 24.3599 11.8679 24.1162 11.8676 23.8724C11.8672 23.3631 11.8677 22.8537 11.8691 22.3444C11.8706 21.7584 11.8701 21.1724 11.8686 20.5864C11.8671 20.0189 11.8673 19.4515 11.8681 18.884C11.8683 18.6442 11.8681 18.4044 11.8674 18.1646C11.8667 17.8286 11.8678 17.4927 11.8694 17.1567C11.8688 17.0591 11.8682 16.9615 11.8676 16.8609C11.8796 15.4617 12.3239 14.2495 13.2878 13.2251C14.2313 12.3616 15.4123 11.8962 16.6846 11.8932ZM14.7182 15.1876C14.429 15.6509 14.2385 16.1025 14.2357 16.6527C14.235 16.7418 14.2344 16.8309 14.2337 16.9227C14.2334 17.0203 14.2332 17.1179 14.2329 17.2185C14.2323 17.3214 14.2317 17.4243 14.231 17.5304C14.2292 17.8718 14.2281 18.2131 14.2272 18.5545C14.2268 18.6711 14.2264 18.7877 14.226 18.9079C14.2242 19.4615 14.2229 20.0152 14.2221 20.5689C14.2212 21.2066 14.2187 21.8443 14.2149 22.4819C14.2117 23.0353 14.2106 23.5887 14.2103 24.1421C14.2098 24.3769 14.2087 24.6117 14.207 24.8465C14.2047 25.1756 14.2048 25.5047 14.2054 25.8339C14.2042 25.9304 14.203 26.0269 14.2018 26.1262C14.2079 26.977 14.4552 27.635 15.0328 28.2654C15.5112 28.7028 16.0268 28.8812 16.6658 28.8949C16.7508 28.8975 16.8359 28.9002 16.9236 28.9029C17.101 28.9078 17.2785 28.9119 17.456 28.9154C17.9471 28.9321 18.3389 28.9514 18.7495 29.2501C19.066 29.7376 19.0747 30.1669 19.0787 30.7289C19.0804 30.8155 19.0821 30.9021 19.0838 30.9913C19.0889 31.2664 19.0921 31.5414 19.0952 31.8165C19.0983 32.0036 19.1015 32.1908 19.1049 32.3779C19.1128 32.8353 19.1191 33.2927 19.1245 33.7501C19.6877 33.2847 20.1981 32.7779 20.7102 32.2574C20.7985 32.1683 20.8868 32.0791 20.9752 31.99C21.3475 31.6146 21.7194 31.2387 22.0903 30.8619C22.3184 30.6303 22.5472 30.3994 22.7765 30.1688C22.9052 30.039 23.0331 29.9084 23.1611 29.7778C23.2396 29.6989 23.3182 29.62 23.3991 29.5388C23.4677 29.4693 23.5363 29.3998 23.607 29.3282C24.0427 28.963 24.4601 28.9415 25.0105 28.9434C25.1186 28.9427 25.1186 28.9427 25.2288 28.9419C25.3846 28.941 25.5405 28.9404 25.6964 28.9403C25.9435 28.9399 26.1907 28.9383 26.4378 28.9364C27.1404 28.9313 27.843 28.9284 28.5456 28.9261C28.9759 28.9246 29.4062 28.9217 29.8365 28.9181C29.9999 28.917 30.1634 28.9165 30.3268 28.9165C30.5561 28.9164 30.7853 28.9147 31.0146 28.9127C31.0813 28.9131 31.148 28.9135 31.2167 28.914C31.9806 28.9031 32.5602 28.6365 33.1156 28.1225C33.5284 27.6603 33.7601 27.0904 33.7633 26.4725C33.764 26.3834 33.7646 26.2943 33.7653 26.2025C33.7656 26.1049 33.7658 26.0073 33.7661 25.9067C33.767 25.7523 33.767 25.7523 33.768 25.5948C33.7698 25.2534 33.7709 24.912 33.7718 24.5707C33.7722 24.4541 33.7726 24.3375 33.773 24.2173C33.7747 23.6636 33.7761 23.11 33.7769 22.5563C33.7778 21.9186 33.7803 21.2809 33.7841 20.6433C33.7872 20.0899 33.7883 19.5365 33.7887 18.9831C33.7892 18.7483 33.7903 18.5135 33.792 18.2787C33.7943 17.9496 33.7942 17.6204 33.7936 17.2912C33.7948 17.1948 33.796 17.0983 33.7972 16.9989C33.7911 16.1542 33.5456 15.488 32.9728 14.8598C32.4488 14.4003 31.8443 14.2387 31.1618 14.2363C31.067 14.2358 31.067 14.2358 30.9703 14.2353C30.7581 14.2342 30.5458 14.2339 30.3336 14.2335C30.1816 14.2329 30.0296 14.2323 29.8776 14.2316C29.378 14.2297 28.8783 14.2287 28.3786 14.2278C28.2065 14.2274 28.0344 14.227 27.8623 14.2266C27.0536 14.2248 26.2448 14.2235 25.436 14.2227C24.5031 14.2218 23.5702 14.2193 22.6373 14.2155C21.9159 14.2127 21.1945 14.2113 20.473 14.211C20.0423 14.2108 19.6117 14.2099 19.181 14.2076C18.7754 14.2054 18.3699 14.205 17.9644 14.206C17.816 14.206 17.6676 14.2054 17.5192 14.2041C16.4124 14.1951 15.4836 14.3149 14.7182 15.1876Z" fill="#23586A"/>
    <path d="M19.2296 20.1312C19.676 20.365 19.9441 20.6874 20.1795 21.1229C20.3455 21.7176 20.2889 22.1714 19.9946 22.7035C19.7445 23.0615 19.449 23.2981 19.0311 23.4374C18.4131 23.5073 17.9162 23.4897 17.4055 23.1122C17.0487 22.7831 16.9013 22.5149 16.8397 22.0432C16.815 21.4261 16.856 21.0136 17.2499 20.5311C17.8102 20.0143 18.5034 19.8794 19.2296 20.1312Z" fill="#23586A"/>
    <path d="M30.2212 20.1441C30.6517 20.3909 30.9834 20.6999 31.125 21.1874C31.1923 21.7028 31.215 22.2149 30.9727 22.6874C30.6697 23.0701 30.3681 23.2834 29.9062 23.4374C29.2608 23.5062 28.8371 23.4506 28.3125 23.0624C27.9293 22.6585 27.7692 22.3202 27.7148 21.7675C27.7301 21.2637 27.9188 20.8425 28.2653 20.477C28.8139 20.0009 29.5349 19.8907 30.2212 20.1441Z" fill="#23586A"/>
    <path d="M24.774 20.162C25.1883 20.4539 25.5263 20.7957 25.6881 21.2812C25.7381 21.8404 25.7399 22.3084 25.4068 22.7812C24.9745 23.2156 24.6465 23.4493 24.0182 23.4609C23.5145 23.4528 23.1808 23.3666 22.8137 23.0013C22.3805 22.5169 22.2834 22.1625 22.2937 21.5152C22.3353 21.0137 22.5604 20.732 22.9225 20.4081C23.4567 19.9618 24.1275 19.9507 24.774 20.162Z" fill="#23586A"/>
  </g>
  <defs>
    <clipPath id="clip0_126_1776">
      <rect width="48" height="48" fill="white"/>
    </clipPath>
  </defs>
</svg>