<svg xmlns="http://www.w3.org/2000/svg" width="78" height="77" viewBox="0 0 78 77" fill="none">
  <g clip-path="url(#clip0_38_9027)">
    <path d="M34.4082 20.0745C34.5186 20.0735 34.629 20.0724 34.7427 20.0713C35.1062 20.0687 35.4694 20.0704 35.8328 20.0725C36.0862 20.0721 36.3396 20.0715 36.593 20.0707C37.1234 20.0698 37.6538 20.0711 38.1843 20.0739C38.8635 20.0774 39.5426 20.0754 40.2217 20.0718C40.7448 20.0696 41.2678 20.0703 41.7909 20.0719C42.0412 20.0723 42.2916 20.0718 42.542 20.0704C42.8923 20.0688 43.2424 20.0712 43.5926 20.0745C43.6956 20.0733 43.7986 20.0721 43.9047 20.0708C44.4005 20.0796 44.7174 20.1535 45.1561 20.389C45.5659 20.8696 45.5684 21.254 45.5526 21.8576C45.5528 22.0228 45.5528 22.0228 45.5529 22.1913C45.5524 22.5543 45.5466 22.917 45.5407 23.28C45.5393 23.532 45.5382 23.7841 45.5374 24.0361C45.5346 24.6987 45.5272 25.3613 45.5189 26.0239C45.5112 26.7003 45.5077 27.3767 45.504 28.0532C45.4959 29.3799 45.4831 30.7065 45.4672 32.0332C45.6072 32.0315 45.7472 32.0299 45.8914 32.0282C47.2102 32.0129 48.5291 32.0016 49.848 31.9943C50.5261 31.9903 51.2041 31.985 51.8821 31.9765C52.5364 31.9683 53.1907 31.9638 53.845 31.9619C54.0947 31.9605 54.3444 31.9578 54.5941 31.9537C54.9437 31.9483 55.2931 31.9475 55.6428 31.9478C55.7461 31.9451 55.8494 31.9424 55.9559 31.9397C56.4753 31.9453 56.7123 32.004 57.1114 32.3444C57.3981 32.8783 57.4329 33.3164 57.4259 33.9078C57.427 34.0182 57.428 34.1286 57.4291 34.2423C57.4318 34.6057 57.43 34.969 57.428 35.3324C57.4284 35.5858 57.429 35.8392 57.4297 36.0926C57.4306 36.623 57.4293 37.1534 57.4265 37.6839C57.4231 38.3631 57.4251 39.0421 57.4287 39.7213C57.4308 40.2444 57.4302 40.7674 57.4286 41.2904C57.4282 41.5408 57.4287 41.7912 57.4301 42.0416C57.4316 42.3919 57.4293 42.7419 57.4259 43.0922C57.4272 43.1952 57.4284 43.2982 57.4296 43.4043C57.4209 43.9001 57.347 44.2169 57.1114 44.6557C56.6309 45.0654 56.2464 45.068 55.6428 45.0522C55.5327 45.0523 55.4226 45.0524 55.3092 45.0525C54.9462 45.052 54.5834 45.0461 54.2204 45.0402C53.9684 45.0388 53.7164 45.0378 53.4644 45.037C52.8017 45.0341 52.1392 45.0268 51.4766 45.0184C50.8002 45.0107 50.1237 45.0073 49.4473 45.0035C48.1206 44.9955 46.7939 44.9826 45.4672 44.9668C45.4689 45.1068 45.4706 45.2468 45.4723 45.391C45.4875 46.7098 45.4988 48.0286 45.5062 49.3476C45.5101 50.0256 45.5154 50.7036 45.524 51.3817C45.5321 52.036 45.5366 52.6902 45.5386 53.3446C45.54 53.5943 45.5427 53.844 45.5467 54.0936C45.5522 54.4433 45.5529 54.7927 45.5526 55.1424C45.5567 55.2974 45.5567 55.2974 45.5608 55.4555C45.5552 55.9749 45.4964 56.2119 45.1561 56.611C44.6221 56.8977 44.184 56.9325 43.5926 56.9255C43.4823 56.9266 43.3719 56.9276 43.2581 56.9287C42.8947 56.9313 42.5315 56.9296 42.168 56.9276C41.9147 56.928 41.6613 56.9286 41.4079 56.9293C40.8774 56.9302 40.347 56.9289 39.8166 56.9261C39.1374 56.9227 38.4583 56.9246 37.7791 56.9282C37.2561 56.9304 36.7331 56.9297 36.21 56.9282C35.9596 56.9278 35.7092 56.9283 35.4588 56.9297C35.1086 56.9312 34.7585 56.9289 34.4082 56.9255C34.3052 56.9267 34.2023 56.9279 34.0961 56.9292C33.6004 56.9204 33.2835 56.8465 32.8448 56.611C32.435 56.1304 32.4325 55.746 32.4483 55.1424C32.4482 55.0323 32.4481 54.9222 32.4479 54.8088C32.4485 54.4457 32.4543 54.083 32.4602 53.72C32.4616 53.468 32.4627 53.216 32.4634 52.9639C32.4663 52.3013 32.4737 51.6388 32.482 50.9761C32.4897 50.2997 32.4931 49.6233 32.4969 48.9469C32.505 47.6201 32.5178 46.2935 32.5336 44.9668C32.3237 44.9693 32.3237 44.9693 32.1095 44.9719C30.7906 44.9871 29.4718 44.9984 28.1529 45.0058C27.4748 45.0097 26.7968 45.015 26.1188 45.0235C25.4645 45.0317 24.8102 45.0362 24.1559 45.0382C23.9062 45.0395 23.6565 45.0423 23.4068 45.0463C23.0572 45.0518 22.7078 45.0525 22.358 45.0522C22.2031 45.0562 22.2031 45.0562 22.045 45.0604C21.5256 45.0548 21.2886 44.996 20.8894 44.6557C20.6028 44.1217 20.568 43.6836 20.5749 43.0922C20.5734 42.9266 20.5734 42.9266 20.5717 42.7577C20.5691 42.3943 20.5709 42.031 20.5729 41.6676C20.5725 41.4142 20.5719 41.1609 20.5711 40.9075C20.5703 40.377 20.5715 39.8466 20.5744 39.3161C20.5778 38.6369 20.5758 37.9579 20.5722 37.2787C20.57 36.7557 20.5707 36.2326 20.5723 35.7096C20.5727 35.4592 20.5722 35.2088 20.5708 34.9584C20.5693 34.6081 20.5716 34.2581 20.5749 33.9078C20.5737 33.8048 20.5725 33.7018 20.5713 33.5957C20.58 33.0999 20.6539 32.7831 20.8894 32.3444C21.37 31.9346 21.7544 31.9321 22.358 31.9478C22.4681 31.9477 22.5782 31.9476 22.6917 31.9475C23.0547 31.948 23.4175 31.9539 23.7804 31.9598C24.0325 31.9612 24.2845 31.9623 24.5365 31.963C25.1992 31.9659 25.8617 31.9733 26.5243 31.9816C27.2007 31.9893 27.8771 31.9927 28.5536 31.9965C29.8803 32.0046 31.207 32.0174 32.5336 32.0332C32.532 31.8932 32.5303 31.7533 32.5286 31.6091C32.5133 30.2902 32.5021 28.9714 32.4947 27.6525C32.4908 26.9744 32.4854 26.2964 32.4769 25.6183C32.4687 24.964 32.4642 24.3098 32.4623 23.6554C32.4609 23.4057 32.4582 23.1561 32.4541 22.9064C32.4487 22.5567 32.4479 22.2073 32.4483 21.8576C32.4456 21.7543 32.4429 21.651 32.4401 21.5446C32.4457 21.0251 32.5044 20.7882 32.8448 20.389C33.3788 20.1023 33.8168 20.0675 34.4082 20.0745Z" fill="#23586A"/>
    <path d="M49.9508 46.0801C50.0509 46.0779 50.151 46.0756 50.2542 46.0733C50.584 46.0668 50.9136 46.0649 51.2434 46.0636C51.4744 46.0613 51.7054 46.0589 51.9364 46.0564C52.4206 46.0522 52.9047 46.0504 53.3889 46.0502C54.0055 46.0494 54.6215 46.0396 55.2379 46.0276C55.7153 46.0197 56.1927 46.0181 56.6701 46.0181C56.8971 46.0171 57.1241 46.0139 57.3511 46.0084C58.7682 45.977 59.6872 46.1482 60.7474 47.1522C60.866 47.2747 60.9847 47.3972 61.1069 47.5234C61.2153 47.6263 61.3238 47.7291 61.4355 47.8351C61.7451 48.1299 62.0455 48.4318 62.3447 48.7371C62.453 48.8462 62.5613 48.9553 62.6729 49.0677C63.0132 49.4107 63.3526 49.7547 63.6918 50.0989C64.0327 50.444 64.3738 50.7888 64.7155 51.1333C64.9263 51.3459 65.1368 51.559 65.3467 51.7725C66.4347 52.9374 66.4347 52.9374 67.7241 53.8398C67.8327 53.8181 67.9412 53.7964 68.0531 53.774C69.2031 53.544 70.1473 53.7731 71.1831 54.291C72.0536 54.9281 72.5328 55.6833 72.7622 56.7442C72.9268 57.8414 72.7821 58.8125 72.1583 59.745C71.4174 60.6461 70.5593 61.2719 69.3719 61.3899C68.1183 61.4173 67.0781 61.1345 66.1456 60.269C65.3605 59.3554 65.1195 58.3138 65.1211 57.1373C65.1817 56.5619 65.3819 56.1385 65.6668 55.6404C65.8017 55.3443 65.8017 55.3443 65.675 55.0453C65.43 54.6861 65.1584 54.3982 64.8479 54.0936C64.6845 53.9316 64.6845 53.9316 64.5177 53.7664C64.1467 53.4074 64.1467 53.4074 63.8521 53.1833C63.267 52.7149 62.8395 52.2531 62.4369 51.6169C61.5308 50.2074 60.4588 48.8822 58.8511 48.2754C56.6466 47.8233 54.3316 47.9511 52.0954 48.0249C51.9823 48.0286 51.8693 48.0322 51.7528 48.036C51.2116 48.0547 50.6715 48.0785 50.131 48.1124C49.9393 48.1224 49.7476 48.1324 49.55 48.1426C49.2974 48.159 49.2974 48.159 49.0397 48.1757C48.6245 48.125 48.6245 48.125 48.3458 47.8466C48.1276 47.4378 48.082 47.2279 48.1733 46.7715C48.7473 46.1937 49.1476 46.0924 49.9508 46.0801Z" fill="#23586A"/>
    <path d="M20.9407 46.0607C21.1732 46.0608 21.4057 46.0607 21.6382 46.0602C22.1236 46.0602 22.6087 46.0634 23.094 46.0688C23.7151 46.0757 24.3359 46.0758 24.9569 46.0738C25.4363 46.0728 25.9155 46.0748 26.3949 46.0777C26.6238 46.0789 26.8528 46.0792 27.0818 46.0788C27.4018 46.0786 27.7215 46.0824 28.0415 46.0873C28.2232 46.0887 28.4049 46.0901 28.5922 46.0915C29.1693 46.1854 29.4271 46.3483 29.8261 46.7715C29.8157 47.3722 29.8063 47.6936 29.3749 48.125C28.9839 48.1335 28.9839 48.1335 28.4808 48.0942C28.1975 48.075 28.1975 48.075 27.9085 48.0553C27.8068 48.0482 27.7051 48.041 27.6004 48.0337C22.2215 47.4965 22.2215 47.4965 17.4077 49.3522C16.3186 50.3334 15.4188 51.4904 14.5835 52.6903C14.1318 53.3329 13.6026 53.8146 12.9824 54.291C12.7244 54.5355 12.4778 54.7878 12.2304 55.043C12.2738 55.1453 12.3173 55.2477 12.362 55.3532C12.8419 56.6063 13.1091 57.7892 12.5782 59.0659C12.0374 60.1342 11.402 60.7722 10.2753 61.209C9.18538 61.5302 8.20529 61.4141 7.17176 60.9576C6.22547 60.4258 5.62989 59.6929 5.31243 58.6524C5.0445 57.4132 5.16149 56.3481 5.85349 55.2703C6.57613 54.3637 7.34392 53.9391 8.47064 53.6895C9.04365 53.6425 9.42799 53.6597 9.97454 53.8305C10.4175 53.8863 10.4175 53.8863 10.6736 53.6525C10.8417 53.4817 11.0051 53.3062 11.1624 53.1255C11.4404 52.8279 11.7224 52.572 12.0313 52.3078C12.6404 51.7778 13.2113 51.2194 13.7766 50.6435C13.9797 50.4385 14.1827 50.2336 14.3858 50.0287C14.6999 49.7109 15.0137 49.3928 15.3271 49.0744C15.6336 48.7633 15.9411 48.4532 16.2487 48.1432C16.3406 48.0492 16.4326 47.9552 16.5274 47.8583C16.7942 47.5901 17.0677 47.331 17.3437 47.0723C17.4267 46.9854 17.5097 46.8985 17.5953 46.809C18.5537 45.9247 19.715 46.0444 20.9407 46.0607Z" fill="#23586A"/>
    <path d="M71.1836 16.2422C72.1637 16.9851 72.6366 17.8548 72.8191 19.0714C72.9009 20.2706 72.5912 21.1759 71.8228 22.098C70.9425 23.0038 70.0905 23.2099 68.8637 23.307C68.4766 23.3105 68.4766 23.3105 67.9878 23.1789C67.5778 23.116 67.5778 23.116 67.3287 23.347C67.1595 23.5176 66.9953 23.6933 66.8375 23.8745C66.5595 24.1721 66.2775 24.428 65.9686 24.6922C65.3596 25.2222 64.7887 25.7806 64.2233 26.3565C64.0203 26.5615 63.8172 26.7664 63.6141 26.9713C63.3001 27.2891 62.9862 27.6072 62.6728 27.9256C62.3663 28.2367 62.0589 28.5468 61.7513 28.8568C61.6593 28.9508 61.5673 29.0448 61.4725 29.1417C61.2058 29.4099 60.9322 29.669 60.6562 29.9277C60.5732 30.0146 60.4902 30.1015 60.4046 30.191C59.4462 31.0753 58.285 30.9556 57.0592 30.9393C56.8267 30.9392 56.5942 30.9393 56.3617 30.9398C55.8764 30.9398 55.3912 30.9366 54.9059 30.9312C54.2849 30.9243 53.6641 30.9242 53.043 30.9262C52.5637 30.9272 52.0844 30.9252 51.6051 30.9223C51.3761 30.9211 51.1471 30.9208 50.9181 30.9213C50.5981 30.9214 50.2784 30.9176 49.9584 30.9127C49.7767 30.9113 49.595 30.9099 49.4078 30.9085C48.8307 30.8146 48.5729 30.6517 48.1738 30.2285C48.1842 29.6278 48.1936 29.3064 48.625 28.875C49.016 28.8665 49.016 28.8665 49.5192 28.9058C49.8024 28.925 49.8024 28.925 50.0914 28.9447C50.244 28.9554 50.244 28.9554 50.3996 28.9663C55.7785 29.5035 55.7785 29.5035 60.5922 27.6478C61.6813 26.6666 62.5811 25.5096 63.4164 24.3097C63.8681 23.6671 64.3973 23.1854 65.0176 22.709C65.2755 22.4645 65.5221 22.2122 65.7695 21.957C65.7261 21.8516 65.6827 21.7461 65.6379 21.6374C65.5821 21.4948 65.5263 21.3521 65.4688 21.2051C65.4129 21.0748 65.3571 20.9445 65.2996 20.8103C65.006 19.6781 65.0542 18.6418 65.5904 17.5957C66.185 16.5975 66.9053 16.0325 68.0236 15.7029C69.1678 15.4674 70.1694 15.6722 71.1836 16.2422Z" fill="#23586A"/>
    <path d="M11.2915 16.2575C12.0868 16.8769 12.6062 17.6705 12.8319 18.6485C12.9486 19.6676 12.7891 20.4052 12.3325 21.3214C12.1976 21.6512 12.1976 21.6512 12.3243 21.96C12.5708 22.315 12.8428 22.6036 13.1515 22.9064C13.3149 23.0684 13.3149 23.0684 13.4816 23.2336C13.8526 23.5926 13.8526 23.5926 14.1472 23.8167C14.7323 24.2851 15.1598 24.7469 15.5625 25.3831C16.4685 26.7927 17.5405 28.1178 19.1483 28.7246C21.3527 29.1767 23.6677 29.0489 25.904 28.9751C26.0735 28.9696 26.0735 28.9696 26.2466 28.964C26.7877 28.9453 27.3279 28.9215 27.8683 28.8876C28.06 28.8776 28.2518 28.8676 28.4493 28.8574C28.6177 28.8464 28.7861 28.8355 28.9597 28.8243C29.3748 28.875 29.3748 28.875 29.6536 29.1534C29.8717 29.5622 29.9173 29.7721 29.826 30.2285C29.252 30.8063 28.8517 30.9076 28.0486 30.9199C27.9484 30.9221 27.8483 30.9244 27.7451 30.9267C27.4154 30.9332 27.0858 30.9351 26.7559 30.9364C26.5249 30.9387 26.294 30.9411 26.063 30.9436C25.5788 30.9479 25.0946 30.9496 24.6104 30.9498C23.9939 30.9506 23.3778 30.9604 22.7614 30.9724C22.284 30.9803 21.8067 30.9819 21.3292 30.9819C21.1022 30.9829 20.8752 30.9861 20.6483 30.9916C19.2311 31.023 18.3121 30.8518 17.252 29.8478C17.1333 29.7253 17.0147 29.6028 16.8924 29.4766C16.784 29.3737 16.6756 29.2709 16.5638 29.1649C16.2542 28.8701 15.9539 28.5682 15.6546 28.2629C15.5463 28.1538 15.438 28.0447 15.3264 27.9323C14.9861 27.5893 14.6468 27.2453 14.3076 26.9011C13.9667 26.556 13.6255 26.2112 13.2839 25.8667C13.073 25.6541 12.8626 25.441 12.6526 25.2275C11.5646 24.0626 11.5646 24.0626 10.2752 23.1602C10.0239 23.1855 9.77327 23.2179 9.52328 23.2542C8.32878 23.3697 7.3996 23.1398 6.45907 22.38C5.60414 21.5545 5.21936 20.6731 5.14844 19.4874C5.18865 18.3335 5.58702 17.4766 6.37976 16.647C7.77295 15.4083 9.70413 15.2627 11.2915 16.2575Z" fill="#23586A"/>
    <path d="M22.5738 56.052C22.7193 56.0501 22.8649 56.0482 23.0149 56.0462C23.1718 56.0459 23.3288 56.0455 23.4905 56.0452C23.7328 56.0437 23.7328 56.0437 23.9799 56.0422C24.3216 56.0406 24.6633 56.0399 25.0051 56.04C25.5282 56.0393 26.0513 56.0339 26.5744 56.0281C26.9062 56.0273 27.2381 56.0267 27.5699 56.0264C27.7265 56.0242 27.8832 56.0221 28.0446 56.0198C29.1216 56.0267 29.1216 56.0267 29.6296 56.3667C29.8263 56.6973 29.8263 56.6973 29.8169 57.2424C29.6759 57.75 29.6759 57.75 29.2248 58.0508C28.9412 58.0643 28.9412 58.0643 28.6181 58.0319C28.4964 58.0215 28.3746 58.0111 28.2492 58.0003C28.1177 57.9887 27.9862 57.977 27.8507 57.965C24.8922 57.6309 24.8922 57.6309 22.2369 58.5863C21.4055 59.5048 20.9748 60.6967 20.5738 61.8496C20.2823 62.647 19.8088 63.3395 19.3452 64.0463C19.0937 64.5139 19.0937 64.5139 19.2815 65.0103C19.5061 65.434 19.5061 65.434 19.7966 65.8106C20.2595 66.4681 20.2646 67.1917 20.2013 67.9766C19.9218 69.1181 19.5016 69.9757 18.547 70.6836C17.5051 71.2734 16.3796 71.4234 15.2196 71.1348C14.2152 70.7873 13.4621 70.1355 12.9168 69.2267C12.4495 68.2361 12.349 67.2013 12.71 66.1531C13.1328 65.1612 13.6739 64.436 14.6369 63.916C15.2683 63.6731 15.8077 63.6016 16.4768 63.6082C16.6113 63.6092 16.7458 63.6102 16.8844 63.6113C17.0374 63.6132 17.0374 63.6132 17.1935 63.6152C17.2409 63.5301 17.2883 63.4451 17.3372 63.3574C18.3267 61.5851 19.3332 59.8237 20.3705 58.079C20.5146 57.8343 20.5146 57.8343 20.6616 57.5847C20.7521 57.4335 20.8425 57.2824 20.9357 57.1267C21.0154 56.9928 21.0951 56.8589 21.1772 56.7209C21.5733 56.1555 21.9176 56.0579 22.5738 56.052Z" fill="#23586A"/>
    <path d="M49.4906 56.0496C49.6357 56.0472 49.7807 56.0448 49.9302 56.0424C50.0867 56.0415 50.2432 56.0407 50.4045 56.0399C50.5656 56.0385 50.7267 56.0372 50.8928 56.0358C51.2338 56.0336 51.5749 56.0323 51.916 56.0317C52.4376 56.0299 52.9589 56.0225 53.4804 56.0149C53.8117 56.0135 54.1431 56.0124 54.4744 56.0117C54.6303 56.0088 54.7862 56.0058 54.9468 56.0028C56.0267 56.0096 56.0267 56.0096 56.5925 56.4252C56.8864 56.8344 57.1568 57.2372 57.4047 57.676C57.4956 57.8356 57.5864 57.9951 57.6801 58.1595C57.7749 58.3284 57.8698 58.4972 57.9675 58.6712C58.0677 58.8459 58.1681 59.0206 58.2686 59.1951C58.7341 60.0052 59.1879 60.819 59.6141 61.6508C59.6844 61.7835 59.7546 61.9163 59.827 62.0531C59.9563 62.2987 60.081 62.5469 60.2002 62.7976C60.3787 63.1315 60.5172 63.3698 60.8061 63.6152C61.2054 63.688 61.5437 63.6805 61.9469 63.6394C62.8149 63.5816 63.6476 64.0698 64.3244 64.5793C65.0789 65.3265 65.4353 66.2888 65.5058 67.328C65.4816 68.513 65.0715 69.4191 64.2563 70.2736C63.3487 71.0806 62.3134 71.3508 61.1069 71.2852C59.9547 71.0495 59.113 70.5682 58.3998 69.6309C57.8332 68.6865 57.6154 67.6823 57.8782 66.5925C58.1594 65.6938 58.1594 65.6938 58.4206 65.3356C58.6123 65.0632 58.7506 64.8358 58.851 64.5176C58.6873 64.0437 58.5358 63.7353 58.2682 63.3239C57.7458 62.5095 57.3127 61.758 57.0034 60.8365C56.6004 59.7712 56.2259 58.8393 55.2416 58.2012C53.5255 57.708 51.533 57.899 49.7751 58.0498C48.8662 58.1129 48.8662 58.1129 48.386 57.7863C48.1733 57.4492 48.1733 57.4492 48.1827 56.9041C48.3959 56.1364 48.7579 56.0588 49.4906 56.0496Z" fill="#23586A"/>
    <path d="M18.6978 6.46677C19.6751 7.33425 20.1199 8.26055 20.2581 9.54978C20.1795 10.2833 20.022 11.0573 19.5793 11.6644C19.3877 11.9368 19.2493 12.1642 19.1489 12.4824C19.3126 12.9563 19.4641 13.2647 19.7317 13.6761C20.2541 14.4905 20.6872 15.2419 20.9965 16.1634C21.3996 17.2288 21.774 18.1607 22.7583 18.7988C24.4745 19.292 26.4669 19.101 28.2248 18.9502C29.1337 18.887 29.1337 18.887 29.6139 19.2137C29.8267 19.5508 29.8267 19.5508 29.8173 20.0959C29.6763 20.6035 29.6763 20.6035 29.2251 20.9043C28.8961 20.9455 28.8961 20.9455 28.5093 20.9503C28.3643 20.9528 28.2192 20.9552 28.0697 20.9576C27.9132 20.9584 27.7567 20.9592 27.5955 20.9601C27.4343 20.9614 27.2732 20.9628 27.1072 20.9642C26.7661 20.9664 26.425 20.9677 26.0839 20.9683C25.5624 20.9701 25.041 20.9774 24.5195 20.985C24.1882 20.9865 23.8569 20.9876 23.5255 20.9883C23.3696 20.9912 23.2137 20.9942 23.0531 20.9972C21.9732 20.9904 21.9732 20.9904 21.4074 20.5748C21.1135 20.1656 20.8431 19.7627 20.5953 19.324C20.5044 19.1644 20.4135 19.0048 20.3199 18.8404C20.225 18.6716 20.1302 18.5028 20.0325 18.3288C19.9323 18.1541 19.8319 17.9794 19.7313 17.8049C19.2658 16.9948 18.812 16.1809 18.3858 15.3492C18.3156 15.2164 18.2453 15.0837 18.1729 14.9469C18.0436 14.7013 17.9189 14.4531 17.7997 14.2024C17.6212 13.8685 17.4828 13.6301 17.1938 13.3847C16.7945 13.3119 16.4562 13.3195 16.053 13.3605C15.185 13.4184 14.3523 12.9302 13.6755 12.4207C12.921 11.6735 12.5646 10.7112 12.4941 9.67197C12.5183 8.48586 12.9304 7.58583 13.7402 6.72643C15.1398 5.49655 17.1732 5.37236 18.6978 6.46677Z" fill="#23586A"/>
    <path d="M63.9644 6.46679C64.9096 7.32284 65.4619 8.24845 65.5341 9.531C65.4952 10.6004 65.0455 11.7443 64.2652 12.4824C63.3538 13.0737 62.6147 13.4086 61.5205 13.3942C61.3864 13.3928 61.2522 13.3914 61.114 13.39C61.0124 13.3883 60.9108 13.3866 60.8062 13.3848C60.7588 13.4699 60.7113 13.5549 60.6625 13.6426C59.673 15.4149 58.6664 17.1763 57.6292 18.921C57.5331 19.0841 57.437 19.2473 57.338 19.4153C57.2476 19.5665 57.1572 19.7176 57.064 19.8733C56.9843 20.0072 56.9046 20.1411 56.8225 20.2791C56.5952 20.6035 56.5952 20.6035 56.1441 20.9043C55.8141 20.9445 55.8141 20.9445 55.4259 20.948C55.2076 20.9509 55.2076 20.9509 54.9848 20.9538C54.7494 20.9543 54.7494 20.9543 54.5092 20.9548C54.2669 20.9563 54.2669 20.9563 54.0198 20.9578C53.678 20.9594 53.3363 20.9601 52.9946 20.96C52.4714 20.9607 51.9484 20.9661 51.4253 20.9719C51.0934 20.9727 50.7616 20.9733 50.4298 20.9736C50.2731 20.9758 50.1165 20.9779 49.955 20.9802C48.878 20.9733 48.878 20.9733 48.3701 20.6333C48.1734 20.3027 48.1734 20.3027 48.1828 19.7576C48.3237 19.25 48.3237 19.25 48.7749 18.9492C49.0585 18.9357 49.0585 18.9357 49.3816 18.9681C49.5642 18.9837 49.5642 18.9837 49.7505 18.9997C49.882 19.0113 50.0135 19.023 50.149 19.035C53.1075 19.3691 53.1075 19.3691 55.7628 18.4137C56.5941 17.4952 57.0249 16.3033 57.4259 15.1504C57.7174 14.353 58.1909 13.6605 58.6544 12.9537C58.906 12.4861 58.906 12.4861 58.7181 11.9897C58.4935 11.566 58.4935 11.566 58.2031 11.1894C57.7402 10.5319 57.7351 9.80825 57.7984 9.02343C58.0769 7.88573 58.4961 7.01825 59.4527 6.3164C60.8699 5.50048 62.6192 5.49838 63.9644 6.46679Z" fill="#23586A"/>
    <path d="M75.9715 35.2478C76.7234 35.8134 77.2091 36.5576 77.4995 37.4473C77.6543 38.7816 77.5821 39.9654 76.7476 41.0566C75.8997 41.8772 75.0414 42.3018 73.8526 42.3162C72.7768 42.2943 71.9754 42.1185 71.1778 41.3715C70.1304 40.2187 70.1304 40.2187 70.1304 39.4023C69.9976 39.4037 69.8649 39.405 69.7281 39.4064C68.4778 39.4184 67.2275 39.4276 65.9772 39.4335C65.3343 39.4366 64.6915 39.4409 64.0487 39.4477C63.4285 39.4542 62.8084 39.4579 62.1882 39.4594C61.9514 39.4605 61.7146 39.4627 61.4778 39.4659C61.1465 39.4703 60.8154 39.4709 60.4841 39.4706C60.201 39.4726 60.201 39.4726 59.9123 39.4747C59.4527 39.4023 59.4527 39.4023 59.1609 39.1267C58.936 38.6669 59.0152 38.3822 59.1519 37.8984C59.4527 37.5977 59.4527 37.5977 59.8942 37.5615C60.1777 37.5625 60.1777 37.5625 60.467 37.5635C60.5712 37.5635 60.6754 37.5634 60.7827 37.5634C61.1278 37.5636 61.4728 37.5659 61.8178 37.5683C62.0568 37.5688 62.2957 37.5693 62.5347 37.5696C63.1642 37.5707 63.7936 37.5737 64.4231 37.577C65.0652 37.5801 65.7074 37.5814 66.3495 37.583C67.6098 37.5862 68.8701 37.5913 70.1304 37.5977C70.1601 37.4252 70.1601 37.4252 70.1903 37.2493C70.4038 36.297 71.137 35.5646 71.9351 35.041C73.2759 34.4999 74.7097 34.5256 75.9715 35.2478Z" fill="#23586A"/>
    <path d="M5.89457 34.9658C6.78113 35.423 7.48473 36.227 7.86845 37.1465C7.86845 37.2954 7.86845 37.4443 7.86845 37.5977C8.00122 37.596 8.13399 37.5943 8.27078 37.5926C9.52107 37.5775 10.7713 37.5661 12.0217 37.5587C12.6645 37.5548 13.3073 37.5494 13.9501 37.5409C14.5703 37.5328 15.1904 37.5283 15.8106 37.5263C16.0474 37.5249 16.2842 37.5222 16.521 37.5182C16.8524 37.5127 17.1834 37.5119 17.5148 37.5123C17.7978 37.5098 17.7978 37.5098 18.0866 37.5072C18.5462 37.5977 18.5462 37.5977 18.8433 37.9484C18.9974 38.3496 18.9974 38.3496 18.8846 38.8384C18.6966 39.252 18.6966 39.252 18.5462 39.4023C18.214 39.4165 17.8814 39.42 17.5489 39.4194C17.4448 39.4194 17.3406 39.4195 17.2333 39.4195C16.8874 39.4194 16.5416 39.4182 16.1957 39.417C15.9566 39.4168 15.7174 39.4165 15.4782 39.4164C14.8475 39.4158 14.2168 39.4143 13.5861 39.4127C12.9429 39.4111 12.2998 39.4104 11.6567 39.4097C10.3939 39.4081 9.1312 39.4055 7.86845 39.4023C7.84867 39.5173 7.8289 39.6323 7.80853 39.7507C7.59506 40.703 6.86182 41.4354 6.06376 41.959C5.00892 42.3847 3.87337 42.456 2.7769 42.1335C1.73224 41.6641 1.12405 40.9739 0.630311 39.954C0.282317 38.8881 0.340261 37.6404 0.800088 36.6201C1.83795 34.8275 3.98472 34.2242 5.89457 34.9658Z" fill="#23586A"/>
  </g>
  <defs>
    <clipPath id="clip0_38_9027">
      <rect width="77" height="77" fill="white" transform="translate(0.5)"/>
    </clipPath>
  </defs>
</svg>